<?xml version="1.0" encoding="utf-8" standalone="no"?>
<!DOCTYPE svg PUBLIC "-//W3C//DTD SVG 1.1//EN"
  "http://www.w3.org/Graphics/SVG/1.1/DTD/svg11.dtd">
<svg xmlns:xlink="http://www.w3.org/1999/xlink" width="1430.928494pt" height="566.692769pt" viewBox="0 0 1430.928494 566.692769" xmlns="http://www.w3.org/2000/svg" version="1.1">
 <metadata>
  <rdf:RDF xmlns:dc="http://purl.org/dc/elements/1.1/" xmlns:cc="http://creativecommons.org/ns#" xmlns:rdf="http://www.w3.org/1999/02/22-rdf-syntax-ns#">
   <cc:Work>
    <dc:type rdf:resource="http://purl.org/dc/dcmitype/StillImage"/>
    <dc:date>2025-06-13T18:32:16.345433</dc:date>
    <dc:format>image/svg+xml</dc:format>
    <dc:creator>
     <cc:Agent>
      <dc:title>Matplotlib v3.9.4, https://matplotlib.org/</dc:title>
     </cc:Agent>
    </dc:creator>
   </cc:Work>
  </rdf:RDF>
 </metadata>
 <defs>
  <style type="text/css">*{stroke-linejoin: round; stroke-linecap: butt}</style>
 </defs>
 <g id="figure_1">
  <g id="patch_1">
   <path d="M 0 566.692769 
L 1430.928494 566.692769 
L 1430.928494 0 
L 0 0 
z
" style="fill: #ffffff"/>
  </g>
  <g id="axes_1">
   <g id="patch_2">
    <path d="M 45.716875 481.418305 
L 539.628239 481.418305 
L 539.628239 48.48 
L 45.716875 48.48 
z
" style="fill: #ffffff"/>
   </g>
   <g id="patch_3">
    <path d="M 68.167392 481.418305 
L 110.641342 481.418305 
L 110.641342 131.069348 
L 68.167392 131.069348 
z
" clip-path="url(#p305d41e9ca)" style="fill: #e41a1c; opacity: 0.8"/>
   </g>
   <g id="patch_4">
    <path d="M 189.521535 481.418305 
L 231.995485 481.418305 
L 231.995485 144.974308 
L 189.521535 144.974308 
z
" clip-path="url(#p305d41e9ca)" style="fill: #e41a1c; opacity: 0.8"/>
   </g>
   <g id="patch_5">
    <path d="M 310.875678 481.418305 
L 353.349629 481.418305 
L 353.349629 135.780736 
L 310.875678 135.780736 
z
" clip-path="url(#p305d41e9ca)" style="fill: #e41a1c; opacity: 0.8"/>
   </g>
   <g id="patch_6">
    <path d="M 432.229822 481.418305 
L 474.703772 481.418305 
L 474.703772 129.617732 
L 432.229822 129.617732 
z
" clip-path="url(#p305d41e9ca)" style="fill: #e41a1c; opacity: 0.8"/>
   </g>
   <g id="patch_7">
    <path d="M 110.641342 481.418305 
L 153.115292 481.418305 
L 153.115292 167.512567 
L 110.641342 167.512567 
z
" clip-path="url(#p305d41e9ca)" style="fill: #999999; opacity: 0.8"/>
   </g>
   <g id="patch_8">
    <path d="M 231.995485 481.418305 
L 274.469435 481.418305 
L 274.469435 179.914976 
L 231.995485 179.914976 
z
" clip-path="url(#p305d41e9ca)" style="fill: #999999; opacity: 0.8"/>
   </g>
   <g id="patch_9">
    <path d="M 353.349629 481.418305 
L 395.823579 481.418305 
L 395.823579 179.813108 
L 353.349629 179.813108 
z
" clip-path="url(#p305d41e9ca)" style="fill: #999999; opacity: 0.8"/>
   </g>
   <g id="patch_10">
    <path d="M 474.703772 481.418305 
L 517.177722 481.418305 
L 517.177722 166.06095 
L 474.703772 166.06095 
z
" clip-path="url(#p305d41e9ca)" style="fill: #999999; opacity: 0.8"/>
   </g>
   <g id="matplotlib.axis_1">
    <g id="xtick_1">
     <g id="line2d_1">
      <defs>
       <path id="m250bb5da57" d="M 0 0 
L 0 3.5 
" style="stroke: #000000; stroke-width: 0.8"/>
      </defs>
      <g>
       <use xlink:href="#m250bb5da57" x="110.641342" y="481.418305" style="stroke: #000000; stroke-width: 0.8"/>
      </g>
     </g>
     <g id="text_1">
      <!-- base_base -->
      <g transform="translate(71.725057 531.040271) rotate(-45) scale(0.1 -0.1)">
       <defs>
        <path id="DejaVuSans-62" d="M 3116 1747 
Q 3116 2381 2855 2742 
Q 2594 3103 2138 3103 
Q 1681 3103 1420 2742 
Q 1159 2381 1159 1747 
Q 1159 1113 1420 752 
Q 1681 391 2138 391 
Q 2594 391 2855 752 
Q 3116 1113 3116 1747 
z
M 1159 2969 
Q 1341 3281 1617 3432 
Q 1894 3584 2278 3584 
Q 2916 3584 3314 3078 
Q 3713 2572 3713 1747 
Q 3713 922 3314 415 
Q 2916 -91 2278 -91 
Q 1894 -91 1617 61 
Q 1341 213 1159 525 
L 1159 0 
L 581 0 
L 581 4863 
L 1159 4863 
L 1159 2969 
z
" transform="scale(0.015625)"/>
        <path id="DejaVuSans-61" d="M 2194 1759 
Q 1497 1759 1228 1600 
Q 959 1441 959 1056 
Q 959 750 1161 570 
Q 1363 391 1709 391 
Q 2188 391 2477 730 
Q 2766 1069 2766 1631 
L 2766 1759 
L 2194 1759 
z
M 3341 1997 
L 3341 0 
L 2766 0 
L 2766 531 
Q 2569 213 2275 61 
Q 1981 -91 1556 -91 
Q 1019 -91 701 211 
Q 384 513 384 1019 
Q 384 1609 779 1909 
Q 1175 2209 1959 2209 
L 2766 2209 
L 2766 2266 
Q 2766 2663 2505 2880 
Q 2244 3097 1772 3097 
Q 1472 3097 1187 3025 
Q 903 2953 641 2809 
L 641 3341 
Q 956 3463 1253 3523 
Q 1550 3584 1831 3584 
Q 2591 3584 2966 3190 
Q 3341 2797 3341 1997 
z
" transform="scale(0.015625)"/>
        <path id="DejaVuSans-73" d="M 2834 3397 
L 2834 2853 
Q 2591 2978 2328 3040 
Q 2066 3103 1784 3103 
Q 1356 3103 1142 2972 
Q 928 2841 928 2578 
Q 928 2378 1081 2264 
Q 1234 2150 1697 2047 
L 1894 2003 
Q 2506 1872 2764 1633 
Q 3022 1394 3022 966 
Q 3022 478 2636 193 
Q 2250 -91 1575 -91 
Q 1294 -91 989 -36 
Q 684 19 347 128 
L 347 722 
Q 666 556 975 473 
Q 1284 391 1588 391 
Q 1994 391 2212 530 
Q 2431 669 2431 922 
Q 2431 1156 2273 1281 
Q 2116 1406 1581 1522 
L 1381 1569 
Q 847 1681 609 1914 
Q 372 2147 372 2553 
Q 372 3047 722 3315 
Q 1072 3584 1716 3584 
Q 2034 3584 2315 3537 
Q 2597 3491 2834 3397 
z
" transform="scale(0.015625)"/>
        <path id="DejaVuSans-65" d="M 3597 1894 
L 3597 1613 
L 953 1613 
Q 991 1019 1311 708 
Q 1631 397 2203 397 
Q 2534 397 2845 478 
Q 3156 559 3463 722 
L 3463 178 
Q 3153 47 2828 -22 
Q 2503 -91 2169 -91 
Q 1331 -91 842 396 
Q 353 884 353 1716 
Q 353 2575 817 3079 
Q 1281 3584 2069 3584 
Q 2775 3584 3186 3129 
Q 3597 2675 3597 1894 
z
M 3022 2063 
Q 3016 2534 2758 2815 
Q 2500 3097 2075 3097 
Q 1594 3097 1305 2825 
Q 1016 2553 972 2059 
L 3022 2063 
z
" transform="scale(0.015625)"/>
        <path id="DejaVuSans-5f" d="M 3263 -1063 
L 3263 -1509 
L -63 -1509 
L -63 -1063 
L 3263 -1063 
z
" transform="scale(0.015625)"/>
       </defs>
       <use xlink:href="#DejaVuSans-62"/>
       <use xlink:href="#DejaVuSans-61" x="63.476562"/>
       <use xlink:href="#DejaVuSans-73" x="124.755859"/>
       <use xlink:href="#DejaVuSans-65" x="176.855469"/>
       <use xlink:href="#DejaVuSans-5f" x="238.378906"/>
       <use xlink:href="#DejaVuSans-62" x="288.378906"/>
       <use xlink:href="#DejaVuSans-61" x="351.855469"/>
       <use xlink:href="#DejaVuSans-73" x="413.134766"/>
       <use xlink:href="#DejaVuSans-65" x="465.234375"/>
      </g>
     </g>
    </g>
    <g id="xtick_2">
     <g id="line2d_2">
      <g>
       <use xlink:href="#m250bb5da57" x="231.995485" y="481.418305" style="stroke: #000000; stroke-width: 0.8"/>
      </g>
     </g>
     <g id="text_2">
      <!-- base_json-full -->
      <g transform="translate(182.029552 542.089919) rotate(-45) scale(0.1 -0.1)">
       <defs>
        <path id="DejaVuSans-6a" d="M 603 3500 
L 1178 3500 
L 1178 -63 
Q 1178 -731 923 -1031 
Q 669 -1331 103 -1331 
L -116 -1331 
L -116 -844 
L 38 -844 
Q 366 -844 484 -692 
Q 603 -541 603 -63 
L 603 3500 
z
M 603 4863 
L 1178 4863 
L 1178 4134 
L 603 4134 
L 603 4863 
z
" transform="scale(0.015625)"/>
        <path id="DejaVuSans-6f" d="M 1959 3097 
Q 1497 3097 1228 2736 
Q 959 2375 959 1747 
Q 959 1119 1226 758 
Q 1494 397 1959 397 
Q 2419 397 2687 759 
Q 2956 1122 2956 1747 
Q 2956 2369 2687 2733 
Q 2419 3097 1959 3097 
z
M 1959 3584 
Q 2709 3584 3137 3096 
Q 3566 2609 3566 1747 
Q 3566 888 3137 398 
Q 2709 -91 1959 -91 
Q 1206 -91 779 398 
Q 353 888 353 1747 
Q 353 2609 779 3096 
Q 1206 3584 1959 3584 
z
" transform="scale(0.015625)"/>
        <path id="DejaVuSans-6e" d="M 3513 2113 
L 3513 0 
L 2938 0 
L 2938 2094 
Q 2938 2591 2744 2837 
Q 2550 3084 2163 3084 
Q 1697 3084 1428 2787 
Q 1159 2491 1159 1978 
L 1159 0 
L 581 0 
L 581 3500 
L 1159 3500 
L 1159 2956 
Q 1366 3272 1645 3428 
Q 1925 3584 2291 3584 
Q 2894 3584 3203 3211 
Q 3513 2838 3513 2113 
z
" transform="scale(0.015625)"/>
        <path id="DejaVuSans-2d" d="M 313 2009 
L 1997 2009 
L 1997 1497 
L 313 1497 
L 313 2009 
z
" transform="scale(0.015625)"/>
        <path id="DejaVuSans-66" d="M 2375 4863 
L 2375 4384 
L 1825 4384 
Q 1516 4384 1395 4259 
Q 1275 4134 1275 3809 
L 1275 3500 
L 2222 3500 
L 2222 3053 
L 1275 3053 
L 1275 0 
L 697 0 
L 697 3053 
L 147 3053 
L 147 3500 
L 697 3500 
L 697 3744 
Q 697 4328 969 4595 
Q 1241 4863 1831 4863 
L 2375 4863 
z
" transform="scale(0.015625)"/>
        <path id="DejaVuSans-75" d="M 544 1381 
L 544 3500 
L 1119 3500 
L 1119 1403 
Q 1119 906 1312 657 
Q 1506 409 1894 409 
Q 2359 409 2629 706 
Q 2900 1003 2900 1516 
L 2900 3500 
L 3475 3500 
L 3475 0 
L 2900 0 
L 2900 538 
Q 2691 219 2414 64 
Q 2138 -91 1772 -91 
Q 1169 -91 856 284 
Q 544 659 544 1381 
z
M 1991 3584 
L 1991 3584 
z
" transform="scale(0.015625)"/>
        <path id="DejaVuSans-6c" d="M 603 4863 
L 1178 4863 
L 1178 0 
L 603 0 
L 603 4863 
z
" transform="scale(0.015625)"/>
       </defs>
       <use xlink:href="#DejaVuSans-62"/>
       <use xlink:href="#DejaVuSans-61" x="63.476562"/>
       <use xlink:href="#DejaVuSans-73" x="124.755859"/>
       <use xlink:href="#DejaVuSans-65" x="176.855469"/>
       <use xlink:href="#DejaVuSans-5f" x="238.378906"/>
       <use xlink:href="#DejaVuSans-6a" x="288.378906"/>
       <use xlink:href="#DejaVuSans-73" x="316.162109"/>
       <use xlink:href="#DejaVuSans-6f" x="368.261719"/>
       <use xlink:href="#DejaVuSans-6e" x="429.443359"/>
       <use xlink:href="#DejaVuSans-2d" x="492.822266"/>
       <use xlink:href="#DejaVuSans-66" x="528.90625"/>
       <use xlink:href="#DejaVuSans-75" x="564.111328"/>
       <use xlink:href="#DejaVuSans-6c" x="627.490234"/>
       <use xlink:href="#DejaVuSans-6c" x="655.273438"/>
      </g>
     </g>
    </g>
    <g id="xtick_3">
     <g id="line2d_3">
      <g>
       <use xlink:href="#m250bb5da57" x="353.349629" y="481.418305" style="stroke: #000000; stroke-width: 0.8"/>
      </g>
     </g>
     <g id="text_3">
      <!-- json_json-full -->
      <g transform="translate(305.784544 539.689071) rotate(-45) scale(0.1 -0.1)">
       <use xlink:href="#DejaVuSans-6a"/>
       <use xlink:href="#DejaVuSans-73" x="27.783203"/>
       <use xlink:href="#DejaVuSans-6f" x="79.882812"/>
       <use xlink:href="#DejaVuSans-6e" x="141.064453"/>
       <use xlink:href="#DejaVuSans-5f" x="204.443359"/>
       <use xlink:href="#DejaVuSans-6a" x="254.443359"/>
       <use xlink:href="#DejaVuSans-73" x="282.226562"/>
       <use xlink:href="#DejaVuSans-6f" x="334.326172"/>
       <use xlink:href="#DejaVuSans-6e" x="395.507812"/>
       <use xlink:href="#DejaVuSans-2d" x="458.886719"/>
       <use xlink:href="#DejaVuSans-66" x="494.970703"/>
       <use xlink:href="#DejaVuSans-75" x="530.175781"/>
       <use xlink:href="#DejaVuSans-6c" x="593.554688"/>
       <use xlink:href="#DejaVuSans-6c" x="621.337891"/>
      </g>
     </g>
    </g>
    <g id="xtick_4">
     <g id="line2d_4">
      <g>
       <use xlink:href="#m250bb5da57" x="474.703772" y="481.418305" style="stroke: #000000; stroke-width: 0.8"/>
      </g>
     </g>
     <g id="text_4">
      <!-- xml_base -->
      <g transform="translate(439.606969 527.220789) rotate(-45) scale(0.1 -0.1)">
       <defs>
        <path id="DejaVuSans-78" d="M 3513 3500 
L 2247 1797 
L 3578 0 
L 2900 0 
L 1881 1375 
L 863 0 
L 184 0 
L 1544 1831 
L 300 3500 
L 978 3500 
L 1906 2253 
L 2834 3500 
L 3513 3500 
z
" transform="scale(0.015625)"/>
        <path id="DejaVuSans-6d" d="M 3328 2828 
Q 3544 3216 3844 3400 
Q 4144 3584 4550 3584 
Q 5097 3584 5394 3201 
Q 5691 2819 5691 2113 
L 5691 0 
L 5113 0 
L 5113 2094 
Q 5113 2597 4934 2840 
Q 4756 3084 4391 3084 
Q 3944 3084 3684 2787 
Q 3425 2491 3425 1978 
L 3425 0 
L 2847 0 
L 2847 2094 
Q 2847 2600 2669 2842 
Q 2491 3084 2119 3084 
Q 1678 3084 1418 2786 
Q 1159 2488 1159 1978 
L 1159 0 
L 581 0 
L 581 3500 
L 1159 3500 
L 1159 2956 
Q 1356 3278 1631 3431 
Q 1906 3584 2284 3584 
Q 2666 3584 2933 3390 
Q 3200 3197 3328 2828 
z
" transform="scale(0.015625)"/>
       </defs>
       <use xlink:href="#DejaVuSans-78"/>
       <use xlink:href="#DejaVuSans-6d" x="59.179688"/>
       <use xlink:href="#DejaVuSans-6c" x="156.591797"/>
       <use xlink:href="#DejaVuSans-5f" x="184.375"/>
       <use xlink:href="#DejaVuSans-62" x="234.375"/>
       <use xlink:href="#DejaVuSans-61" x="297.851562"/>
       <use xlink:href="#DejaVuSans-73" x="359.130859"/>
       <use xlink:href="#DejaVuSans-65" x="411.230469"/>
      </g>
     </g>
    </g>
    <g id="text_5">
     <!-- Input Format _ Output Format -->
     <g transform="translate(203.387869 556.663394) scale(0.12 -0.12)">
      <defs>
       <path id="DejaVuSans-49" d="M 628 4666 
L 1259 4666 
L 1259 0 
L 628 0 
L 628 4666 
z
" transform="scale(0.015625)"/>
       <path id="DejaVuSans-70" d="M 1159 525 
L 1159 -1331 
L 581 -1331 
L 581 3500 
L 1159 3500 
L 1159 2969 
Q 1341 3281 1617 3432 
Q 1894 3584 2278 3584 
Q 2916 3584 3314 3078 
Q 3713 2572 3713 1747 
Q 3713 922 3314 415 
Q 2916 -91 2278 -91 
Q 1894 -91 1617 61 
Q 1341 213 1159 525 
z
M 3116 1747 
Q 3116 2381 2855 2742 
Q 2594 3103 2138 3103 
Q 1681 3103 1420 2742 
Q 1159 2381 1159 1747 
Q 1159 1113 1420 752 
Q 1681 391 2138 391 
Q 2594 391 2855 752 
Q 3116 1113 3116 1747 
z
" transform="scale(0.015625)"/>
       <path id="DejaVuSans-74" d="M 1172 4494 
L 1172 3500 
L 2356 3500 
L 2356 3053 
L 1172 3053 
L 1172 1153 
Q 1172 725 1289 603 
Q 1406 481 1766 481 
L 2356 481 
L 2356 0 
L 1766 0 
Q 1100 0 847 248 
Q 594 497 594 1153 
L 594 3053 
L 172 3053 
L 172 3500 
L 594 3500 
L 594 4494 
L 1172 4494 
z
" transform="scale(0.015625)"/>
       <path id="DejaVuSans-20" transform="scale(0.015625)"/>
       <path id="DejaVuSans-46" d="M 628 4666 
L 3309 4666 
L 3309 4134 
L 1259 4134 
L 1259 2759 
L 3109 2759 
L 3109 2228 
L 1259 2228 
L 1259 0 
L 628 0 
L 628 4666 
z
" transform="scale(0.015625)"/>
       <path id="DejaVuSans-72" d="M 2631 2963 
Q 2534 3019 2420 3045 
Q 2306 3072 2169 3072 
Q 1681 3072 1420 2755 
Q 1159 2438 1159 1844 
L 1159 0 
L 581 0 
L 581 3500 
L 1159 3500 
L 1159 2956 
Q 1341 3275 1631 3429 
Q 1922 3584 2338 3584 
Q 2397 3584 2469 3576 
Q 2541 3569 2628 3553 
L 2631 2963 
z
" transform="scale(0.015625)"/>
       <path id="DejaVuSans-4f" d="M 2522 4238 
Q 1834 4238 1429 3725 
Q 1025 3213 1025 2328 
Q 1025 1447 1429 934 
Q 1834 422 2522 422 
Q 3209 422 3611 934 
Q 4013 1447 4013 2328 
Q 4013 3213 3611 3725 
Q 3209 4238 2522 4238 
z
M 2522 4750 
Q 3503 4750 4090 4092 
Q 4678 3434 4678 2328 
Q 4678 1225 4090 567 
Q 3503 -91 2522 -91 
Q 1538 -91 948 565 
Q 359 1222 359 2328 
Q 359 3434 948 4092 
Q 1538 4750 2522 4750 
z
" transform="scale(0.015625)"/>
      </defs>
      <use xlink:href="#DejaVuSans-49"/>
      <use xlink:href="#DejaVuSans-6e" x="29.492188"/>
      <use xlink:href="#DejaVuSans-70" x="92.871094"/>
      <use xlink:href="#DejaVuSans-75" x="156.347656"/>
      <use xlink:href="#DejaVuSans-74" x="219.726562"/>
      <use xlink:href="#DejaVuSans-20" x="258.935547"/>
      <use xlink:href="#DejaVuSans-46" x="290.722656"/>
      <use xlink:href="#DejaVuSans-6f" x="344.617188"/>
      <use xlink:href="#DejaVuSans-72" x="405.798828"/>
      <use xlink:href="#DejaVuSans-6d" x="445.162109"/>
      <use xlink:href="#DejaVuSans-61" x="542.574219"/>
      <use xlink:href="#DejaVuSans-74" x="603.853516"/>
      <use xlink:href="#DejaVuSans-20" x="643.0625"/>
      <use xlink:href="#DejaVuSans-5f" x="674.849609"/>
      <use xlink:href="#DejaVuSans-20" x="724.849609"/>
      <use xlink:href="#DejaVuSans-4f" x="756.636719"/>
      <use xlink:href="#DejaVuSans-75" x="835.347656"/>
      <use xlink:href="#DejaVuSans-74" x="898.726562"/>
      <use xlink:href="#DejaVuSans-70" x="937.935547"/>
      <use xlink:href="#DejaVuSans-75" x="1001.412109"/>
      <use xlink:href="#DejaVuSans-74" x="1064.791016"/>
      <use xlink:href="#DejaVuSans-20" x="1104"/>
      <use xlink:href="#DejaVuSans-46" x="1135.787109"/>
      <use xlink:href="#DejaVuSans-6f" x="1189.681641"/>
      <use xlink:href="#DejaVuSans-72" x="1250.863281"/>
      <use xlink:href="#DejaVuSans-6d" x="1290.226562"/>
      <use xlink:href="#DejaVuSans-61" x="1387.638672"/>
      <use xlink:href="#DejaVuSans-74" x="1448.917969"/>
     </g>
    </g>
   </g>
   <g id="matplotlib.axis_2">
    <g id="ytick_1">
     <g id="line2d_5">
      <path d="M 45.716875 481.418305 
L 539.628239 481.418305 
" clip-path="url(#p305d41e9ca)" style="fill: none; stroke: #b0b0b0; stroke-opacity: 0.3; stroke-width: 0.8; stroke-linecap: square"/>
     </g>
     <g id="line2d_6">
      <defs>
       <path id="m833af5d691" d="M 0 0 
L -3.5 0 
" style="stroke: #000000; stroke-width: 0.8"/>
      </defs>
      <g>
       <use xlink:href="#m833af5d691" x="45.716875" y="481.418305" style="stroke: #000000; stroke-width: 0.8"/>
      </g>
     </g>
     <g id="text_6">
      <!-- 0.0 -->
      <g transform="translate(22.81375 485.217524) scale(0.1 -0.1)">
       <defs>
        <path id="DejaVuSans-30" d="M 2034 4250 
Q 1547 4250 1301 3770 
Q 1056 3291 1056 2328 
Q 1056 1369 1301 889 
Q 1547 409 2034 409 
Q 2525 409 2770 889 
Q 3016 1369 3016 2328 
Q 3016 3291 2770 3770 
Q 2525 4250 2034 4250 
z
M 2034 4750 
Q 2819 4750 3233 4129 
Q 3647 3509 3647 2328 
Q 3647 1150 3233 529 
Q 2819 -91 2034 -91 
Q 1250 -91 836 529 
Q 422 1150 422 2328 
Q 422 3509 836 4129 
Q 1250 4750 2034 4750 
z
" transform="scale(0.015625)"/>
        <path id="DejaVuSans-2e" d="M 684 794 
L 1344 794 
L 1344 0 
L 684 0 
L 684 794 
z
" transform="scale(0.015625)"/>
       </defs>
       <use xlink:href="#DejaVuSans-30"/>
       <use xlink:href="#DejaVuSans-2e" x="63.623047"/>
       <use xlink:href="#DejaVuSans-30" x="95.410156"/>
      </g>
     </g>
    </g>
    <g id="ytick_2">
     <g id="line2d_7">
      <path d="M 45.716875 394.830644 
L 539.628239 394.830644 
" clip-path="url(#p305d41e9ca)" style="fill: none; stroke: #b0b0b0; stroke-opacity: 0.3; stroke-width: 0.8; stroke-linecap: square"/>
     </g>
     <g id="line2d_8">
      <g>
       <use xlink:href="#m833af5d691" x="45.716875" y="394.830644" style="stroke: #000000; stroke-width: 0.8"/>
      </g>
     </g>
     <g id="text_7">
      <!-- 0.2 -->
      <g transform="translate(22.81375 398.629863) scale(0.1 -0.1)">
       <defs>
        <path id="DejaVuSans-32" d="M 1228 531 
L 3431 531 
L 3431 0 
L 469 0 
L 469 531 
Q 828 903 1448 1529 
Q 2069 2156 2228 2338 
Q 2531 2678 2651 2914 
Q 2772 3150 2772 3378 
Q 2772 3750 2511 3984 
Q 2250 4219 1831 4219 
Q 1534 4219 1204 4116 
Q 875 4013 500 3803 
L 500 4441 
Q 881 4594 1212 4672 
Q 1544 4750 1819 4750 
Q 2544 4750 2975 4387 
Q 3406 4025 3406 3419 
Q 3406 3131 3298 2873 
Q 3191 2616 2906 2266 
Q 2828 2175 2409 1742 
Q 1991 1309 1228 531 
z
" transform="scale(0.015625)"/>
       </defs>
       <use xlink:href="#DejaVuSans-30"/>
       <use xlink:href="#DejaVuSans-2e" x="63.623047"/>
       <use xlink:href="#DejaVuSans-32" x="95.410156"/>
      </g>
     </g>
    </g>
    <g id="ytick_3">
     <g id="line2d_9">
      <path d="M 45.716875 308.242983 
L 539.628239 308.242983 
" clip-path="url(#p305d41e9ca)" style="fill: none; stroke: #b0b0b0; stroke-opacity: 0.3; stroke-width: 0.8; stroke-linecap: square"/>
     </g>
     <g id="line2d_10">
      <g>
       <use xlink:href="#m833af5d691" x="45.716875" y="308.242983" style="stroke: #000000; stroke-width: 0.8"/>
      </g>
     </g>
     <g id="text_8">
      <!-- 0.4 -->
      <g transform="translate(22.81375 312.042202) scale(0.1 -0.1)">
       <defs>
        <path id="DejaVuSans-34" d="M 2419 4116 
L 825 1625 
L 2419 1625 
L 2419 4116 
z
M 2253 4666 
L 3047 4666 
L 3047 1625 
L 3713 1625 
L 3713 1100 
L 3047 1100 
L 3047 0 
L 2419 0 
L 2419 1100 
L 313 1100 
L 313 1709 
L 2253 4666 
z
" transform="scale(0.015625)"/>
       </defs>
       <use xlink:href="#DejaVuSans-30"/>
       <use xlink:href="#DejaVuSans-2e" x="63.623047"/>
       <use xlink:href="#DejaVuSans-34" x="95.410156"/>
      </g>
     </g>
    </g>
    <g id="ytick_4">
     <g id="line2d_11">
      <path d="M 45.716875 221.655322 
L 539.628239 221.655322 
" clip-path="url(#p305d41e9ca)" style="fill: none; stroke: #b0b0b0; stroke-opacity: 0.3; stroke-width: 0.8; stroke-linecap: square"/>
     </g>
     <g id="line2d_12">
      <g>
       <use xlink:href="#m833af5d691" x="45.716875" y="221.655322" style="stroke: #000000; stroke-width: 0.8"/>
      </g>
     </g>
     <g id="text_9">
      <!-- 0.6 -->
      <g transform="translate(22.81375 225.454541) scale(0.1 -0.1)">
       <defs>
        <path id="DejaVuSans-36" d="M 2113 2584 
Q 1688 2584 1439 2293 
Q 1191 2003 1191 1497 
Q 1191 994 1439 701 
Q 1688 409 2113 409 
Q 2538 409 2786 701 
Q 3034 994 3034 1497 
Q 3034 2003 2786 2293 
Q 2538 2584 2113 2584 
z
M 3366 4563 
L 3366 3988 
Q 3128 4100 2886 4159 
Q 2644 4219 2406 4219 
Q 1781 4219 1451 3797 
Q 1122 3375 1075 2522 
Q 1259 2794 1537 2939 
Q 1816 3084 2150 3084 
Q 2853 3084 3261 2657 
Q 3669 2231 3669 1497 
Q 3669 778 3244 343 
Q 2819 -91 2113 -91 
Q 1303 -91 875 529 
Q 447 1150 447 2328 
Q 447 3434 972 4092 
Q 1497 4750 2381 4750 
Q 2619 4750 2861 4703 
Q 3103 4656 3366 4563 
z
" transform="scale(0.015625)"/>
       </defs>
       <use xlink:href="#DejaVuSans-30"/>
       <use xlink:href="#DejaVuSans-2e" x="63.623047"/>
       <use xlink:href="#DejaVuSans-36" x="95.410156"/>
      </g>
     </g>
    </g>
    <g id="ytick_5">
     <g id="line2d_13">
      <path d="M 45.716875 135.067661 
L 539.628239 135.067661 
" clip-path="url(#p305d41e9ca)" style="fill: none; stroke: #b0b0b0; stroke-opacity: 0.3; stroke-width: 0.8; stroke-linecap: square"/>
     </g>
     <g id="line2d_14">
      <g>
       <use xlink:href="#m833af5d691" x="45.716875" y="135.067661" style="stroke: #000000; stroke-width: 0.8"/>
      </g>
     </g>
     <g id="text_10">
      <!-- 0.8 -->
      <g transform="translate(22.81375 138.86688) scale(0.1 -0.1)">
       <defs>
        <path id="DejaVuSans-38" d="M 2034 2216 
Q 1584 2216 1326 1975 
Q 1069 1734 1069 1313 
Q 1069 891 1326 650 
Q 1584 409 2034 409 
Q 2484 409 2743 651 
Q 3003 894 3003 1313 
Q 3003 1734 2745 1975 
Q 2488 2216 2034 2216 
z
M 1403 2484 
Q 997 2584 770 2862 
Q 544 3141 544 3541 
Q 544 4100 942 4425 
Q 1341 4750 2034 4750 
Q 2731 4750 3128 4425 
Q 3525 4100 3525 3541 
Q 3525 3141 3298 2862 
Q 3072 2584 2669 2484 
Q 3125 2378 3379 2068 
Q 3634 1759 3634 1313 
Q 3634 634 3220 271 
Q 2806 -91 2034 -91 
Q 1263 -91 848 271 
Q 434 634 434 1313 
Q 434 1759 690 2068 
Q 947 2378 1403 2484 
z
M 1172 3481 
Q 1172 3119 1398 2916 
Q 1625 2713 2034 2713 
Q 2441 2713 2670 2916 
Q 2900 3119 2900 3481 
Q 2900 3844 2670 4047 
Q 2441 4250 2034 4250 
Q 1625 4250 1398 4047 
Q 1172 3844 1172 3481 
z
" transform="scale(0.015625)"/>
       </defs>
       <use xlink:href="#DejaVuSans-30"/>
       <use xlink:href="#DejaVuSans-2e" x="63.623047"/>
       <use xlink:href="#DejaVuSans-38" x="95.410156"/>
      </g>
     </g>
    </g>
    <g id="ytick_6">
     <g id="line2d_15">
      <path d="M 45.716875 48.48 
L 539.628239 48.48 
" clip-path="url(#p305d41e9ca)" style="fill: none; stroke: #b0b0b0; stroke-opacity: 0.3; stroke-width: 0.8; stroke-linecap: square"/>
     </g>
     <g id="line2d_16">
      <g>
       <use xlink:href="#m833af5d691" x="45.716875" y="48.48" style="stroke: #000000; stroke-width: 0.8"/>
      </g>
     </g>
     <g id="text_11">
      <!-- 1.0 -->
      <g transform="translate(22.81375 52.279219) scale(0.1 -0.1)">
       <defs>
        <path id="DejaVuSans-31" d="M 794 531 
L 1825 531 
L 1825 4091 
L 703 3866 
L 703 4441 
L 1819 4666 
L 2450 4666 
L 2450 531 
L 3481 531 
L 3481 0 
L 794 0 
L 794 531 
z
" transform="scale(0.015625)"/>
       </defs>
       <use xlink:href="#DejaVuSans-31"/>
       <use xlink:href="#DejaVuSans-2e" x="63.623047"/>
       <use xlink:href="#DejaVuSans-30" x="95.410156"/>
      </g>
     </g>
    </g>
    <g id="text_12">
     <!-- Accuracy -->
     <g transform="translate(16.318125 292.342902) rotate(-90) scale(0.12 -0.12)">
      <defs>
       <path id="DejaVuSans-41" d="M 2188 4044 
L 1331 1722 
L 3047 1722 
L 2188 4044 
z
M 1831 4666 
L 2547 4666 
L 4325 0 
L 3669 0 
L 3244 1197 
L 1141 1197 
L 716 0 
L 50 0 
L 1831 4666 
z
" transform="scale(0.015625)"/>
       <path id="DejaVuSans-63" d="M 3122 3366 
L 3122 2828 
Q 2878 2963 2633 3030 
Q 2388 3097 2138 3097 
Q 1578 3097 1268 2742 
Q 959 2388 959 1747 
Q 959 1106 1268 751 
Q 1578 397 2138 397 
Q 2388 397 2633 464 
Q 2878 531 3122 666 
L 3122 134 
Q 2881 22 2623 -34 
Q 2366 -91 2075 -91 
Q 1284 -91 818 406 
Q 353 903 353 1747 
Q 353 2603 823 3093 
Q 1294 3584 2113 3584 
Q 2378 3584 2631 3529 
Q 2884 3475 3122 3366 
z
" transform="scale(0.015625)"/>
       <path id="DejaVuSans-79" d="M 2059 -325 
Q 1816 -950 1584 -1140 
Q 1353 -1331 966 -1331 
L 506 -1331 
L 506 -850 
L 844 -850 
Q 1081 -850 1212 -737 
Q 1344 -625 1503 -206 
L 1606 56 
L 191 3500 
L 800 3500 
L 1894 763 
L 2988 3500 
L 3597 3500 
L 2059 -325 
z
" transform="scale(0.015625)"/>
      </defs>
      <use xlink:href="#DejaVuSans-41"/>
      <use xlink:href="#DejaVuSans-63" x="66.658203"/>
      <use xlink:href="#DejaVuSans-63" x="121.638672"/>
      <use xlink:href="#DejaVuSans-75" x="176.619141"/>
      <use xlink:href="#DejaVuSans-72" x="239.998047"/>
      <use xlink:href="#DejaVuSans-61" x="281.111328"/>
      <use xlink:href="#DejaVuSans-63" x="342.390625"/>
      <use xlink:href="#DejaVuSans-79" x="397.371094"/>
     </g>
    </g>
   </g>
   <g id="line2d_17">
    <path d="M 45.716875 154.342966 
L 539.628239 154.342966 
" clip-path="url(#p305d41e9ca)" style="fill: none; stroke-dasharray: 5.55,2.4; stroke-dashoffset: 0; stroke: #ff0000; stroke-opacity: 0.7; stroke-width: 1.5"/>
   </g>
   <g id="patch_11">
    <path d="M 45.716875 481.418305 
L 45.716875 48.48 
" style="fill: none; stroke: #000000; stroke-width: 0.8; stroke-linejoin: miter; stroke-linecap: square"/>
   </g>
   <g id="patch_12">
    <path d="M 539.628239 481.418305 
L 539.628239 48.48 
" style="fill: none; stroke: #000000; stroke-width: 0.8; stroke-linejoin: miter; stroke-linecap: square"/>
   </g>
   <g id="patch_13">
    <path d="M 45.716875 481.418305 
L 539.628239 481.418305 
" style="fill: none; stroke: #000000; stroke-width: 0.8; stroke-linejoin: miter; stroke-linecap: square"/>
   </g>
   <g id="patch_14">
    <path d="M 45.716875 48.48 
L 539.628239 48.48 
" style="fill: none; stroke: #000000; stroke-width: 0.8; stroke-linejoin: miter; stroke-linecap: square"/>
   </g>
   <g id="text_13">
    <!-- n=17000 -->
    <g transform="translate(70.792492 125.076215) scale(0.08 -0.08)">
     <defs>
      <path id="DejaVuSans-3d" d="M 678 2906 
L 4684 2906 
L 4684 2381 
L 678 2381 
L 678 2906 
z
M 678 1631 
L 4684 1631 
L 4684 1100 
L 678 1100 
L 678 1631 
z
" transform="scale(0.015625)"/>
      <path id="DejaVuSans-37" d="M 525 4666 
L 3525 4666 
L 3525 4397 
L 1831 0 
L 1172 0 
L 2766 4134 
L 525 4134 
L 525 4666 
z
" transform="scale(0.015625)"/>
     </defs>
     <use xlink:href="#DejaVuSans-6e"/>
     <use xlink:href="#DejaVuSans-3d" x="63.378906"/>
     <use xlink:href="#DejaVuSans-31" x="147.167969"/>
     <use xlink:href="#DejaVuSans-37" x="210.791016"/>
     <use xlink:href="#DejaVuSans-30" x="274.414062"/>
     <use xlink:href="#DejaVuSans-30" x="338.037109"/>
     <use xlink:href="#DejaVuSans-30" x="401.660156"/>
    </g>
   </g>
   <g id="text_14">
    <!-- n=17000 -->
    <g transform="translate(192.146635 138.981175) scale(0.08 -0.08)">
     <use xlink:href="#DejaVuSans-6e"/>
     <use xlink:href="#DejaVuSans-3d" x="63.378906"/>
     <use xlink:href="#DejaVuSans-31" x="147.167969"/>
     <use xlink:href="#DejaVuSans-37" x="210.791016"/>
     <use xlink:href="#DejaVuSans-30" x="274.414062"/>
     <use xlink:href="#DejaVuSans-30" x="338.037109"/>
     <use xlink:href="#DejaVuSans-30" x="401.660156"/>
    </g>
   </g>
   <g id="text_15">
    <!-- n=17000 -->
    <g transform="translate(313.500778 129.787603) scale(0.08 -0.08)">
     <use xlink:href="#DejaVuSans-6e"/>
     <use xlink:href="#DejaVuSans-3d" x="63.378906"/>
     <use xlink:href="#DejaVuSans-31" x="147.167969"/>
     <use xlink:href="#DejaVuSans-37" x="210.791016"/>
     <use xlink:href="#DejaVuSans-30" x="274.414062"/>
     <use xlink:href="#DejaVuSans-30" x="338.037109"/>
     <use xlink:href="#DejaVuSans-30" x="401.660156"/>
    </g>
   </g>
   <g id="text_16">
    <!-- n=17000 -->
    <g transform="translate(434.854922 123.624599) scale(0.08 -0.08)">
     <use xlink:href="#DejaVuSans-6e"/>
     <use xlink:href="#DejaVuSans-3d" x="63.378906"/>
     <use xlink:href="#DejaVuSans-31" x="147.167969"/>
     <use xlink:href="#DejaVuSans-37" x="210.791016"/>
     <use xlink:href="#DejaVuSans-30" x="274.414062"/>
     <use xlink:href="#DejaVuSans-30" x="338.037109"/>
     <use xlink:href="#DejaVuSans-30" x="401.660156"/>
    </g>
   </g>
   <g id="text_17">
    <!-- n=17000 -->
    <g transform="translate(113.266442 161.519434) scale(0.08 -0.08)">
     <use xlink:href="#DejaVuSans-6e"/>
     <use xlink:href="#DejaVuSans-3d" x="63.378906"/>
     <use xlink:href="#DejaVuSans-31" x="147.167969"/>
     <use xlink:href="#DejaVuSans-37" x="210.791016"/>
     <use xlink:href="#DejaVuSans-30" x="274.414062"/>
     <use xlink:href="#DejaVuSans-30" x="338.037109"/>
     <use xlink:href="#DejaVuSans-30" x="401.660156"/>
    </g>
   </g>
   <g id="text_18">
    <!-- n=17000 -->
    <g transform="translate(234.620585 173.921843) scale(0.08 -0.08)">
     <use xlink:href="#DejaVuSans-6e"/>
     <use xlink:href="#DejaVuSans-3d" x="63.378906"/>
     <use xlink:href="#DejaVuSans-31" x="147.167969"/>
     <use xlink:href="#DejaVuSans-37" x="210.791016"/>
     <use xlink:href="#DejaVuSans-30" x="274.414062"/>
     <use xlink:href="#DejaVuSans-30" x="338.037109"/>
     <use xlink:href="#DejaVuSans-30" x="401.660156"/>
    </g>
   </g>
   <g id="text_19">
    <!-- n=17000 -->
    <g transform="translate(355.974729 173.819975) scale(0.08 -0.08)">
     <use xlink:href="#DejaVuSans-6e"/>
     <use xlink:href="#DejaVuSans-3d" x="63.378906"/>
     <use xlink:href="#DejaVuSans-31" x="147.167969"/>
     <use xlink:href="#DejaVuSans-37" x="210.791016"/>
     <use xlink:href="#DejaVuSans-30" x="274.414062"/>
     <use xlink:href="#DejaVuSans-30" x="338.037109"/>
     <use xlink:href="#DejaVuSans-30" x="401.660156"/>
    </g>
   </g>
   <g id="text_20">
    <!-- n=17000 -->
    <g transform="translate(477.328872 160.067817) scale(0.08 -0.08)">
     <use xlink:href="#DejaVuSans-6e"/>
     <use xlink:href="#DejaVuSans-3d" x="63.378906"/>
     <use xlink:href="#DejaVuSans-31" x="147.167969"/>
     <use xlink:href="#DejaVuSans-37" x="210.791016"/>
     <use xlink:href="#DejaVuSans-30" x="274.414062"/>
     <use xlink:href="#DejaVuSans-30" x="338.037109"/>
     <use xlink:href="#DejaVuSans-30" x="401.660156"/>
    </g>
   </g>
   <g id="text_21">
    <!-- Gemini &amp; Mistral Models -->
    <g transform="translate(196.134901 42.48) scale(0.14 -0.14)">
     <defs>
      <path id="DejaVuSans-Bold-47" d="M 4781 347 
Q 4331 128 3847 18 
Q 3363 -91 2847 -91 
Q 1681 -91 1000 561 
Q 319 1213 319 2328 
Q 319 3456 1012 4103 
Q 1706 4750 2913 4750 
Q 3378 4750 3804 4662 
Q 4231 4575 4609 4403 
L 4609 3438 
Q 4219 3659 3833 3768 
Q 3447 3878 3059 3878 
Q 2341 3878 1952 3476 
Q 1563 3075 1563 2328 
Q 1563 1588 1938 1184 
Q 2313 781 3003 781 
Q 3191 781 3352 804 
Q 3513 828 3641 878 
L 3641 1784 
L 2906 1784 
L 2906 2591 
L 4781 2591 
L 4781 347 
z
" transform="scale(0.015625)"/>
      <path id="DejaVuSans-Bold-65" d="M 4031 1759 
L 4031 1441 
L 1416 1441 
Q 1456 1047 1700 850 
Q 1944 653 2381 653 
Q 2734 653 3104 758 
Q 3475 863 3866 1075 
L 3866 213 
Q 3469 63 3072 -14 
Q 2675 -91 2278 -91 
Q 1328 -91 801 392 
Q 275 875 275 1747 
Q 275 2603 792 3093 
Q 1309 3584 2216 3584 
Q 3041 3584 3536 3087 
Q 4031 2591 4031 1759 
z
M 2881 2131 
Q 2881 2450 2695 2645 
Q 2509 2841 2209 2841 
Q 1884 2841 1681 2658 
Q 1478 2475 1428 2131 
L 2881 2131 
z
" transform="scale(0.015625)"/>
      <path id="DejaVuSans-Bold-6d" d="M 3781 2919 
Q 3994 3244 4286 3414 
Q 4578 3584 4928 3584 
Q 5531 3584 5847 3212 
Q 6163 2841 6163 2131 
L 6163 0 
L 5038 0 
L 5038 1825 
Q 5041 1866 5042 1909 
Q 5044 1953 5044 2034 
Q 5044 2406 4934 2573 
Q 4825 2741 4581 2741 
Q 4263 2741 4089 2478 
Q 3916 2216 3909 1719 
L 3909 0 
L 2784 0 
L 2784 1825 
Q 2784 2406 2684 2573 
Q 2584 2741 2328 2741 
Q 2006 2741 1831 2477 
Q 1656 2213 1656 1722 
L 1656 0 
L 531 0 
L 531 3500 
L 1656 3500 
L 1656 2988 
Q 1863 3284 2130 3434 
Q 2397 3584 2719 3584 
Q 3081 3584 3359 3409 
Q 3638 3234 3781 2919 
z
" transform="scale(0.015625)"/>
      <path id="DejaVuSans-Bold-69" d="M 538 3500 
L 1656 3500 
L 1656 0 
L 538 0 
L 538 3500 
z
M 538 4863 
L 1656 4863 
L 1656 3950 
L 538 3950 
L 538 4863 
z
" transform="scale(0.015625)"/>
      <path id="DejaVuSans-Bold-6e" d="M 4056 2131 
L 4056 0 
L 2931 0 
L 2931 347 
L 2931 1631 
Q 2931 2084 2911 2256 
Q 2891 2428 2841 2509 
Q 2775 2619 2662 2680 
Q 2550 2741 2406 2741 
Q 2056 2741 1856 2470 
Q 1656 2200 1656 1722 
L 1656 0 
L 538 0 
L 538 3500 
L 1656 3500 
L 1656 2988 
Q 1909 3294 2193 3439 
Q 2478 3584 2822 3584 
Q 3428 3584 3742 3212 
Q 4056 2841 4056 2131 
z
" transform="scale(0.015625)"/>
      <path id="DejaVuSans-Bold-20" transform="scale(0.015625)"/>
      <path id="DejaVuSans-Bold-26" d="M 2497 3097 
L 3775 1691 
Q 3941 1909 4027 2181 
Q 4113 2453 4128 2797 
L 5100 2797 
Q 5053 2228 4879 1784 
Q 4706 1341 4397 1006 
L 5313 0 
L 3988 0 
L 3681 341 
Q 3353 122 2990 15 
Q 2628 -91 2222 -91 
Q 1400 -91 892 342 
Q 384 775 384 1459 
Q 384 1916 607 2267 
Q 831 2619 1338 2950 
Q 1206 3116 1143 3281 
Q 1081 3447 1081 3628 
Q 1081 4138 1478 4444 
Q 1875 4750 2534 4750 
Q 2819 4750 3126 4704 
Q 3434 4659 3769 4569 
L 3769 3700 
Q 3475 3850 3212 3922 
Q 2950 3994 2700 3994 
Q 2459 3994 2326 3901 
Q 2194 3809 2194 3641 
Q 2194 3534 2270 3398 
Q 2347 3263 2497 3097 
z
M 1875 2322 
Q 1672 2175 1569 1989 
Q 1466 1803 1466 1581 
Q 1466 1222 1731 969 
Q 1997 716 2369 716 
Q 2578 716 2759 780 
Q 2941 844 3097 972 
L 1875 2322 
z
" transform="scale(0.015625)"/>
      <path id="DejaVuSans-Bold-4d" d="M 588 4666 
L 2119 4666 
L 3181 2169 
L 4250 4666 
L 5778 4666 
L 5778 0 
L 4641 0 
L 4641 3413 
L 3566 897 
L 2803 897 
L 1728 3413 
L 1728 0 
L 588 0 
L 588 4666 
z
" transform="scale(0.015625)"/>
      <path id="DejaVuSans-Bold-73" d="M 3272 3391 
L 3272 2541 
Q 2913 2691 2578 2766 
Q 2244 2841 1947 2841 
Q 1628 2841 1473 2761 
Q 1319 2681 1319 2516 
Q 1319 2381 1436 2309 
Q 1553 2238 1856 2203 
L 2053 2175 
Q 2913 2066 3209 1816 
Q 3506 1566 3506 1031 
Q 3506 472 3093 190 
Q 2681 -91 1863 -91 
Q 1516 -91 1145 -36 
Q 775 19 384 128 
L 384 978 
Q 719 816 1070 734 
Q 1422 653 1784 653 
Q 2113 653 2278 743 
Q 2444 834 2444 1013 
Q 2444 1163 2330 1236 
Q 2216 1309 1875 1350 
L 1678 1375 
Q 931 1469 631 1722 
Q 331 1975 331 2491 
Q 331 3047 712 3315 
Q 1094 3584 1881 3584 
Q 2191 3584 2531 3537 
Q 2872 3491 3272 3391 
z
" transform="scale(0.015625)"/>
      <path id="DejaVuSans-Bold-74" d="M 1759 4494 
L 1759 3500 
L 2913 3500 
L 2913 2700 
L 1759 2700 
L 1759 1216 
Q 1759 972 1856 886 
Q 1953 800 2241 800 
L 2816 800 
L 2816 0 
L 1856 0 
Q 1194 0 917 276 
Q 641 553 641 1216 
L 641 2700 
L 84 2700 
L 84 3500 
L 641 3500 
L 641 4494 
L 1759 4494 
z
" transform="scale(0.015625)"/>
      <path id="DejaVuSans-Bold-72" d="M 3138 2547 
Q 2991 2616 2845 2648 
Q 2700 2681 2553 2681 
Q 2122 2681 1889 2404 
Q 1656 2128 1656 1613 
L 1656 0 
L 538 0 
L 538 3500 
L 1656 3500 
L 1656 2925 
Q 1872 3269 2151 3426 
Q 2431 3584 2822 3584 
Q 2878 3584 2943 3579 
Q 3009 3575 3134 3559 
L 3138 2547 
z
" transform="scale(0.015625)"/>
      <path id="DejaVuSans-Bold-61" d="M 2106 1575 
Q 1756 1575 1579 1456 
Q 1403 1338 1403 1106 
Q 1403 894 1545 773 
Q 1688 653 1941 653 
Q 2256 653 2472 879 
Q 2688 1106 2688 1447 
L 2688 1575 
L 2106 1575 
z
M 3816 1997 
L 3816 0 
L 2688 0 
L 2688 519 
Q 2463 200 2181 54 
Q 1900 -91 1497 -91 
Q 953 -91 614 226 
Q 275 544 275 1050 
Q 275 1666 698 1953 
Q 1122 2241 2028 2241 
L 2688 2241 
L 2688 2328 
Q 2688 2594 2478 2717 
Q 2269 2841 1825 2841 
Q 1466 2841 1156 2769 
Q 847 2697 581 2553 
L 581 3406 
Q 941 3494 1303 3539 
Q 1666 3584 2028 3584 
Q 2975 3584 3395 3211 
Q 3816 2838 3816 1997 
z
" transform="scale(0.015625)"/>
      <path id="DejaVuSans-Bold-6c" d="M 538 4863 
L 1656 4863 
L 1656 0 
L 538 0 
L 538 4863 
z
" transform="scale(0.015625)"/>
      <path id="DejaVuSans-Bold-6f" d="M 2203 2784 
Q 1831 2784 1636 2517 
Q 1441 2250 1441 1747 
Q 1441 1244 1636 976 
Q 1831 709 2203 709 
Q 2569 709 2762 976 
Q 2956 1244 2956 1747 
Q 2956 2250 2762 2517 
Q 2569 2784 2203 2784 
z
M 2203 3584 
Q 3106 3584 3614 3096 
Q 4122 2609 4122 1747 
Q 4122 884 3614 396 
Q 3106 -91 2203 -91 
Q 1297 -91 786 396 
Q 275 884 275 1747 
Q 275 2609 786 3096 
Q 1297 3584 2203 3584 
z
" transform="scale(0.015625)"/>
      <path id="DejaVuSans-Bold-64" d="M 2919 2988 
L 2919 4863 
L 4044 4863 
L 4044 0 
L 2919 0 
L 2919 506 
Q 2688 197 2409 53 
Q 2131 -91 1766 -91 
Q 1119 -91 703 423 
Q 288 938 288 1747 
Q 288 2556 703 3070 
Q 1119 3584 1766 3584 
Q 2128 3584 2408 3439 
Q 2688 3294 2919 2988 
z
M 2181 722 
Q 2541 722 2730 984 
Q 2919 1247 2919 1747 
Q 2919 2247 2730 2509 
Q 2541 2772 2181 2772 
Q 1825 2772 1636 2509 
Q 1447 2247 1447 1747 
Q 1447 1247 1636 984 
Q 1825 722 2181 722 
z
" transform="scale(0.015625)"/>
     </defs>
     <use xlink:href="#DejaVuSans-Bold-47"/>
     <use xlink:href="#DejaVuSans-Bold-65" x="82.080078"/>
     <use xlink:href="#DejaVuSans-Bold-6d" x="149.902344"/>
     <use xlink:href="#DejaVuSans-Bold-69" x="254.101562"/>
     <use xlink:href="#DejaVuSans-Bold-6e" x="288.378906"/>
     <use xlink:href="#DejaVuSans-Bold-69" x="359.570312"/>
     <use xlink:href="#DejaVuSans-Bold-20" x="393.847656"/>
     <use xlink:href="#DejaVuSans-Bold-26" x="428.662109"/>
     <use xlink:href="#DejaVuSans-Bold-20" x="515.869141"/>
     <use xlink:href="#DejaVuSans-Bold-4d" x="550.683594"/>
     <use xlink:href="#DejaVuSans-Bold-69" x="650.195312"/>
     <use xlink:href="#DejaVuSans-Bold-73" x="684.472656"/>
     <use xlink:href="#DejaVuSans-Bold-74" x="743.994141"/>
     <use xlink:href="#DejaVuSans-Bold-72" x="791.796875"/>
     <use xlink:href="#DejaVuSans-Bold-61" x="841.113281"/>
     <use xlink:href="#DejaVuSans-Bold-6c" x="908.59375"/>
     <use xlink:href="#DejaVuSans-Bold-20" x="942.871094"/>
     <use xlink:href="#DejaVuSans-Bold-4d" x="977.685547"/>
     <use xlink:href="#DejaVuSans-Bold-6f" x="1077.197266"/>
     <use xlink:href="#DejaVuSans-Bold-64" x="1145.898438"/>
     <use xlink:href="#DejaVuSans-Bold-65" x="1217.480469"/>
     <use xlink:href="#DejaVuSans-Bold-6c" x="1285.302734"/>
     <use xlink:href="#DejaVuSans-Bold-73" x="1319.580078"/>
    </g>
   </g>
   <g id="legend_1">
    <g id="patch_15">
     <path d="M 571.323807 85.83625 
L 697.289432 85.83625 
Q 699.289432 85.83625 699.289432 83.83625 
L 699.289432 55.48 
Q 699.289432 53.48 697.289432 53.48 
L 571.323807 53.48 
Q 569.323807 53.48 569.323807 55.48 
L 569.323807 83.83625 
Q 569.323807 85.83625 571.323807 85.83625 
z
" style="fill: #ffffff; opacity: 0.8; stroke: #cccccc; stroke-linejoin: miter"/>
    </g>
    <g id="patch_16">
     <path d="M 573.323807 65.078437 
L 593.323807 65.078437 
L 593.323807 58.078437 
L 573.323807 58.078437 
z
" style="fill: #e41a1c; opacity: 0.8"/>
    </g>
    <g id="text_22">
     <!-- gemini-2.0-flash -->
     <g transform="translate(601.323807 65.078437) scale(0.1 -0.1)">
      <defs>
       <path id="DejaVuSans-67" d="M 2906 1791 
Q 2906 2416 2648 2759 
Q 2391 3103 1925 3103 
Q 1463 3103 1205 2759 
Q 947 2416 947 1791 
Q 947 1169 1205 825 
Q 1463 481 1925 481 
Q 2391 481 2648 825 
Q 2906 1169 2906 1791 
z
M 3481 434 
Q 3481 -459 3084 -895 
Q 2688 -1331 1869 -1331 
Q 1566 -1331 1297 -1286 
Q 1028 -1241 775 -1147 
L 775 -588 
Q 1028 -725 1275 -790 
Q 1522 -856 1778 -856 
Q 2344 -856 2625 -561 
Q 2906 -266 2906 331 
L 2906 616 
Q 2728 306 2450 153 
Q 2172 0 1784 0 
Q 1141 0 747 490 
Q 353 981 353 1791 
Q 353 2603 747 3093 
Q 1141 3584 1784 3584 
Q 2172 3584 2450 3431 
Q 2728 3278 2906 2969 
L 2906 3500 
L 3481 3500 
L 3481 434 
z
" transform="scale(0.015625)"/>
       <path id="DejaVuSans-69" d="M 603 3500 
L 1178 3500 
L 1178 0 
L 603 0 
L 603 3500 
z
M 603 4863 
L 1178 4863 
L 1178 4134 
L 603 4134 
L 603 4863 
z
" transform="scale(0.015625)"/>
       <path id="DejaVuSans-68" d="M 3513 2113 
L 3513 0 
L 2938 0 
L 2938 2094 
Q 2938 2591 2744 2837 
Q 2550 3084 2163 3084 
Q 1697 3084 1428 2787 
Q 1159 2491 1159 1978 
L 1159 0 
L 581 0 
L 581 4863 
L 1159 4863 
L 1159 2956 
Q 1366 3272 1645 3428 
Q 1925 3584 2291 3584 
Q 2894 3584 3203 3211 
Q 3513 2838 3513 2113 
z
" transform="scale(0.015625)"/>
      </defs>
      <use xlink:href="#DejaVuSans-67"/>
      <use xlink:href="#DejaVuSans-65" x="63.476562"/>
      <use xlink:href="#DejaVuSans-6d" x="125"/>
      <use xlink:href="#DejaVuSans-69" x="222.412109"/>
      <use xlink:href="#DejaVuSans-6e" x="250.195312"/>
      <use xlink:href="#DejaVuSans-69" x="313.574219"/>
      <use xlink:href="#DejaVuSans-2d" x="341.357422"/>
      <use xlink:href="#DejaVuSans-32" x="377.441406"/>
      <use xlink:href="#DejaVuSans-2e" x="441.064453"/>
      <use xlink:href="#DejaVuSans-30" x="472.851562"/>
      <use xlink:href="#DejaVuSans-2d" x="536.474609"/>
      <use xlink:href="#DejaVuSans-66" x="572.558594"/>
      <use xlink:href="#DejaVuSans-6c" x="607.763672"/>
      <use xlink:href="#DejaVuSans-61" x="635.546875"/>
      <use xlink:href="#DejaVuSans-73" x="696.826172"/>
      <use xlink:href="#DejaVuSans-68" x="748.925781"/>
     </g>
    </g>
    <g id="patch_17">
     <path d="M 573.323807 79.756562 
L 593.323807 79.756562 
L 593.323807 72.756562 
L 573.323807 72.756562 
z
" style="fill: #999999; opacity: 0.8"/>
    </g>
    <g id="text_23">
     <!-- mistral-small-2503 -->
     <g transform="translate(601.323807 79.756562) scale(0.1 -0.1)">
      <defs>
       <path id="DejaVuSans-35" d="M 691 4666 
L 3169 4666 
L 3169 4134 
L 1269 4134 
L 1269 2991 
Q 1406 3038 1543 3061 
Q 1681 3084 1819 3084 
Q 2600 3084 3056 2656 
Q 3513 2228 3513 1497 
Q 3513 744 3044 326 
Q 2575 -91 1722 -91 
Q 1428 -91 1123 -41 
Q 819 9 494 109 
L 494 744 
Q 775 591 1075 516 
Q 1375 441 1709 441 
Q 2250 441 2565 725 
Q 2881 1009 2881 1497 
Q 2881 1984 2565 2268 
Q 2250 2553 1709 2553 
Q 1456 2553 1204 2497 
Q 953 2441 691 2322 
L 691 4666 
z
" transform="scale(0.015625)"/>
       <path id="DejaVuSans-33" d="M 2597 2516 
Q 3050 2419 3304 2112 
Q 3559 1806 3559 1356 
Q 3559 666 3084 287 
Q 2609 -91 1734 -91 
Q 1441 -91 1130 -33 
Q 819 25 488 141 
L 488 750 
Q 750 597 1062 519 
Q 1375 441 1716 441 
Q 2309 441 2620 675 
Q 2931 909 2931 1356 
Q 2931 1769 2642 2001 
Q 2353 2234 1838 2234 
L 1294 2234 
L 1294 2753 
L 1863 2753 
Q 2328 2753 2575 2939 
Q 2822 3125 2822 3475 
Q 2822 3834 2567 4026 
Q 2313 4219 1838 4219 
Q 1578 4219 1281 4162 
Q 984 4106 628 3988 
L 628 4550 
Q 988 4650 1302 4700 
Q 1616 4750 1894 4750 
Q 2613 4750 3031 4423 
Q 3450 4097 3450 3541 
Q 3450 3153 3228 2886 
Q 3006 2619 2597 2516 
z
" transform="scale(0.015625)"/>
      </defs>
      <use xlink:href="#DejaVuSans-6d"/>
      <use xlink:href="#DejaVuSans-69" x="97.412109"/>
      <use xlink:href="#DejaVuSans-73" x="125.195312"/>
      <use xlink:href="#DejaVuSans-74" x="177.294922"/>
      <use xlink:href="#DejaVuSans-72" x="216.503906"/>
      <use xlink:href="#DejaVuSans-61" x="257.617188"/>
      <use xlink:href="#DejaVuSans-6c" x="318.896484"/>
      <use xlink:href="#DejaVuSans-2d" x="346.679688"/>
      <use xlink:href="#DejaVuSans-73" x="382.763672"/>
      <use xlink:href="#DejaVuSans-6d" x="434.863281"/>
      <use xlink:href="#DejaVuSans-61" x="532.275391"/>
      <use xlink:href="#DejaVuSans-6c" x="593.554688"/>
      <use xlink:href="#DejaVuSans-6c" x="621.337891"/>
      <use xlink:href="#DejaVuSans-2d" x="649.121094"/>
      <use xlink:href="#DejaVuSans-32" x="685.205078"/>
      <use xlink:href="#DejaVuSans-35" x="748.828125"/>
      <use xlink:href="#DejaVuSans-30" x="812.451172"/>
      <use xlink:href="#DejaVuSans-33" x="876.074219"/>
     </g>
    </g>
   </g>
  </g>
  <g id="axes_2">
   <g id="patch_18">
    <path d="M 750.191875 481.418305 
L 1244.103239 481.418305 
L 1244.103239 48.48 
L 750.191875 48.48 
z
" style="fill: #ffffff"/>
   </g>
   <g id="patch_19">
    <path d="M 772.642392 481.418305 
L 791.463184 481.418305 
L 791.463184 188.378495 
L 772.642392 188.378495 
z
" clip-path="url(#p7d075f07d0)" style="fill: #e41a1c; opacity: 0.8"/>
   </g>
   <g id="patch_20">
    <path d="M 826.416084 481.418305 
L 845.236876 481.418305 
L 845.236876 198.904838 
L 826.416084 198.904838 
z
" clip-path="url(#p7d075f07d0)" style="fill: #e41a1c; opacity: 0.8"/>
   </g>
   <g id="patch_21">
    <path d="M 880.189776 481.418305 
L 899.010568 481.418305 
L 899.010568 207.903164 
L 880.189776 207.903164 
z
" clip-path="url(#p7d075f07d0)" style="fill: #e41a1c; opacity: 0.8"/>
   </g>
   <g id="patch_22">
    <path d="M 933.963468 481.418305 
L 952.784261 481.418305 
L 952.784261 190.840301 
L 933.963468 190.840301 
z
" clip-path="url(#p7d075f07d0)" style="fill: #e41a1c; opacity: 0.8"/>
   </g>
   <g id="patch_23">
    <path d="M 987.737161 481.418305 
L 1006.557953 481.418305 
L 1006.557953 201.791094 
L 987.737161 201.791094 
z
" clip-path="url(#p7d075f07d0)" style="fill: #e41a1c; opacity: 0.8"/>
   </g>
   <g id="patch_24">
    <path d="M 1041.510853 481.418305 
L 1060.331645 481.418305 
L 1060.331645 207.393825 
L 1041.510853 207.393825 
z
" clip-path="url(#p7d075f07d0)" style="fill: #e41a1c; opacity: 0.8"/>
   </g>
   <g id="patch_25">
    <path d="M 1095.284545 481.418305 
L 1114.105338 481.418305 
L 1114.105338 192.538099 
L 1095.284545 192.538099 
z
" clip-path="url(#p7d075f07d0)" style="fill: #e41a1c; opacity: 0.8"/>
   </g>
   <g id="patch_26">
    <path d="M 1149.058238 481.418305 
L 1167.87903 481.418305 
L 1167.87903 203.064442 
L 1149.058238 203.064442 
z
" clip-path="url(#p7d075f07d0)" style="fill: #e41a1c; opacity: 0.8"/>
   </g>
   <g id="patch_27">
    <path d="M 1202.83193 481.418305 
L 1221.652722 481.418305 
L 1221.652722 204.847129 
L 1202.83193 204.847129 
z
" clip-path="url(#p7d075f07d0)" style="fill: #e41a1c; opacity: 0.8"/>
   </g>
   <g id="matplotlib.axis_3">
    <g id="xtick_5">
     <g id="line2d_18">
      <g>
       <use xlink:href="#m250bb5da57" x="782.052788" y="481.418305" style="stroke: #000000; stroke-width: 0.8"/>
      </g>
     </g>
     <g id="text_24">
      <!-- base_base -->
      <g transform="translate(743.136503 531.040271) rotate(-45) scale(0.1 -0.1)">
       <use xlink:href="#DejaVuSans-62"/>
       <use xlink:href="#DejaVuSans-61" x="63.476562"/>
       <use xlink:href="#DejaVuSans-73" x="124.755859"/>
       <use xlink:href="#DejaVuSans-65" x="176.855469"/>
       <use xlink:href="#DejaVuSans-5f" x="238.378906"/>
       <use xlink:href="#DejaVuSans-62" x="288.378906"/>
       <use xlink:href="#DejaVuSans-61" x="351.855469"/>
       <use xlink:href="#DejaVuSans-73" x="413.134766"/>
       <use xlink:href="#DejaVuSans-65" x="465.234375"/>
      </g>
     </g>
    </g>
    <g id="xtick_6">
     <g id="line2d_19">
      <g>
       <use xlink:href="#m250bb5da57" x="835.82648" y="481.418305" style="stroke: #000000; stroke-width: 0.8"/>
      </g>
     </g>
     <g id="text_25">
      <!-- base_json-full -->
      <g transform="translate(785.860547 542.089919) rotate(-45) scale(0.1 -0.1)">
       <use xlink:href="#DejaVuSans-62"/>
       <use xlink:href="#DejaVuSans-61" x="63.476562"/>
       <use xlink:href="#DejaVuSans-73" x="124.755859"/>
       <use xlink:href="#DejaVuSans-65" x="176.855469"/>
       <use xlink:href="#DejaVuSans-5f" x="238.378906"/>
       <use xlink:href="#DejaVuSans-6a" x="288.378906"/>
       <use xlink:href="#DejaVuSans-73" x="316.162109"/>
       <use xlink:href="#DejaVuSans-6f" x="368.261719"/>
       <use xlink:href="#DejaVuSans-6e" x="429.443359"/>
       <use xlink:href="#DejaVuSans-2d" x="492.822266"/>
       <use xlink:href="#DejaVuSans-66" x="528.90625"/>
       <use xlink:href="#DejaVuSans-75" x="564.111328"/>
       <use xlink:href="#DejaVuSans-6c" x="627.490234"/>
       <use xlink:href="#DejaVuSans-6c" x="655.273438"/>
      </g>
     </g>
    </g>
    <g id="xtick_7">
     <g id="line2d_20">
      <g>
       <use xlink:href="#m250bb5da57" x="889.600172" y="481.418305" style="stroke: #000000; stroke-width: 0.8"/>
      </g>
     </g>
     <g id="text_26">
      <!-- base_xml-full -->
      <g transform="translate(841.052872 540.671286) rotate(-45) scale(0.1 -0.1)">
       <use xlink:href="#DejaVuSans-62"/>
       <use xlink:href="#DejaVuSans-61" x="63.476562"/>
       <use xlink:href="#DejaVuSans-73" x="124.755859"/>
       <use xlink:href="#DejaVuSans-65" x="176.855469"/>
       <use xlink:href="#DejaVuSans-5f" x="238.378906"/>
       <use xlink:href="#DejaVuSans-78" x="288.378906"/>
       <use xlink:href="#DejaVuSans-6d" x="347.558594"/>
       <use xlink:href="#DejaVuSans-6c" x="444.970703"/>
       <use xlink:href="#DejaVuSans-2d" x="472.753906"/>
       <use xlink:href="#DejaVuSans-66" x="508.837891"/>
       <use xlink:href="#DejaVuSans-75" x="544.042969"/>
       <use xlink:href="#DejaVuSans-6c" x="607.421875"/>
       <use xlink:href="#DejaVuSans-6c" x="635.205078"/>
      </g>
     </g>
    </g>
    <g id="xtick_8">
     <g id="line2d_21">
      <g>
       <use xlink:href="#m250bb5da57" x="943.373865" y="481.418305" style="stroke: #000000; stroke-width: 0.8"/>
      </g>
     </g>
     <g id="text_27">
      <!-- json_base -->
      <g transform="translate(906.858428 528.639422) rotate(-45) scale(0.1 -0.1)">
       <use xlink:href="#DejaVuSans-6a"/>
       <use xlink:href="#DejaVuSans-73" x="27.783203"/>
       <use xlink:href="#DejaVuSans-6f" x="79.882812"/>
       <use xlink:href="#DejaVuSans-6e" x="141.064453"/>
       <use xlink:href="#DejaVuSans-5f" x="204.443359"/>
       <use xlink:href="#DejaVuSans-62" x="254.443359"/>
       <use xlink:href="#DejaVuSans-61" x="317.919922"/>
       <use xlink:href="#DejaVuSans-73" x="379.199219"/>
       <use xlink:href="#DejaVuSans-65" x="431.298828"/>
      </g>
     </g>
    </g>
    <g id="xtick_9">
     <g id="line2d_22">
      <g>
       <use xlink:href="#m250bb5da57" x="997.147557" y="481.418305" style="stroke: #000000; stroke-width: 0.8"/>
      </g>
     </g>
     <g id="text_28">
      <!-- json_json-full -->
      <g transform="translate(949.582472 539.689071) rotate(-45) scale(0.1 -0.1)">
       <use xlink:href="#DejaVuSans-6a"/>
       <use xlink:href="#DejaVuSans-73" x="27.783203"/>
       <use xlink:href="#DejaVuSans-6f" x="79.882812"/>
       <use xlink:href="#DejaVuSans-6e" x="141.064453"/>
       <use xlink:href="#DejaVuSans-5f" x="204.443359"/>
       <use xlink:href="#DejaVuSans-6a" x="254.443359"/>
       <use xlink:href="#DejaVuSans-73" x="282.226562"/>
       <use xlink:href="#DejaVuSans-6f" x="334.326172"/>
       <use xlink:href="#DejaVuSans-6e" x="395.507812"/>
       <use xlink:href="#DejaVuSans-2d" x="458.886719"/>
       <use xlink:href="#DejaVuSans-66" x="494.970703"/>
       <use xlink:href="#DejaVuSans-75" x="530.175781"/>
       <use xlink:href="#DejaVuSans-6c" x="593.554688"/>
       <use xlink:href="#DejaVuSans-6c" x="621.337891"/>
      </g>
     </g>
    </g>
    <g id="xtick_10">
     <g id="line2d_23">
      <g>
       <use xlink:href="#m250bb5da57" x="1050.921249" y="481.418305" style="stroke: #000000; stroke-width: 0.8"/>
      </g>
     </g>
     <g id="text_29">
      <!-- json_xml-full -->
      <g transform="translate(1004.774798 538.270438) rotate(-45) scale(0.1 -0.1)">
       <use xlink:href="#DejaVuSans-6a"/>
       <use xlink:href="#DejaVuSans-73" x="27.783203"/>
       <use xlink:href="#DejaVuSans-6f" x="79.882812"/>
       <use xlink:href="#DejaVuSans-6e" x="141.064453"/>
       <use xlink:href="#DejaVuSans-5f" x="204.443359"/>
       <use xlink:href="#DejaVuSans-78" x="254.443359"/>
       <use xlink:href="#DejaVuSans-6d" x="313.623047"/>
       <use xlink:href="#DejaVuSans-6c" x="411.035156"/>
       <use xlink:href="#DejaVuSans-2d" x="438.818359"/>
       <use xlink:href="#DejaVuSans-66" x="474.902344"/>
       <use xlink:href="#DejaVuSans-75" x="510.107422"/>
       <use xlink:href="#DejaVuSans-6c" x="573.486328"/>
       <use xlink:href="#DejaVuSans-6c" x="601.269531"/>
      </g>
     </g>
    </g>
    <g id="xtick_11">
     <g id="line2d_24">
      <g>
       <use xlink:href="#m250bb5da57" x="1104.694941" y="481.418305" style="stroke: #000000; stroke-width: 0.8"/>
      </g>
     </g>
     <g id="text_30">
      <!-- xml_base -->
      <g transform="translate(1069.598138 527.220789) rotate(-45) scale(0.1 -0.1)">
       <use xlink:href="#DejaVuSans-78"/>
       <use xlink:href="#DejaVuSans-6d" x="59.179688"/>
       <use xlink:href="#DejaVuSans-6c" x="156.591797"/>
       <use xlink:href="#DejaVuSans-5f" x="184.375"/>
       <use xlink:href="#DejaVuSans-62" x="234.375"/>
       <use xlink:href="#DejaVuSans-61" x="297.851562"/>
       <use xlink:href="#DejaVuSans-73" x="359.130859"/>
       <use xlink:href="#DejaVuSans-65" x="411.230469"/>
      </g>
     </g>
    </g>
    <g id="xtick_12">
     <g id="line2d_25">
      <g>
       <use xlink:href="#m250bb5da57" x="1158.468634" y="481.418305" style="stroke: #000000; stroke-width: 0.8"/>
      </g>
     </g>
     <g id="text_31">
      <!-- xml_json-full -->
      <g transform="translate(1112.322182 538.270438) rotate(-45) scale(0.1 -0.1)">
       <use xlink:href="#DejaVuSans-78"/>
       <use xlink:href="#DejaVuSans-6d" x="59.179688"/>
       <use xlink:href="#DejaVuSans-6c" x="156.591797"/>
       <use xlink:href="#DejaVuSans-5f" x="184.375"/>
       <use xlink:href="#DejaVuSans-6a" x="234.375"/>
       <use xlink:href="#DejaVuSans-73" x="262.158203"/>
       <use xlink:href="#DejaVuSans-6f" x="314.257812"/>
       <use xlink:href="#DejaVuSans-6e" x="375.439453"/>
       <use xlink:href="#DejaVuSans-2d" x="438.818359"/>
       <use xlink:href="#DejaVuSans-66" x="474.902344"/>
       <use xlink:href="#DejaVuSans-75" x="510.107422"/>
       <use xlink:href="#DejaVuSans-6c" x="573.486328"/>
       <use xlink:href="#DejaVuSans-6c" x="601.269531"/>
      </g>
     </g>
    </g>
    <g id="xtick_13">
     <g id="line2d_26">
      <g>
       <use xlink:href="#m250bb5da57" x="1212.242326" y="481.418305" style="stroke: #000000; stroke-width: 0.8"/>
      </g>
     </g>
     <g id="text_32">
      <!-- xml_xml-full -->
      <g transform="translate(1167.514507 536.851805) rotate(-45) scale(0.1 -0.1)">
       <use xlink:href="#DejaVuSans-78"/>
       <use xlink:href="#DejaVuSans-6d" x="59.179688"/>
       <use xlink:href="#DejaVuSans-6c" x="156.591797"/>
       <use xlink:href="#DejaVuSans-5f" x="184.375"/>
       <use xlink:href="#DejaVuSans-78" x="234.375"/>
       <use xlink:href="#DejaVuSans-6d" x="293.554688"/>
       <use xlink:href="#DejaVuSans-6c" x="390.966797"/>
       <use xlink:href="#DejaVuSans-2d" x="418.75"/>
       <use xlink:href="#DejaVuSans-66" x="454.833984"/>
       <use xlink:href="#DejaVuSans-75" x="490.039062"/>
       <use xlink:href="#DejaVuSans-6c" x="553.417969"/>
       <use xlink:href="#DejaVuSans-6c" x="581.201172"/>
      </g>
     </g>
    </g>
    <g id="text_33">
     <!-- Input Format _ Output Format -->
     <g transform="translate(907.862869 556.663394) scale(0.12 -0.12)">
      <use xlink:href="#DejaVuSans-49"/>
      <use xlink:href="#DejaVuSans-6e" x="29.492188"/>
      <use xlink:href="#DejaVuSans-70" x="92.871094"/>
      <use xlink:href="#DejaVuSans-75" x="156.347656"/>
      <use xlink:href="#DejaVuSans-74" x="219.726562"/>
      <use xlink:href="#DejaVuSans-20" x="258.935547"/>
      <use xlink:href="#DejaVuSans-46" x="290.722656"/>
      <use xlink:href="#DejaVuSans-6f" x="344.617188"/>
      <use xlink:href="#DejaVuSans-72" x="405.798828"/>
      <use xlink:href="#DejaVuSans-6d" x="445.162109"/>
      <use xlink:href="#DejaVuSans-61" x="542.574219"/>
      <use xlink:href="#DejaVuSans-74" x="603.853516"/>
      <use xlink:href="#DejaVuSans-20" x="643.0625"/>
      <use xlink:href="#DejaVuSans-5f" x="674.849609"/>
      <use xlink:href="#DejaVuSans-20" x="724.849609"/>
      <use xlink:href="#DejaVuSans-4f" x="756.636719"/>
      <use xlink:href="#DejaVuSans-75" x="835.347656"/>
      <use xlink:href="#DejaVuSans-74" x="898.726562"/>
      <use xlink:href="#DejaVuSans-70" x="937.935547"/>
      <use xlink:href="#DejaVuSans-75" x="1001.412109"/>
      <use xlink:href="#DejaVuSans-74" x="1064.791016"/>
      <use xlink:href="#DejaVuSans-20" x="1104"/>
      <use xlink:href="#DejaVuSans-46" x="1135.787109"/>
      <use xlink:href="#DejaVuSans-6f" x="1189.681641"/>
      <use xlink:href="#DejaVuSans-72" x="1250.863281"/>
      <use xlink:href="#DejaVuSans-6d" x="1290.226562"/>
      <use xlink:href="#DejaVuSans-61" x="1387.638672"/>
      <use xlink:href="#DejaVuSans-74" x="1448.917969"/>
     </g>
    </g>
   </g>
   <g id="matplotlib.axis_4">
    <g id="ytick_7">
     <g id="line2d_27">
      <path d="M 750.191875 481.418305 
L 1244.103239 481.418305 
" clip-path="url(#p7d075f07d0)" style="fill: none; stroke: #b0b0b0; stroke-opacity: 0.3; stroke-width: 0.8; stroke-linecap: square"/>
     </g>
     <g id="line2d_28">
      <g>
       <use xlink:href="#m833af5d691" x="750.191875" y="481.418305" style="stroke: #000000; stroke-width: 0.8"/>
      </g>
     </g>
     <g id="text_34">
      <!-- 0.0 -->
      <g transform="translate(727.28875 485.217524) scale(0.1 -0.1)">
       <use xlink:href="#DejaVuSans-30"/>
       <use xlink:href="#DejaVuSans-2e" x="63.623047"/>
       <use xlink:href="#DejaVuSans-30" x="95.410156"/>
      </g>
     </g>
    </g>
    <g id="ytick_8">
     <g id="line2d_29">
      <path d="M 750.191875 394.830644 
L 1244.103239 394.830644 
" clip-path="url(#p7d075f07d0)" style="fill: none; stroke: #b0b0b0; stroke-opacity: 0.3; stroke-width: 0.8; stroke-linecap: square"/>
     </g>
     <g id="line2d_30">
      <g>
       <use xlink:href="#m833af5d691" x="750.191875" y="394.830644" style="stroke: #000000; stroke-width: 0.8"/>
      </g>
     </g>
     <g id="text_35">
      <!-- 0.2 -->
      <g transform="translate(727.28875 398.629863) scale(0.1 -0.1)">
       <use xlink:href="#DejaVuSans-30"/>
       <use xlink:href="#DejaVuSans-2e" x="63.623047"/>
       <use xlink:href="#DejaVuSans-32" x="95.410156"/>
      </g>
     </g>
    </g>
    <g id="ytick_9">
     <g id="line2d_31">
      <path d="M 750.191875 308.242983 
L 1244.103239 308.242983 
" clip-path="url(#p7d075f07d0)" style="fill: none; stroke: #b0b0b0; stroke-opacity: 0.3; stroke-width: 0.8; stroke-linecap: square"/>
     </g>
     <g id="line2d_32">
      <g>
       <use xlink:href="#m833af5d691" x="750.191875" y="308.242983" style="stroke: #000000; stroke-width: 0.8"/>
      </g>
     </g>
     <g id="text_36">
      <!-- 0.4 -->
      <g transform="translate(727.28875 312.042202) scale(0.1 -0.1)">
       <use xlink:href="#DejaVuSans-30"/>
       <use xlink:href="#DejaVuSans-2e" x="63.623047"/>
       <use xlink:href="#DejaVuSans-34" x="95.410156"/>
      </g>
     </g>
    </g>
    <g id="ytick_10">
     <g id="line2d_33">
      <path d="M 750.191875 221.655322 
L 1244.103239 221.655322 
" clip-path="url(#p7d075f07d0)" style="fill: none; stroke: #b0b0b0; stroke-opacity: 0.3; stroke-width: 0.8; stroke-linecap: square"/>
     </g>
     <g id="line2d_34">
      <g>
       <use xlink:href="#m833af5d691" x="750.191875" y="221.655322" style="stroke: #000000; stroke-width: 0.8"/>
      </g>
     </g>
     <g id="text_37">
      <!-- 0.6 -->
      <g transform="translate(727.28875 225.454541) scale(0.1 -0.1)">
       <use xlink:href="#DejaVuSans-30"/>
       <use xlink:href="#DejaVuSans-2e" x="63.623047"/>
       <use xlink:href="#DejaVuSans-36" x="95.410156"/>
      </g>
     </g>
    </g>
    <g id="ytick_11">
     <g id="line2d_35">
      <path d="M 750.191875 135.067661 
L 1244.103239 135.067661 
" clip-path="url(#p7d075f07d0)" style="fill: none; stroke: #b0b0b0; stroke-opacity: 0.3; stroke-width: 0.8; stroke-linecap: square"/>
     </g>
     <g id="line2d_36">
      <g>
       <use xlink:href="#m833af5d691" x="750.191875" y="135.067661" style="stroke: #000000; stroke-width: 0.8"/>
      </g>
     </g>
     <g id="text_38">
      <!-- 0.8 -->
      <g transform="translate(727.28875 138.86688) scale(0.1 -0.1)">
       <use xlink:href="#DejaVuSans-30"/>
       <use xlink:href="#DejaVuSans-2e" x="63.623047"/>
       <use xlink:href="#DejaVuSans-38" x="95.410156"/>
      </g>
     </g>
    </g>
    <g id="ytick_12">
     <g id="line2d_37">
      <path d="M 750.191875 48.48 
L 1244.103239 48.48 
" clip-path="url(#p7d075f07d0)" style="fill: none; stroke: #b0b0b0; stroke-opacity: 0.3; stroke-width: 0.8; stroke-linecap: square"/>
     </g>
     <g id="line2d_38">
      <g>
       <use xlink:href="#m833af5d691" x="750.191875" y="48.48" style="stroke: #000000; stroke-width: 0.8"/>
      </g>
     </g>
     <g id="text_39">
      <!-- 1.0 -->
      <g transform="translate(727.28875 52.279219) scale(0.1 -0.1)">
       <use xlink:href="#DejaVuSans-31"/>
       <use xlink:href="#DejaVuSans-2e" x="63.623047"/>
       <use xlink:href="#DejaVuSans-30" x="95.410156"/>
      </g>
     </g>
    </g>
    <g id="text_40">
     <!-- Accuracy -->
     <g transform="translate(720.793125 292.342902) rotate(-90) scale(0.12 -0.12)">
      <use xlink:href="#DejaVuSans-41"/>
      <use xlink:href="#DejaVuSans-63" x="66.658203"/>
      <use xlink:href="#DejaVuSans-63" x="121.638672"/>
      <use xlink:href="#DejaVuSans-75" x="176.619141"/>
      <use xlink:href="#DejaVuSans-72" x="239.998047"/>
      <use xlink:href="#DejaVuSans-61" x="281.111328"/>
      <use xlink:href="#DejaVuSans-63" x="342.390625"/>
      <use xlink:href="#DejaVuSans-79" x="397.371094"/>
     </g>
    </g>
   </g>
   <g id="line2d_39">
    <path d="M 750.191875 199.517932 
L 1244.103239 199.517932 
" clip-path="url(#p7d075f07d0)" style="fill: none; stroke-dasharray: 5.55,2.4; stroke-dashoffset: 0; stroke: #ff0000; stroke-opacity: 0.7; stroke-width: 1.5"/>
   </g>
   <g id="patch_28">
    <path d="M 750.191875 481.418305 
L 750.191875 48.48 
" style="fill: none; stroke: #000000; stroke-width: 0.8; stroke-linejoin: miter; stroke-linecap: square"/>
   </g>
   <g id="patch_29">
    <path d="M 1244.103239 481.418305 
L 1244.103239 48.48 
" style="fill: none; stroke: #000000; stroke-width: 0.8; stroke-linejoin: miter; stroke-linecap: square"/>
   </g>
   <g id="patch_30">
    <path d="M 750.191875 481.418305 
L 1244.103239 481.418305 
" style="fill: none; stroke: #000000; stroke-width: 0.8; stroke-linejoin: miter; stroke-linecap: square"/>
   </g>
   <g id="patch_31">
    <path d="M 750.191875 48.48 
L 1244.103239 48.48 
" style="fill: none; stroke: #000000; stroke-width: 0.8; stroke-linejoin: miter; stroke-linecap: square"/>
   </g>
   <g id="text_41">
    <!-- n=5100 -->
    <g transform="translate(765.985913 182.385362) scale(0.08 -0.08)">
     <use xlink:href="#DejaVuSans-6e"/>
     <use xlink:href="#DejaVuSans-3d" x="63.378906"/>
     <use xlink:href="#DejaVuSans-35" x="147.167969"/>
     <use xlink:href="#DejaVuSans-31" x="210.791016"/>
     <use xlink:href="#DejaVuSans-30" x="274.414062"/>
     <use xlink:href="#DejaVuSans-30" x="338.037109"/>
    </g>
   </g>
   <g id="text_42">
    <!-- n=5100 -->
    <g transform="translate(819.759605 192.911705) scale(0.08 -0.08)">
     <use xlink:href="#DejaVuSans-6e"/>
     <use xlink:href="#DejaVuSans-3d" x="63.378906"/>
     <use xlink:href="#DejaVuSans-35" x="147.167969"/>
     <use xlink:href="#DejaVuSans-31" x="210.791016"/>
     <use xlink:href="#DejaVuSans-30" x="274.414062"/>
     <use xlink:href="#DejaVuSans-30" x="338.037109"/>
    </g>
   </g>
   <g id="text_43">
    <!-- n=5100 -->
    <g transform="translate(873.533297 201.910031) scale(0.08 -0.08)">
     <use xlink:href="#DejaVuSans-6e"/>
     <use xlink:href="#DejaVuSans-3d" x="63.378906"/>
     <use xlink:href="#DejaVuSans-35" x="147.167969"/>
     <use xlink:href="#DejaVuSans-31" x="210.791016"/>
     <use xlink:href="#DejaVuSans-30" x="274.414062"/>
     <use xlink:href="#DejaVuSans-30" x="338.037109"/>
    </g>
   </g>
   <g id="text_44">
    <!-- n=5100 -->
    <g transform="translate(927.30699 184.847168) scale(0.08 -0.08)">
     <use xlink:href="#DejaVuSans-6e"/>
     <use xlink:href="#DejaVuSans-3d" x="63.378906"/>
     <use xlink:href="#DejaVuSans-35" x="147.167969"/>
     <use xlink:href="#DejaVuSans-31" x="210.791016"/>
     <use xlink:href="#DejaVuSans-30" x="274.414062"/>
     <use xlink:href="#DejaVuSans-30" x="338.037109"/>
    </g>
   </g>
   <g id="text_45">
    <!-- n=5100 -->
    <g transform="translate(981.080682 195.797961) scale(0.08 -0.08)">
     <use xlink:href="#DejaVuSans-6e"/>
     <use xlink:href="#DejaVuSans-3d" x="63.378906"/>
     <use xlink:href="#DejaVuSans-35" x="147.167969"/>
     <use xlink:href="#DejaVuSans-31" x="210.791016"/>
     <use xlink:href="#DejaVuSans-30" x="274.414062"/>
     <use xlink:href="#DejaVuSans-30" x="338.037109"/>
    </g>
   </g>
   <g id="text_46">
    <!-- n=5100 -->
    <g transform="translate(1034.854374 201.400692) scale(0.08 -0.08)">
     <use xlink:href="#DejaVuSans-6e"/>
     <use xlink:href="#DejaVuSans-3d" x="63.378906"/>
     <use xlink:href="#DejaVuSans-35" x="147.167969"/>
     <use xlink:href="#DejaVuSans-31" x="210.791016"/>
     <use xlink:href="#DejaVuSans-30" x="274.414062"/>
     <use xlink:href="#DejaVuSans-30" x="338.037109"/>
    </g>
   </g>
   <g id="text_47">
    <!-- n=5100 -->
    <g transform="translate(1088.628066 186.544966) scale(0.08 -0.08)">
     <use xlink:href="#DejaVuSans-6e"/>
     <use xlink:href="#DejaVuSans-3d" x="63.378906"/>
     <use xlink:href="#DejaVuSans-35" x="147.167969"/>
     <use xlink:href="#DejaVuSans-31" x="210.791016"/>
     <use xlink:href="#DejaVuSans-30" x="274.414062"/>
     <use xlink:href="#DejaVuSans-30" x="338.037109"/>
    </g>
   </g>
   <g id="text_48">
    <!-- n=5100 -->
    <g transform="translate(1142.401759 197.071309) scale(0.08 -0.08)">
     <use xlink:href="#DejaVuSans-6e"/>
     <use xlink:href="#DejaVuSans-3d" x="63.378906"/>
     <use xlink:href="#DejaVuSans-35" x="147.167969"/>
     <use xlink:href="#DejaVuSans-31" x="210.791016"/>
     <use xlink:href="#DejaVuSans-30" x="274.414062"/>
     <use xlink:href="#DejaVuSans-30" x="338.037109"/>
    </g>
   </g>
   <g id="text_49">
    <!-- n=5100 -->
    <g transform="translate(1196.175451 198.853996) scale(0.08 -0.08)">
     <use xlink:href="#DejaVuSans-6e"/>
     <use xlink:href="#DejaVuSans-3d" x="63.378906"/>
     <use xlink:href="#DejaVuSans-35" x="147.167969"/>
     <use xlink:href="#DejaVuSans-31" x="210.791016"/>
     <use xlink:href="#DejaVuSans-30" x="274.414062"/>
     <use xlink:href="#DejaVuSans-30" x="338.037109"/>
    </g>
   </g>
   <g id="text_50">
    <!-- Llama Models -->
    <g transform="translate(943.009119 42.48) scale(0.14 -0.14)">
     <defs>
      <path id="DejaVuSans-Bold-4c" d="M 588 4666 
L 1791 4666 
L 1791 909 
L 3903 909 
L 3903 0 
L 588 0 
L 588 4666 
z
" transform="scale(0.015625)"/>
     </defs>
     <use xlink:href="#DejaVuSans-Bold-4c"/>
     <use xlink:href="#DejaVuSans-Bold-6c" x="63.720703"/>
     <use xlink:href="#DejaVuSans-Bold-61" x="97.998047"/>
     <use xlink:href="#DejaVuSans-Bold-6d" x="165.478516"/>
     <use xlink:href="#DejaVuSans-Bold-61" x="269.677734"/>
     <use xlink:href="#DejaVuSans-Bold-20" x="337.158203"/>
     <use xlink:href="#DejaVuSans-Bold-4d" x="371.972656"/>
     <use xlink:href="#DejaVuSans-Bold-6f" x="471.484375"/>
     <use xlink:href="#DejaVuSans-Bold-64" x="540.185547"/>
     <use xlink:href="#DejaVuSans-Bold-65" x="611.767578"/>
     <use xlink:href="#DejaVuSans-Bold-6c" x="679.589844"/>
     <use xlink:href="#DejaVuSans-Bold-73" x="713.867188"/>
    </g>
   </g>
   <g id="legend_2">
    <g id="patch_32">
     <path d="M 1275.798807 71.158125 
L 1421.728494 71.158125 
Q 1423.728494 71.158125 1423.728494 69.158125 
L 1423.728494 55.48 
Q 1423.728494 53.48 1421.728494 53.48 
L 1275.798807 53.48 
Q 1273.798807 53.48 1273.798807 55.48 
L 1273.798807 69.158125 
Q 1273.798807 71.158125 1275.798807 71.158125 
z
" style="fill: #ffffff; opacity: 0.8; stroke: #cccccc; stroke-linejoin: miter"/>
    </g>
    <g id="patch_33">
     <path d="M 1277.798807 65.078437 
L 1297.798807 65.078437 
L 1297.798807 58.078437 
L 1277.798807 58.078437 
z
" style="fill: #e41a1c; opacity: 0.8"/>
    </g>
    <g id="text_51">
     <!-- llama-v3p1-8b-instruct -->
     <g transform="translate(1305.798807 65.078437) scale(0.1 -0.1)">
      <defs>
       <path id="DejaVuSans-76" d="M 191 3500 
L 800 3500 
L 1894 563 
L 2988 3500 
L 3597 3500 
L 2284 0 
L 1503 0 
L 191 3500 
z
" transform="scale(0.015625)"/>
      </defs>
      <use xlink:href="#DejaVuSans-6c"/>
      <use xlink:href="#DejaVuSans-6c" x="27.783203"/>
      <use xlink:href="#DejaVuSans-61" x="55.566406"/>
      <use xlink:href="#DejaVuSans-6d" x="116.845703"/>
      <use xlink:href="#DejaVuSans-61" x="214.257812"/>
      <use xlink:href="#DejaVuSans-2d" x="275.537109"/>
      <use xlink:href="#DejaVuSans-76" x="308.996094"/>
      <use xlink:href="#DejaVuSans-33" x="368.175781"/>
      <use xlink:href="#DejaVuSans-70" x="431.798828"/>
      <use xlink:href="#DejaVuSans-31" x="495.275391"/>
      <use xlink:href="#DejaVuSans-2d" x="558.898438"/>
      <use xlink:href="#DejaVuSans-38" x="594.982422"/>
      <use xlink:href="#DejaVuSans-62" x="658.605469"/>
      <use xlink:href="#DejaVuSans-2d" x="722.082031"/>
      <use xlink:href="#DejaVuSans-69" x="758.166016"/>
      <use xlink:href="#DejaVuSans-6e" x="785.949219"/>
      <use xlink:href="#DejaVuSans-73" x="849.328125"/>
      <use xlink:href="#DejaVuSans-74" x="901.427734"/>
      <use xlink:href="#DejaVuSans-72" x="940.636719"/>
      <use xlink:href="#DejaVuSans-75" x="981.75"/>
      <use xlink:href="#DejaVuSans-63" x="1045.128906"/>
      <use xlink:href="#DejaVuSans-74" x="1100.109375"/>
     </g>
    </g>
   </g>
  </g>
  <g id="text_52">
   <!-- Accuracy by Input/Output Format Combinations -->
   <g transform="translate(500.029375 19.3575) scale(0.16 -0.16)">
    <defs>
     <path id="DejaVuSans-Bold-41" d="M 3419 850 
L 1538 850 
L 1241 0 
L 31 0 
L 1759 4666 
L 3194 4666 
L 4922 0 
L 3713 0 
L 3419 850 
z
M 1838 1716 
L 3116 1716 
L 2478 3572 
L 1838 1716 
z
" transform="scale(0.015625)"/>
     <path id="DejaVuSans-Bold-63" d="M 3366 3391 
L 3366 2478 
Q 3138 2634 2908 2709 
Q 2678 2784 2431 2784 
Q 1963 2784 1702 2511 
Q 1441 2238 1441 1747 
Q 1441 1256 1702 982 
Q 1963 709 2431 709 
Q 2694 709 2930 787 
Q 3166 866 3366 1019 
L 3366 103 
Q 3103 6 2833 -42 
Q 2563 -91 2291 -91 
Q 1344 -91 809 395 
Q 275 881 275 1747 
Q 275 2613 809 3098 
Q 1344 3584 2291 3584 
Q 2566 3584 2833 3536 
Q 3100 3488 3366 3391 
z
" transform="scale(0.015625)"/>
     <path id="DejaVuSans-Bold-75" d="M 500 1363 
L 500 3500 
L 1625 3500 
L 1625 3150 
Q 1625 2866 1622 2436 
Q 1619 2006 1619 1863 
Q 1619 1441 1641 1255 
Q 1663 1069 1716 984 
Q 1784 875 1895 815 
Q 2006 756 2150 756 
Q 2500 756 2700 1025 
Q 2900 1294 2900 1772 
L 2900 3500 
L 4019 3500 
L 4019 0 
L 2900 0 
L 2900 506 
Q 2647 200 2364 54 
Q 2081 -91 1741 -91 
Q 1134 -91 817 281 
Q 500 653 500 1363 
z
" transform="scale(0.015625)"/>
     <path id="DejaVuSans-Bold-79" d="M 78 3500 
L 1197 3500 
L 2138 1125 
L 2938 3500 
L 4056 3500 
L 2584 -331 
Q 2363 -916 2067 -1148 
Q 1772 -1381 1288 -1381 
L 641 -1381 
L 641 -647 
L 991 -647 
Q 1275 -647 1404 -556 
Q 1534 -466 1606 -231 
L 1638 -134 
L 78 3500 
z
" transform="scale(0.015625)"/>
     <path id="DejaVuSans-Bold-62" d="M 2400 722 
Q 2759 722 2948 984 
Q 3138 1247 3138 1747 
Q 3138 2247 2948 2509 
Q 2759 2772 2400 2772 
Q 2041 2772 1848 2508 
Q 1656 2244 1656 1747 
Q 1656 1250 1848 986 
Q 2041 722 2400 722 
z
M 1656 2988 
Q 1888 3294 2169 3439 
Q 2450 3584 2816 3584 
Q 3463 3584 3878 3070 
Q 4294 2556 4294 1747 
Q 4294 938 3878 423 
Q 3463 -91 2816 -91 
Q 2450 -91 2169 54 
Q 1888 200 1656 506 
L 1656 0 
L 538 0 
L 538 4863 
L 1656 4863 
L 1656 2988 
z
" transform="scale(0.015625)"/>
     <path id="DejaVuSans-Bold-49" d="M 588 4666 
L 1791 4666 
L 1791 0 
L 588 0 
L 588 4666 
z
" transform="scale(0.015625)"/>
     <path id="DejaVuSans-Bold-70" d="M 1656 506 
L 1656 -1331 
L 538 -1331 
L 538 3500 
L 1656 3500 
L 1656 2988 
Q 1888 3294 2169 3439 
Q 2450 3584 2816 3584 
Q 3463 3584 3878 3070 
Q 4294 2556 4294 1747 
Q 4294 938 3878 423 
Q 3463 -91 2816 -91 
Q 2450 -91 2169 54 
Q 1888 200 1656 506 
z
M 2400 2772 
Q 2041 2772 1848 2508 
Q 1656 2244 1656 1747 
Q 1656 1250 1848 986 
Q 2041 722 2400 722 
Q 2759 722 2948 984 
Q 3138 1247 3138 1747 
Q 3138 2247 2948 2509 
Q 2759 2772 2400 2772 
z
" transform="scale(0.015625)"/>
     <path id="DejaVuSans-Bold-2f" d="M 1644 4666 
L 2338 4666 
L 691 -594 
L 0 -594 
L 1644 4666 
z
" transform="scale(0.015625)"/>
     <path id="DejaVuSans-Bold-4f" d="M 2719 3878 
Q 2169 3878 1866 3472 
Q 1563 3066 1563 2328 
Q 1563 1594 1866 1187 
Q 2169 781 2719 781 
Q 3272 781 3575 1187 
Q 3878 1594 3878 2328 
Q 3878 3066 3575 3472 
Q 3272 3878 2719 3878 
z
M 2719 4750 
Q 3844 4750 4481 4106 
Q 5119 3463 5119 2328 
Q 5119 1197 4481 553 
Q 3844 -91 2719 -91 
Q 1597 -91 958 553 
Q 319 1197 319 2328 
Q 319 3463 958 4106 
Q 1597 4750 2719 4750 
z
" transform="scale(0.015625)"/>
     <path id="DejaVuSans-Bold-46" d="M 588 4666 
L 3834 4666 
L 3834 3756 
L 1791 3756 
L 1791 2888 
L 3713 2888 
L 3713 1978 
L 1791 1978 
L 1791 0 
L 588 0 
L 588 4666 
z
" transform="scale(0.015625)"/>
     <path id="DejaVuSans-Bold-43" d="M 4288 256 
Q 3956 84 3597 -3 
Q 3238 -91 2847 -91 
Q 1681 -91 1000 561 
Q 319 1213 319 2328 
Q 319 3447 1000 4098 
Q 1681 4750 2847 4750 
Q 3238 4750 3597 4662 
Q 3956 4575 4288 4403 
L 4288 3438 
Q 3953 3666 3628 3772 
Q 3303 3878 2944 3878 
Q 2300 3878 1931 3465 
Q 1563 3053 1563 2328 
Q 1563 1606 1931 1193 
Q 2300 781 2944 781 
Q 3303 781 3628 887 
Q 3953 994 4288 1222 
L 4288 256 
z
" transform="scale(0.015625)"/>
    </defs>
    <use xlink:href="#DejaVuSans-Bold-41"/>
    <use xlink:href="#DejaVuSans-Bold-63" x="77.392578"/>
    <use xlink:href="#DejaVuSans-Bold-63" x="136.669922"/>
    <use xlink:href="#DejaVuSans-Bold-75" x="195.947266"/>
    <use xlink:href="#DejaVuSans-Bold-72" x="267.138672"/>
    <use xlink:href="#DejaVuSans-Bold-61" x="316.455078"/>
    <use xlink:href="#DejaVuSans-Bold-63" x="383.935547"/>
    <use xlink:href="#DejaVuSans-Bold-79" x="443.212891"/>
    <use xlink:href="#DejaVuSans-Bold-20" x="508.398438"/>
    <use xlink:href="#DejaVuSans-Bold-62" x="543.212891"/>
    <use xlink:href="#DejaVuSans-Bold-79" x="614.794922"/>
    <use xlink:href="#DejaVuSans-Bold-20" x="679.980469"/>
    <use xlink:href="#DejaVuSans-Bold-49" x="714.794922"/>
    <use xlink:href="#DejaVuSans-Bold-6e" x="752.001953"/>
    <use xlink:href="#DejaVuSans-Bold-70" x="823.193359"/>
    <use xlink:href="#DejaVuSans-Bold-75" x="894.775391"/>
    <use xlink:href="#DejaVuSans-Bold-74" x="965.966797"/>
    <use xlink:href="#DejaVuSans-Bold-2f" x="1013.769531"/>
    <use xlink:href="#DejaVuSans-Bold-4f" x="1050.292969"/>
    <use xlink:href="#DejaVuSans-Bold-75" x="1135.302734"/>
    <use xlink:href="#DejaVuSans-Bold-74" x="1206.494141"/>
    <use xlink:href="#DejaVuSans-Bold-70" x="1254.296875"/>
    <use xlink:href="#DejaVuSans-Bold-75" x="1325.878906"/>
    <use xlink:href="#DejaVuSans-Bold-74" x="1397.070312"/>
    <use xlink:href="#DejaVuSans-Bold-20" x="1444.873047"/>
    <use xlink:href="#DejaVuSans-Bold-46" x="1479.6875"/>
    <use xlink:href="#DejaVuSans-Bold-6f" x="1543.998047"/>
    <use xlink:href="#DejaVuSans-Bold-72" x="1612.699219"/>
    <use xlink:href="#DejaVuSans-Bold-6d" x="1662.015625"/>
    <use xlink:href="#DejaVuSans-Bold-61" x="1766.214844"/>
    <use xlink:href="#DejaVuSans-Bold-74" x="1833.695312"/>
    <use xlink:href="#DejaVuSans-Bold-20" x="1881.498047"/>
    <use xlink:href="#DejaVuSans-Bold-43" x="1916.3125"/>
    <use xlink:href="#DejaVuSans-Bold-6f" x="1989.701172"/>
    <use xlink:href="#DejaVuSans-Bold-6d" x="2058.402344"/>
    <use xlink:href="#DejaVuSans-Bold-62" x="2162.601562"/>
    <use xlink:href="#DejaVuSans-Bold-69" x="2234.183594"/>
    <use xlink:href="#DejaVuSans-Bold-6e" x="2268.460938"/>
    <use xlink:href="#DejaVuSans-Bold-61" x="2339.652344"/>
    <use xlink:href="#DejaVuSans-Bold-74" x="2407.132812"/>
    <use xlink:href="#DejaVuSans-Bold-69" x="2454.935547"/>
    <use xlink:href="#DejaVuSans-Bold-6f" x="2489.212891"/>
    <use xlink:href="#DejaVuSans-Bold-6e" x="2557.914062"/>
    <use xlink:href="#DejaVuSans-Bold-73" x="2629.105469"/>
   </g>
  </g>
 </g>
 <defs>
  <clipPath id="p305d41e9ca">
   <rect x="45.716875" y="48.48" width="493.911364" height="432.938305"/>
  </clipPath>
  <clipPath id="p7d075f07d0">
   <rect x="750.191875" y="48.48" width="493.911364" height="432.938305"/>
  </clipPath>
 </defs>
</svg>
