<?xml version="1.0" encoding="utf-8" standalone="no"?>
<!DOCTYPE svg PUBLIC "-//W3C//DTD SVG 1.1//EN"
  "http://www.w3.org/Graphics/SVG/1.1/DTD/svg11.dtd">
<svg xmlns:xlink="http://www.w3.org/1999/xlink" width="1072.58625pt" height="708.695952pt" viewBox="0 0 1072.58625 708.695952" xmlns="http://www.w3.org/2000/svg" version="1.1">
 <metadata>
  <rdf:RDF xmlns:dc="http://purl.org/dc/elements/1.1/" xmlns:cc="http://creativecommons.org/ns#" xmlns:rdf="http://www.w3.org/1999/02/22-rdf-syntax-ns#">
   <cc:Work>
    <dc:type rdf:resource="http://purl.org/dc/dcmitype/StillImage"/>
    <dc:date>2025-06-13T18:32:11.489666</dc:date>
    <dc:format>image/svg+xml</dc:format>
    <dc:creator>
     <cc:Agent>
      <dc:title>Matplotlib v3.9.4, https://matplotlib.org/</dc:title>
     </cc:Agent>
    </dc:creator>
   </cc:Work>
  </rdf:RDF>
 </metadata>
 <defs>
  <style type="text/css">*{stroke-linejoin: round; stroke-linecap: butt}</style>
 </defs>
 <g id="figure_1">
  <g id="patch_1">
   <path d="M 0 708.695952 
L 1072.58625 708.695952 
L 1072.58625 0 
L 0 0 
z
" style="fill: #ffffff"/>
  </g>
  <g id="axes_1">
   <g id="patch_2">
    <path d="M 56.50625 257.920659 
L 530.78625 257.920659 
L 530.78625 44.16 
L 56.50625 44.16 
z
" style="fill: #ffffff"/>
   </g>
   <g id="patch_3">
    <path d="M 86.14875 257.920659 
L 145.43375 257.920659 
L 145.43375 99.887642 
L 86.14875 99.887642 
z
" clip-path="url(#p04b4558fd0)" style="fill: #f77189"/>
   </g>
   <g id="patch_4">
    <path d="M 204.71875 257.920659 
L 264.00375 257.920659 
L 264.00375 87.100713 
L 204.71875 87.100713 
z
" clip-path="url(#p04b4558fd0)" style="fill: #f77189"/>
   </g>
   <g id="patch_5">
    <path d="M 323.28875 257.920659 
L 382.57375 257.920659 
L 382.57375 65.725372 
L 323.28875 65.725372 
z
" clip-path="url(#p04b4558fd0)" style="fill: #f77189"/>
   </g>
   <g id="patch_6">
    <path d="M 441.85875 257.920659 
L 501.14375 257.920659 
L 501.14375 54.339079 
L 441.85875 54.339079 
z
" clip-path="url(#p04b4558fd0)" style="fill: #f77189"/>
   </g>
   <g id="matplotlib.axis_1">
    <g id="xtick_1">
     <g id="line2d_1">
      <defs>
       <path id="m8b33f3ff7f" d="M 0 0 
L 0 3.5 
" style="stroke: #000000; stroke-width: 0.8"/>
      </defs>
      <g>
       <use xlink:href="#m8b33f3ff7f" x="115.79125" y="257.920659" style="stroke: #000000; stroke-width: 0.8"/>
      </g>
     </g>
     <g id="text_1">
      <!-- xml_in_base_out -->
      <g transform="translate(88.380919 328.81991) rotate(-45) scale(0.1 -0.1)">
       <defs>
        <path id="DejaVuSans-78" d="M 3513 3500 
L 2247 1797 
L 3578 0 
L 2900 0 
L 1881 1375 
L 863 0 
L 184 0 
L 1544 1831 
L 300 3500 
L 978 3500 
L 1906 2253 
L 2834 3500 
L 3513 3500 
z
" transform="scale(0.015625)"/>
        <path id="DejaVuSans-6d" d="M 3328 2828 
Q 3544 3216 3844 3400 
Q 4144 3584 4550 3584 
Q 5097 3584 5394 3201 
Q 5691 2819 5691 2113 
L 5691 0 
L 5113 0 
L 5113 2094 
Q 5113 2597 4934 2840 
Q 4756 3084 4391 3084 
Q 3944 3084 3684 2787 
Q 3425 2491 3425 1978 
L 3425 0 
L 2847 0 
L 2847 2094 
Q 2847 2600 2669 2842 
Q 2491 3084 2119 3084 
Q 1678 3084 1418 2786 
Q 1159 2488 1159 1978 
L 1159 0 
L 581 0 
L 581 3500 
L 1159 3500 
L 1159 2956 
Q 1356 3278 1631 3431 
Q 1906 3584 2284 3584 
Q 2666 3584 2933 3390 
Q 3200 3197 3328 2828 
z
" transform="scale(0.015625)"/>
        <path id="DejaVuSans-6c" d="M 603 4863 
L 1178 4863 
L 1178 0 
L 603 0 
L 603 4863 
z
" transform="scale(0.015625)"/>
        <path id="DejaVuSans-5f" d="M 3263 -1063 
L 3263 -1509 
L -63 -1509 
L -63 -1063 
L 3263 -1063 
z
" transform="scale(0.015625)"/>
        <path id="DejaVuSans-69" d="M 603 3500 
L 1178 3500 
L 1178 0 
L 603 0 
L 603 3500 
z
M 603 4863 
L 1178 4863 
L 1178 4134 
L 603 4134 
L 603 4863 
z
" transform="scale(0.015625)"/>
        <path id="DejaVuSans-6e" d="M 3513 2113 
L 3513 0 
L 2938 0 
L 2938 2094 
Q 2938 2591 2744 2837 
Q 2550 3084 2163 3084 
Q 1697 3084 1428 2787 
Q 1159 2491 1159 1978 
L 1159 0 
L 581 0 
L 581 3500 
L 1159 3500 
L 1159 2956 
Q 1366 3272 1645 3428 
Q 1925 3584 2291 3584 
Q 2894 3584 3203 3211 
Q 3513 2838 3513 2113 
z
" transform="scale(0.015625)"/>
        <path id="DejaVuSans-62" d="M 3116 1747 
Q 3116 2381 2855 2742 
Q 2594 3103 2138 3103 
Q 1681 3103 1420 2742 
Q 1159 2381 1159 1747 
Q 1159 1113 1420 752 
Q 1681 391 2138 391 
Q 2594 391 2855 752 
Q 3116 1113 3116 1747 
z
M 1159 2969 
Q 1341 3281 1617 3432 
Q 1894 3584 2278 3584 
Q 2916 3584 3314 3078 
Q 3713 2572 3713 1747 
Q 3713 922 3314 415 
Q 2916 -91 2278 -91 
Q 1894 -91 1617 61 
Q 1341 213 1159 525 
L 1159 0 
L 581 0 
L 581 4863 
L 1159 4863 
L 1159 2969 
z
" transform="scale(0.015625)"/>
        <path id="DejaVuSans-61" d="M 2194 1759 
Q 1497 1759 1228 1600 
Q 959 1441 959 1056 
Q 959 750 1161 570 
Q 1363 391 1709 391 
Q 2188 391 2477 730 
Q 2766 1069 2766 1631 
L 2766 1759 
L 2194 1759 
z
M 3341 1997 
L 3341 0 
L 2766 0 
L 2766 531 
Q 2569 213 2275 61 
Q 1981 -91 1556 -91 
Q 1019 -91 701 211 
Q 384 513 384 1019 
Q 384 1609 779 1909 
Q 1175 2209 1959 2209 
L 2766 2209 
L 2766 2266 
Q 2766 2663 2505 2880 
Q 2244 3097 1772 3097 
Q 1472 3097 1187 3025 
Q 903 2953 641 2809 
L 641 3341 
Q 956 3463 1253 3523 
Q 1550 3584 1831 3584 
Q 2591 3584 2966 3190 
Q 3341 2797 3341 1997 
z
" transform="scale(0.015625)"/>
        <path id="DejaVuSans-73" d="M 2834 3397 
L 2834 2853 
Q 2591 2978 2328 3040 
Q 2066 3103 1784 3103 
Q 1356 3103 1142 2972 
Q 928 2841 928 2578 
Q 928 2378 1081 2264 
Q 1234 2150 1697 2047 
L 1894 2003 
Q 2506 1872 2764 1633 
Q 3022 1394 3022 966 
Q 3022 478 2636 193 
Q 2250 -91 1575 -91 
Q 1294 -91 989 -36 
Q 684 19 347 128 
L 347 722 
Q 666 556 975 473 
Q 1284 391 1588 391 
Q 1994 391 2212 530 
Q 2431 669 2431 922 
Q 2431 1156 2273 1281 
Q 2116 1406 1581 1522 
L 1381 1569 
Q 847 1681 609 1914 
Q 372 2147 372 2553 
Q 372 3047 722 3315 
Q 1072 3584 1716 3584 
Q 2034 3584 2315 3537 
Q 2597 3491 2834 3397 
z
" transform="scale(0.015625)"/>
        <path id="DejaVuSans-65" d="M 3597 1894 
L 3597 1613 
L 953 1613 
Q 991 1019 1311 708 
Q 1631 397 2203 397 
Q 2534 397 2845 478 
Q 3156 559 3463 722 
L 3463 178 
Q 3153 47 2828 -22 
Q 2503 -91 2169 -91 
Q 1331 -91 842 396 
Q 353 884 353 1716 
Q 353 2575 817 3079 
Q 1281 3584 2069 3584 
Q 2775 3584 3186 3129 
Q 3597 2675 3597 1894 
z
M 3022 2063 
Q 3016 2534 2758 2815 
Q 2500 3097 2075 3097 
Q 1594 3097 1305 2825 
Q 1016 2553 972 2059 
L 3022 2063 
z
" transform="scale(0.015625)"/>
        <path id="DejaVuSans-6f" d="M 1959 3097 
Q 1497 3097 1228 2736 
Q 959 2375 959 1747 
Q 959 1119 1226 758 
Q 1494 397 1959 397 
Q 2419 397 2687 759 
Q 2956 1122 2956 1747 
Q 2956 2369 2687 2733 
Q 2419 3097 1959 3097 
z
M 1959 3584 
Q 2709 3584 3137 3096 
Q 3566 2609 3566 1747 
Q 3566 888 3137 398 
Q 2709 -91 1959 -91 
Q 1206 -91 779 398 
Q 353 888 353 1747 
Q 353 2609 779 3096 
Q 1206 3584 1959 3584 
z
" transform="scale(0.015625)"/>
        <path id="DejaVuSans-75" d="M 544 1381 
L 544 3500 
L 1119 3500 
L 1119 1403 
Q 1119 906 1312 657 
Q 1506 409 1894 409 
Q 2359 409 2629 706 
Q 2900 1003 2900 1516 
L 2900 3500 
L 3475 3500 
L 3475 0 
L 2900 0 
L 2900 538 
Q 2691 219 2414 64 
Q 2138 -91 1772 -91 
Q 1169 -91 856 284 
Q 544 659 544 1381 
z
M 1991 3584 
L 1991 3584 
z
" transform="scale(0.015625)"/>
        <path id="DejaVuSans-74" d="M 1172 4494 
L 1172 3500 
L 2356 3500 
L 2356 3053 
L 1172 3053 
L 1172 1153 
Q 1172 725 1289 603 
Q 1406 481 1766 481 
L 2356 481 
L 2356 0 
L 1766 0 
Q 1100 0 847 248 
Q 594 497 594 1153 
L 594 3053 
L 172 3053 
L 172 3500 
L 594 3500 
L 594 4494 
L 1172 4494 
z
" transform="scale(0.015625)"/>
       </defs>
       <use xlink:href="#DejaVuSans-78"/>
       <use xlink:href="#DejaVuSans-6d" x="59.179688"/>
       <use xlink:href="#DejaVuSans-6c" x="156.591797"/>
       <use xlink:href="#DejaVuSans-5f" x="184.375"/>
       <use xlink:href="#DejaVuSans-69" x="234.375"/>
       <use xlink:href="#DejaVuSans-6e" x="262.158203"/>
       <use xlink:href="#DejaVuSans-5f" x="325.537109"/>
       <use xlink:href="#DejaVuSans-62" x="375.537109"/>
       <use xlink:href="#DejaVuSans-61" x="439.013672"/>
       <use xlink:href="#DejaVuSans-73" x="500.292969"/>
       <use xlink:href="#DejaVuSans-65" x="552.392578"/>
       <use xlink:href="#DejaVuSans-5f" x="613.916016"/>
       <use xlink:href="#DejaVuSans-6f" x="663.916016"/>
       <use xlink:href="#DejaVuSans-75" x="725.097656"/>
       <use xlink:href="#DejaVuSans-74" x="788.476562"/>
      </g>
     </g>
    </g>
    <g id="xtick_2">
     <g id="line2d_2">
      <g>
       <use xlink:href="#m8b33f3ff7f" x="234.36125" y="257.920659" style="stroke: #000000; stroke-width: 0.8"/>
      </g>
     </g>
     <g id="text_2">
      <!-- base_in_base_out -->
      <g transform="translate(205.041178 332.639391) rotate(-45) scale(0.1 -0.1)">
       <use xlink:href="#DejaVuSans-62"/>
       <use xlink:href="#DejaVuSans-61" x="63.476562"/>
       <use xlink:href="#DejaVuSans-73" x="124.755859"/>
       <use xlink:href="#DejaVuSans-65" x="176.855469"/>
       <use xlink:href="#DejaVuSans-5f" x="238.378906"/>
       <use xlink:href="#DejaVuSans-69" x="288.378906"/>
       <use xlink:href="#DejaVuSans-6e" x="316.162109"/>
       <use xlink:href="#DejaVuSans-5f" x="379.541016"/>
       <use xlink:href="#DejaVuSans-62" x="429.541016"/>
       <use xlink:href="#DejaVuSans-61" x="493.017578"/>
       <use xlink:href="#DejaVuSans-73" x="554.296875"/>
       <use xlink:href="#DejaVuSans-65" x="606.396484"/>
       <use xlink:href="#DejaVuSans-5f" x="667.919922"/>
       <use xlink:href="#DejaVuSans-6f" x="717.919922"/>
       <use xlink:href="#DejaVuSans-75" x="779.101562"/>
       <use xlink:href="#DejaVuSans-74" x="842.480469"/>
      </g>
     </g>
    </g>
    <g id="xtick_3">
     <g id="line2d_3">
      <g>
       <use xlink:href="#m8b33f3ff7f" x="352.93125" y="257.920659" style="stroke: #000000; stroke-width: 0.8"/>
      </g>
     </g>
     <g id="text_3">
      <!-- base_in_json-full_out -->
      <g transform="translate(318.086354 343.68904) rotate(-45) scale(0.1 -0.1)">
       <defs>
        <path id="DejaVuSans-6a" d="M 603 3500 
L 1178 3500 
L 1178 -63 
Q 1178 -731 923 -1031 
Q 669 -1331 103 -1331 
L -116 -1331 
L -116 -844 
L 38 -844 
Q 366 -844 484 -692 
Q 603 -541 603 -63 
L 603 3500 
z
M 603 4863 
L 1178 4863 
L 1178 4134 
L 603 4134 
L 603 4863 
z
" transform="scale(0.015625)"/>
        <path id="DejaVuSans-2d" d="M 313 2009 
L 1997 2009 
L 1997 1497 
L 313 1497 
L 313 2009 
z
" transform="scale(0.015625)"/>
        <path id="DejaVuSans-66" d="M 2375 4863 
L 2375 4384 
L 1825 4384 
Q 1516 4384 1395 4259 
Q 1275 4134 1275 3809 
L 1275 3500 
L 2222 3500 
L 2222 3053 
L 1275 3053 
L 1275 0 
L 697 0 
L 697 3053 
L 147 3053 
L 147 3500 
L 697 3500 
L 697 3744 
Q 697 4328 969 4595 
Q 1241 4863 1831 4863 
L 2375 4863 
z
" transform="scale(0.015625)"/>
       </defs>
       <use xlink:href="#DejaVuSans-62"/>
       <use xlink:href="#DejaVuSans-61" x="63.476562"/>
       <use xlink:href="#DejaVuSans-73" x="124.755859"/>
       <use xlink:href="#DejaVuSans-65" x="176.855469"/>
       <use xlink:href="#DejaVuSans-5f" x="238.378906"/>
       <use xlink:href="#DejaVuSans-69" x="288.378906"/>
       <use xlink:href="#DejaVuSans-6e" x="316.162109"/>
       <use xlink:href="#DejaVuSans-5f" x="379.541016"/>
       <use xlink:href="#DejaVuSans-6a" x="429.541016"/>
       <use xlink:href="#DejaVuSans-73" x="457.324219"/>
       <use xlink:href="#DejaVuSans-6f" x="509.423828"/>
       <use xlink:href="#DejaVuSans-6e" x="570.605469"/>
       <use xlink:href="#DejaVuSans-2d" x="633.984375"/>
       <use xlink:href="#DejaVuSans-66" x="670.068359"/>
       <use xlink:href="#DejaVuSans-75" x="705.273438"/>
       <use xlink:href="#DejaVuSans-6c" x="768.652344"/>
       <use xlink:href="#DejaVuSans-6c" x="796.435547"/>
       <use xlink:href="#DejaVuSans-5f" x="824.21875"/>
       <use xlink:href="#DejaVuSans-6f" x="874.21875"/>
       <use xlink:href="#DejaVuSans-75" x="935.400391"/>
       <use xlink:href="#DejaVuSans-74" x="998.779297"/>
      </g>
     </g>
    </g>
    <g id="xtick_4">
     <g id="line2d_4">
      <g>
       <use xlink:href="#m8b33f3ff7f" x="471.50125" y="257.920659" style="stroke: #000000; stroke-width: 0.8"/>
      </g>
     </g>
     <g id="text_4">
      <!-- json_in_json-full_out -->
      <g transform="translate(437.856778 341.288191) rotate(-45) scale(0.1 -0.1)">
       <use xlink:href="#DejaVuSans-6a"/>
       <use xlink:href="#DejaVuSans-73" x="27.783203"/>
       <use xlink:href="#DejaVuSans-6f" x="79.882812"/>
       <use xlink:href="#DejaVuSans-6e" x="141.064453"/>
       <use xlink:href="#DejaVuSans-5f" x="204.443359"/>
       <use xlink:href="#DejaVuSans-69" x="254.443359"/>
       <use xlink:href="#DejaVuSans-6e" x="282.226562"/>
       <use xlink:href="#DejaVuSans-5f" x="345.605469"/>
       <use xlink:href="#DejaVuSans-6a" x="395.605469"/>
       <use xlink:href="#DejaVuSans-73" x="423.388672"/>
       <use xlink:href="#DejaVuSans-6f" x="475.488281"/>
       <use xlink:href="#DejaVuSans-6e" x="536.669922"/>
       <use xlink:href="#DejaVuSans-2d" x="600.048828"/>
       <use xlink:href="#DejaVuSans-66" x="636.132812"/>
       <use xlink:href="#DejaVuSans-75" x="671.337891"/>
       <use xlink:href="#DejaVuSans-6c" x="734.716797"/>
       <use xlink:href="#DejaVuSans-6c" x="762.5"/>
       <use xlink:href="#DejaVuSans-5f" x="790.283203"/>
       <use xlink:href="#DejaVuSans-6f" x="840.283203"/>
       <use xlink:href="#DejaVuSans-75" x="901.464844"/>
       <use xlink:href="#DejaVuSans-74" x="964.84375"/>
      </g>
     </g>
    </g>
    <g id="text_5">
     <!-- Input_Output Format -->
     <g transform="translate(241.625938 356.77814) scale(0.1 -0.1)">
      <defs>
       <path id="DejaVuSans-49" d="M 628 4666 
L 1259 4666 
L 1259 0 
L 628 0 
L 628 4666 
z
" transform="scale(0.015625)"/>
       <path id="DejaVuSans-70" d="M 1159 525 
L 1159 -1331 
L 581 -1331 
L 581 3500 
L 1159 3500 
L 1159 2969 
Q 1341 3281 1617 3432 
Q 1894 3584 2278 3584 
Q 2916 3584 3314 3078 
Q 3713 2572 3713 1747 
Q 3713 922 3314 415 
Q 2916 -91 2278 -91 
Q 1894 -91 1617 61 
Q 1341 213 1159 525 
z
M 3116 1747 
Q 3116 2381 2855 2742 
Q 2594 3103 2138 3103 
Q 1681 3103 1420 2742 
Q 1159 2381 1159 1747 
Q 1159 1113 1420 752 
Q 1681 391 2138 391 
Q 2594 391 2855 752 
Q 3116 1113 3116 1747 
z
" transform="scale(0.015625)"/>
       <path id="DejaVuSans-4f" d="M 2522 4238 
Q 1834 4238 1429 3725 
Q 1025 3213 1025 2328 
Q 1025 1447 1429 934 
Q 1834 422 2522 422 
Q 3209 422 3611 934 
Q 4013 1447 4013 2328 
Q 4013 3213 3611 3725 
Q 3209 4238 2522 4238 
z
M 2522 4750 
Q 3503 4750 4090 4092 
Q 4678 3434 4678 2328 
Q 4678 1225 4090 567 
Q 3503 -91 2522 -91 
Q 1538 -91 948 565 
Q 359 1222 359 2328 
Q 359 3434 948 4092 
Q 1538 4750 2522 4750 
z
" transform="scale(0.015625)"/>
       <path id="DejaVuSans-20" transform="scale(0.015625)"/>
       <path id="DejaVuSans-46" d="M 628 4666 
L 3309 4666 
L 3309 4134 
L 1259 4134 
L 1259 2759 
L 3109 2759 
L 3109 2228 
L 1259 2228 
L 1259 0 
L 628 0 
L 628 4666 
z
" transform="scale(0.015625)"/>
       <path id="DejaVuSans-72" d="M 2631 2963 
Q 2534 3019 2420 3045 
Q 2306 3072 2169 3072 
Q 1681 3072 1420 2755 
Q 1159 2438 1159 1844 
L 1159 0 
L 581 0 
L 581 3500 
L 1159 3500 
L 1159 2956 
Q 1341 3275 1631 3429 
Q 1922 3584 2338 3584 
Q 2397 3584 2469 3576 
Q 2541 3569 2628 3553 
L 2631 2963 
z
" transform="scale(0.015625)"/>
      </defs>
      <use xlink:href="#DejaVuSans-49"/>
      <use xlink:href="#DejaVuSans-6e" x="29.492188"/>
      <use xlink:href="#DejaVuSans-70" x="92.871094"/>
      <use xlink:href="#DejaVuSans-75" x="156.347656"/>
      <use xlink:href="#DejaVuSans-74" x="219.726562"/>
      <use xlink:href="#DejaVuSans-5f" x="258.935547"/>
      <use xlink:href="#DejaVuSans-4f" x="308.935547"/>
      <use xlink:href="#DejaVuSans-75" x="387.646484"/>
      <use xlink:href="#DejaVuSans-74" x="451.025391"/>
      <use xlink:href="#DejaVuSans-70" x="490.234375"/>
      <use xlink:href="#DejaVuSans-75" x="553.710938"/>
      <use xlink:href="#DejaVuSans-74" x="617.089844"/>
      <use xlink:href="#DejaVuSans-20" x="656.298828"/>
      <use xlink:href="#DejaVuSans-46" x="688.085938"/>
      <use xlink:href="#DejaVuSans-6f" x="741.980469"/>
      <use xlink:href="#DejaVuSans-72" x="803.162109"/>
      <use xlink:href="#DejaVuSans-6d" x="842.525391"/>
      <use xlink:href="#DejaVuSans-61" x="939.9375"/>
      <use xlink:href="#DejaVuSans-74" x="1001.216797"/>
     </g>
    </g>
   </g>
   <g id="matplotlib.axis_2">
    <g id="ytick_1">
     <g id="line2d_5">
      <defs>
       <path id="mbd5c7abe17" d="M 0 0 
L -3.5 0 
" style="stroke: #000000; stroke-width: 0.8"/>
      </defs>
      <g>
       <use xlink:href="#mbd5c7abe17" x="56.50625" y="257.920659" style="stroke: #000000; stroke-width: 0.8"/>
      </g>
     </g>
     <g id="text_6">
      <!-- 0.000 -->
      <g transform="translate(20.878125 261.719878) scale(0.1 -0.1)">
       <defs>
        <path id="DejaVuSans-30" d="M 2034 4250 
Q 1547 4250 1301 3770 
Q 1056 3291 1056 2328 
Q 1056 1369 1301 889 
Q 1547 409 2034 409 
Q 2525 409 2770 889 
Q 3016 1369 3016 2328 
Q 3016 3291 2770 3770 
Q 2525 4250 2034 4250 
z
M 2034 4750 
Q 2819 4750 3233 4129 
Q 3647 3509 3647 2328 
Q 3647 1150 3233 529 
Q 2819 -91 2034 -91 
Q 1250 -91 836 529 
Q 422 1150 422 2328 
Q 422 3509 836 4129 
Q 1250 4750 2034 4750 
z
" transform="scale(0.015625)"/>
        <path id="DejaVuSans-2e" d="M 684 794 
L 1344 794 
L 1344 0 
L 684 0 
L 684 794 
z
" transform="scale(0.015625)"/>
       </defs>
       <use xlink:href="#DejaVuSans-30"/>
       <use xlink:href="#DejaVuSans-2e" x="63.623047"/>
       <use xlink:href="#DejaVuSans-30" x="95.410156"/>
       <use xlink:href="#DejaVuSans-30" x="159.033203"/>
       <use xlink:href="#DejaVuSans-30" x="222.65625"/>
      </g>
     </g>
    </g>
    <g id="ytick_2">
     <g id="line2d_6">
      <g>
       <use xlink:href="#mbd5c7abe17" x="56.50625" y="215.766367" style="stroke: #000000; stroke-width: 0.8"/>
      </g>
     </g>
     <g id="text_7">
      <!-- 0.005 -->
      <g transform="translate(20.878125 219.565586) scale(0.1 -0.1)">
       <defs>
        <path id="DejaVuSans-35" d="M 691 4666 
L 3169 4666 
L 3169 4134 
L 1269 4134 
L 1269 2991 
Q 1406 3038 1543 3061 
Q 1681 3084 1819 3084 
Q 2600 3084 3056 2656 
Q 3513 2228 3513 1497 
Q 3513 744 3044 326 
Q 2575 -91 1722 -91 
Q 1428 -91 1123 -41 
Q 819 9 494 109 
L 494 744 
Q 775 591 1075 516 
Q 1375 441 1709 441 
Q 2250 441 2565 725 
Q 2881 1009 2881 1497 
Q 2881 1984 2565 2268 
Q 2250 2553 1709 2553 
Q 1456 2553 1204 2497 
Q 953 2441 691 2322 
L 691 4666 
z
" transform="scale(0.015625)"/>
       </defs>
       <use xlink:href="#DejaVuSans-30"/>
       <use xlink:href="#DejaVuSans-2e" x="63.623047"/>
       <use xlink:href="#DejaVuSans-30" x="95.410156"/>
       <use xlink:href="#DejaVuSans-30" x="159.033203"/>
       <use xlink:href="#DejaVuSans-35" x="222.65625"/>
      </g>
     </g>
    </g>
    <g id="ytick_3">
     <g id="line2d_7">
      <g>
       <use xlink:href="#mbd5c7abe17" x="56.50625" y="173.612076" style="stroke: #000000; stroke-width: 0.8"/>
      </g>
     </g>
     <g id="text_8">
      <!-- 0.010 -->
      <g transform="translate(20.878125 177.411294) scale(0.1 -0.1)">
       <defs>
        <path id="DejaVuSans-31" d="M 794 531 
L 1825 531 
L 1825 4091 
L 703 3866 
L 703 4441 
L 1819 4666 
L 2450 4666 
L 2450 531 
L 3481 531 
L 3481 0 
L 794 0 
L 794 531 
z
" transform="scale(0.015625)"/>
       </defs>
       <use xlink:href="#DejaVuSans-30"/>
       <use xlink:href="#DejaVuSans-2e" x="63.623047"/>
       <use xlink:href="#DejaVuSans-30" x="95.410156"/>
       <use xlink:href="#DejaVuSans-31" x="159.033203"/>
       <use xlink:href="#DejaVuSans-30" x="222.65625"/>
      </g>
     </g>
    </g>
    <g id="ytick_4">
     <g id="line2d_8">
      <g>
       <use xlink:href="#mbd5c7abe17" x="56.50625" y="131.457784" style="stroke: #000000; stroke-width: 0.8"/>
      </g>
     </g>
     <g id="text_9">
      <!-- 0.015 -->
      <g transform="translate(20.878125 135.257003) scale(0.1 -0.1)">
       <use xlink:href="#DejaVuSans-30"/>
       <use xlink:href="#DejaVuSans-2e" x="63.623047"/>
       <use xlink:href="#DejaVuSans-30" x="95.410156"/>
       <use xlink:href="#DejaVuSans-31" x="159.033203"/>
       <use xlink:href="#DejaVuSans-35" x="222.65625"/>
      </g>
     </g>
    </g>
    <g id="ytick_5">
     <g id="line2d_9">
      <g>
       <use xlink:href="#mbd5c7abe17" x="56.50625" y="89.303493" style="stroke: #000000; stroke-width: 0.8"/>
      </g>
     </g>
     <g id="text_10">
      <!-- 0.020 -->
      <g transform="translate(20.878125 93.102711) scale(0.1 -0.1)">
       <defs>
        <path id="DejaVuSans-32" d="M 1228 531 
L 3431 531 
L 3431 0 
L 469 0 
L 469 531 
Q 828 903 1448 1529 
Q 2069 2156 2228 2338 
Q 2531 2678 2651 2914 
Q 2772 3150 2772 3378 
Q 2772 3750 2511 3984 
Q 2250 4219 1831 4219 
Q 1534 4219 1204 4116 
Q 875 4013 500 3803 
L 500 4441 
Q 881 4594 1212 4672 
Q 1544 4750 1819 4750 
Q 2544 4750 2975 4387 
Q 3406 4025 3406 3419 
Q 3406 3131 3298 2873 
Q 3191 2616 2906 2266 
Q 2828 2175 2409 1742 
Q 1991 1309 1228 531 
z
" transform="scale(0.015625)"/>
       </defs>
       <use xlink:href="#DejaVuSans-30"/>
       <use xlink:href="#DejaVuSans-2e" x="63.623047"/>
       <use xlink:href="#DejaVuSans-30" x="95.410156"/>
       <use xlink:href="#DejaVuSans-32" x="159.033203"/>
       <use xlink:href="#DejaVuSans-30" x="222.65625"/>
      </g>
     </g>
    </g>
    <g id="ytick_6">
     <g id="line2d_10">
      <g>
       <use xlink:href="#mbd5c7abe17" x="56.50625" y="47.149201" style="stroke: #000000; stroke-width: 0.8"/>
      </g>
     </g>
     <g id="text_11">
      <!-- 0.025 -->
      <g transform="translate(20.878125 50.94842) scale(0.1 -0.1)">
       <use xlink:href="#DejaVuSans-30"/>
       <use xlink:href="#DejaVuSans-2e" x="63.623047"/>
       <use xlink:href="#DejaVuSans-30" x="95.410156"/>
       <use xlink:href="#DejaVuSans-32" x="159.033203"/>
       <use xlink:href="#DejaVuSans-35" x="222.65625"/>
      </g>
     </g>
    </g>
    <g id="text_12">
     <!-- Mean RSD -->
     <g transform="translate(14.798438 176.751267) rotate(-90) scale(0.1 -0.1)">
      <defs>
       <path id="DejaVuSans-4d" d="M 628 4666 
L 1569 4666 
L 2759 1491 
L 3956 4666 
L 4897 4666 
L 4897 0 
L 4281 0 
L 4281 4097 
L 3078 897 
L 2444 897 
L 1241 4097 
L 1241 0 
L 628 0 
L 628 4666 
z
" transform="scale(0.015625)"/>
       <path id="DejaVuSans-52" d="M 2841 2188 
Q 3044 2119 3236 1894 
Q 3428 1669 3622 1275 
L 4263 0 
L 3584 0 
L 2988 1197 
Q 2756 1666 2539 1819 
Q 2322 1972 1947 1972 
L 1259 1972 
L 1259 0 
L 628 0 
L 628 4666 
L 2053 4666 
Q 2853 4666 3247 4331 
Q 3641 3997 3641 3322 
Q 3641 2881 3436 2590 
Q 3231 2300 2841 2188 
z
M 1259 4147 
L 1259 2491 
L 2053 2491 
Q 2509 2491 2742 2702 
Q 2975 2913 2975 3322 
Q 2975 3731 2742 3939 
Q 2509 4147 2053 4147 
L 1259 4147 
z
" transform="scale(0.015625)"/>
       <path id="DejaVuSans-53" d="M 3425 4513 
L 3425 3897 
Q 3066 4069 2747 4153 
Q 2428 4238 2131 4238 
Q 1616 4238 1336 4038 
Q 1056 3838 1056 3469 
Q 1056 3159 1242 3001 
Q 1428 2844 1947 2747 
L 2328 2669 
Q 3034 2534 3370 2195 
Q 3706 1856 3706 1288 
Q 3706 609 3251 259 
Q 2797 -91 1919 -91 
Q 1588 -91 1214 -16 
Q 841 59 441 206 
L 441 856 
Q 825 641 1194 531 
Q 1563 422 1919 422 
Q 2459 422 2753 634 
Q 3047 847 3047 1241 
Q 3047 1584 2836 1778 
Q 2625 1972 2144 2069 
L 1759 2144 
Q 1053 2284 737 2584 
Q 422 2884 422 3419 
Q 422 4038 858 4394 
Q 1294 4750 2059 4750 
Q 2388 4750 2728 4690 
Q 3069 4631 3425 4513 
z
" transform="scale(0.015625)"/>
       <path id="DejaVuSans-44" d="M 1259 4147 
L 1259 519 
L 2022 519 
Q 2988 519 3436 956 
Q 3884 1394 3884 2338 
Q 3884 3275 3436 3711 
Q 2988 4147 2022 4147 
L 1259 4147 
z
M 628 4666 
L 1925 4666 
Q 3281 4666 3915 4102 
Q 4550 3538 4550 2338 
Q 4550 1131 3912 565 
Q 3275 0 1925 0 
L 628 0 
L 628 4666 
z
" transform="scale(0.015625)"/>
      </defs>
      <use xlink:href="#DejaVuSans-4d"/>
      <use xlink:href="#DejaVuSans-65" x="86.279297"/>
      <use xlink:href="#DejaVuSans-61" x="147.802734"/>
      <use xlink:href="#DejaVuSans-6e" x="209.082031"/>
      <use xlink:href="#DejaVuSans-20" x="272.460938"/>
      <use xlink:href="#DejaVuSans-52" x="304.248047"/>
      <use xlink:href="#DejaVuSans-53" x="373.730469"/>
      <use xlink:href="#DejaVuSans-44" x="437.207031"/>
     </g>
    </g>
   </g>
   <g id="patch_7">
    <path d="M 56.50625 257.920659 
L 56.50625 44.16 
" style="fill: none; stroke: #000000; stroke-width: 0.8; stroke-linejoin: miter; stroke-linecap: square"/>
   </g>
   <g id="patch_8">
    <path d="M 530.78625 257.920659 
L 530.78625 44.16 
" style="fill: none; stroke: #000000; stroke-width: 0.8; stroke-linejoin: miter; stroke-linecap: square"/>
   </g>
   <g id="patch_9">
    <path d="M 56.50625 257.920659 
L 530.78625 257.920659 
" style="fill: none; stroke: #000000; stroke-width: 0.8; stroke-linejoin: miter; stroke-linecap: square"/>
   </g>
   <g id="patch_10">
    <path d="M 56.50625 44.16 
L 530.78625 44.16 
" style="fill: none; stroke: #000000; stroke-width: 0.8; stroke-linejoin: miter; stroke-linecap: square"/>
   </g>
   <g id="text_13">
    <!-- gemini-2.0-flash - RSD by Format Combination -->
    <g transform="translate(153.95875 38.16) scale(0.12 -0.12)">
     <defs>
      <path id="DejaVuSans-67" d="M 2906 1791 
Q 2906 2416 2648 2759 
Q 2391 3103 1925 3103 
Q 1463 3103 1205 2759 
Q 947 2416 947 1791 
Q 947 1169 1205 825 
Q 1463 481 1925 481 
Q 2391 481 2648 825 
Q 2906 1169 2906 1791 
z
M 3481 434 
Q 3481 -459 3084 -895 
Q 2688 -1331 1869 -1331 
Q 1566 -1331 1297 -1286 
Q 1028 -1241 775 -1147 
L 775 -588 
Q 1028 -725 1275 -790 
Q 1522 -856 1778 -856 
Q 2344 -856 2625 -561 
Q 2906 -266 2906 331 
L 2906 616 
Q 2728 306 2450 153 
Q 2172 0 1784 0 
Q 1141 0 747 490 
Q 353 981 353 1791 
Q 353 2603 747 3093 
Q 1141 3584 1784 3584 
Q 2172 3584 2450 3431 
Q 2728 3278 2906 2969 
L 2906 3500 
L 3481 3500 
L 3481 434 
z
" transform="scale(0.015625)"/>
      <path id="DejaVuSans-68" d="M 3513 2113 
L 3513 0 
L 2938 0 
L 2938 2094 
Q 2938 2591 2744 2837 
Q 2550 3084 2163 3084 
Q 1697 3084 1428 2787 
Q 1159 2491 1159 1978 
L 1159 0 
L 581 0 
L 581 4863 
L 1159 4863 
L 1159 2956 
Q 1366 3272 1645 3428 
Q 1925 3584 2291 3584 
Q 2894 3584 3203 3211 
Q 3513 2838 3513 2113 
z
" transform="scale(0.015625)"/>
      <path id="DejaVuSans-79" d="M 2059 -325 
Q 1816 -950 1584 -1140 
Q 1353 -1331 966 -1331 
L 506 -1331 
L 506 -850 
L 844 -850 
Q 1081 -850 1212 -737 
Q 1344 -625 1503 -206 
L 1606 56 
L 191 3500 
L 800 3500 
L 1894 763 
L 2988 3500 
L 3597 3500 
L 2059 -325 
z
" transform="scale(0.015625)"/>
      <path id="DejaVuSans-43" d="M 4122 4306 
L 4122 3641 
Q 3803 3938 3442 4084 
Q 3081 4231 2675 4231 
Q 1875 4231 1450 3742 
Q 1025 3253 1025 2328 
Q 1025 1406 1450 917 
Q 1875 428 2675 428 
Q 3081 428 3442 575 
Q 3803 722 4122 1019 
L 4122 359 
Q 3791 134 3420 21 
Q 3050 -91 2638 -91 
Q 1578 -91 968 557 
Q 359 1206 359 2328 
Q 359 3453 968 4101 
Q 1578 4750 2638 4750 
Q 3056 4750 3426 4639 
Q 3797 4528 4122 4306 
z
" transform="scale(0.015625)"/>
     </defs>
     <use xlink:href="#DejaVuSans-67"/>
     <use xlink:href="#DejaVuSans-65" x="63.476562"/>
     <use xlink:href="#DejaVuSans-6d" x="125"/>
     <use xlink:href="#DejaVuSans-69" x="222.412109"/>
     <use xlink:href="#DejaVuSans-6e" x="250.195312"/>
     <use xlink:href="#DejaVuSans-69" x="313.574219"/>
     <use xlink:href="#DejaVuSans-2d" x="341.357422"/>
     <use xlink:href="#DejaVuSans-32" x="377.441406"/>
     <use xlink:href="#DejaVuSans-2e" x="441.064453"/>
     <use xlink:href="#DejaVuSans-30" x="472.851562"/>
     <use xlink:href="#DejaVuSans-2d" x="536.474609"/>
     <use xlink:href="#DejaVuSans-66" x="572.558594"/>
     <use xlink:href="#DejaVuSans-6c" x="607.763672"/>
     <use xlink:href="#DejaVuSans-61" x="635.546875"/>
     <use xlink:href="#DejaVuSans-73" x="696.826172"/>
     <use xlink:href="#DejaVuSans-68" x="748.925781"/>
     <use xlink:href="#DejaVuSans-20" x="812.304688"/>
     <use xlink:href="#DejaVuSans-2d" x="844.091797"/>
     <use xlink:href="#DejaVuSans-20" x="880.175781"/>
     <use xlink:href="#DejaVuSans-52" x="911.962891"/>
     <use xlink:href="#DejaVuSans-53" x="981.445312"/>
     <use xlink:href="#DejaVuSans-44" x="1044.921875"/>
     <use xlink:href="#DejaVuSans-20" x="1121.923828"/>
     <use xlink:href="#DejaVuSans-62" x="1153.710938"/>
     <use xlink:href="#DejaVuSans-79" x="1217.1875"/>
     <use xlink:href="#DejaVuSans-20" x="1276.367188"/>
     <use xlink:href="#DejaVuSans-46" x="1308.154297"/>
     <use xlink:href="#DejaVuSans-6f" x="1362.048828"/>
     <use xlink:href="#DejaVuSans-72" x="1423.230469"/>
     <use xlink:href="#DejaVuSans-6d" x="1462.59375"/>
     <use xlink:href="#DejaVuSans-61" x="1560.005859"/>
     <use xlink:href="#DejaVuSans-74" x="1621.285156"/>
     <use xlink:href="#DejaVuSans-20" x="1660.494141"/>
     <use xlink:href="#DejaVuSans-43" x="1692.28125"/>
     <use xlink:href="#DejaVuSans-6f" x="1762.105469"/>
     <use xlink:href="#DejaVuSans-6d" x="1823.287109"/>
     <use xlink:href="#DejaVuSans-62" x="1920.699219"/>
     <use xlink:href="#DejaVuSans-69" x="1984.175781"/>
     <use xlink:href="#DejaVuSans-6e" x="2011.958984"/>
     <use xlink:href="#DejaVuSans-61" x="2075.337891"/>
     <use xlink:href="#DejaVuSans-74" x="2136.617188"/>
     <use xlink:href="#DejaVuSans-69" x="2175.826172"/>
     <use xlink:href="#DejaVuSans-6f" x="2203.609375"/>
     <use xlink:href="#DejaVuSans-6e" x="2264.791016"/>
    </g>
   </g>
  </g>
  <g id="axes_2">
   <g id="patch_11">
    <path d="M 591.10625 257.920659 
L 1065.38625 257.920659 
L 1065.38625 44.16 
L 591.10625 44.16 
z
" style="fill: #ffffff"/>
   </g>
   <g id="patch_12">
    <path d="M 620.74875 257.920659 
L 680.03375 257.920659 
L 680.03375 60.69019 
L 620.74875 60.69019 
z
" clip-path="url(#p85e75eebea)" style="fill: #f77189"/>
   </g>
   <g id="patch_13">
    <path d="M 739.31875 257.920659 
L 798.60375 257.920659 
L 798.60375 57.580927 
L 739.31875 57.580927 
z
" clip-path="url(#p85e75eebea)" style="fill: #f77189"/>
   </g>
   <g id="patch_14">
    <path d="M 857.88875 257.920659 
L 917.17375 257.920659 
L 917.17375 54.688827 
L 857.88875 54.688827 
z
" clip-path="url(#p85e75eebea)" style="fill: #f77189"/>
   </g>
   <g id="patch_15">
    <path d="M 976.45875 257.920659 
L 1035.74375 257.920659 
L 1035.74375 54.339079 
L 976.45875 54.339079 
z
" clip-path="url(#p85e75eebea)" style="fill: #f77189"/>
   </g>
   <g id="matplotlib.axis_3">
    <g id="xtick_5">
     <g id="line2d_11">
      <g>
       <use xlink:href="#m8b33f3ff7f" x="650.39125" y="257.920659" style="stroke: #000000; stroke-width: 0.8"/>
      </g>
     </g>
     <g id="text_14">
      <!-- json_in_json-full_out -->
      <g transform="translate(616.746778 341.288191) rotate(-45) scale(0.1 -0.1)">
       <use xlink:href="#DejaVuSans-6a"/>
       <use xlink:href="#DejaVuSans-73" x="27.783203"/>
       <use xlink:href="#DejaVuSans-6f" x="79.882812"/>
       <use xlink:href="#DejaVuSans-6e" x="141.064453"/>
       <use xlink:href="#DejaVuSans-5f" x="204.443359"/>
       <use xlink:href="#DejaVuSans-69" x="254.443359"/>
       <use xlink:href="#DejaVuSans-6e" x="282.226562"/>
       <use xlink:href="#DejaVuSans-5f" x="345.605469"/>
       <use xlink:href="#DejaVuSans-6a" x="395.605469"/>
       <use xlink:href="#DejaVuSans-73" x="423.388672"/>
       <use xlink:href="#DejaVuSans-6f" x="475.488281"/>
       <use xlink:href="#DejaVuSans-6e" x="536.669922"/>
       <use xlink:href="#DejaVuSans-2d" x="600.048828"/>
       <use xlink:href="#DejaVuSans-66" x="636.132812"/>
       <use xlink:href="#DejaVuSans-75" x="671.337891"/>
       <use xlink:href="#DejaVuSans-6c" x="734.716797"/>
       <use xlink:href="#DejaVuSans-6c" x="762.5"/>
       <use xlink:href="#DejaVuSans-5f" x="790.283203"/>
       <use xlink:href="#DejaVuSans-6f" x="840.283203"/>
       <use xlink:href="#DejaVuSans-75" x="901.464844"/>
       <use xlink:href="#DejaVuSans-74" x="964.84375"/>
      </g>
     </g>
    </g>
    <g id="xtick_6">
     <g id="line2d_12">
      <g>
       <use xlink:href="#m8b33f3ff7f" x="768.96125" y="257.920659" style="stroke: #000000; stroke-width: 0.8"/>
      </g>
     </g>
     <g id="text_15">
      <!-- base_in_base_out -->
      <g transform="translate(739.641178 332.639391) rotate(-45) scale(0.1 -0.1)">
       <use xlink:href="#DejaVuSans-62"/>
       <use xlink:href="#DejaVuSans-61" x="63.476562"/>
       <use xlink:href="#DejaVuSans-73" x="124.755859"/>
       <use xlink:href="#DejaVuSans-65" x="176.855469"/>
       <use xlink:href="#DejaVuSans-5f" x="238.378906"/>
       <use xlink:href="#DejaVuSans-69" x="288.378906"/>
       <use xlink:href="#DejaVuSans-6e" x="316.162109"/>
       <use xlink:href="#DejaVuSans-5f" x="379.541016"/>
       <use xlink:href="#DejaVuSans-62" x="429.541016"/>
       <use xlink:href="#DejaVuSans-61" x="493.017578"/>
       <use xlink:href="#DejaVuSans-73" x="554.296875"/>
       <use xlink:href="#DejaVuSans-65" x="606.396484"/>
       <use xlink:href="#DejaVuSans-5f" x="667.919922"/>
       <use xlink:href="#DejaVuSans-6f" x="717.919922"/>
       <use xlink:href="#DejaVuSans-75" x="779.101562"/>
       <use xlink:href="#DejaVuSans-74" x="842.480469"/>
      </g>
     </g>
    </g>
    <g id="xtick_7">
     <g id="line2d_13">
      <g>
       <use xlink:href="#m8b33f3ff7f" x="887.53125" y="257.920659" style="stroke: #000000; stroke-width: 0.8"/>
      </g>
     </g>
     <g id="text_16">
      <!-- base_in_json-full_out -->
      <g transform="translate(852.686354 343.68904) rotate(-45) scale(0.1 -0.1)">
       <use xlink:href="#DejaVuSans-62"/>
       <use xlink:href="#DejaVuSans-61" x="63.476562"/>
       <use xlink:href="#DejaVuSans-73" x="124.755859"/>
       <use xlink:href="#DejaVuSans-65" x="176.855469"/>
       <use xlink:href="#DejaVuSans-5f" x="238.378906"/>
       <use xlink:href="#DejaVuSans-69" x="288.378906"/>
       <use xlink:href="#DejaVuSans-6e" x="316.162109"/>
       <use xlink:href="#DejaVuSans-5f" x="379.541016"/>
       <use xlink:href="#DejaVuSans-6a" x="429.541016"/>
       <use xlink:href="#DejaVuSans-73" x="457.324219"/>
       <use xlink:href="#DejaVuSans-6f" x="509.423828"/>
       <use xlink:href="#DejaVuSans-6e" x="570.605469"/>
       <use xlink:href="#DejaVuSans-2d" x="633.984375"/>
       <use xlink:href="#DejaVuSans-66" x="670.068359"/>
       <use xlink:href="#DejaVuSans-75" x="705.273438"/>
       <use xlink:href="#DejaVuSans-6c" x="768.652344"/>
       <use xlink:href="#DejaVuSans-6c" x="796.435547"/>
       <use xlink:href="#DejaVuSans-5f" x="824.21875"/>
       <use xlink:href="#DejaVuSans-6f" x="874.21875"/>
       <use xlink:href="#DejaVuSans-75" x="935.400391"/>
       <use xlink:href="#DejaVuSans-74" x="998.779297"/>
      </g>
     </g>
    </g>
    <g id="xtick_8">
     <g id="line2d_14">
      <g>
       <use xlink:href="#m8b33f3ff7f" x="1006.10125" y="257.920659" style="stroke: #000000; stroke-width: 0.8"/>
      </g>
     </g>
     <g id="text_17">
      <!-- xml_in_base_out -->
      <g transform="translate(978.690919 328.81991) rotate(-45) scale(0.1 -0.1)">
       <use xlink:href="#DejaVuSans-78"/>
       <use xlink:href="#DejaVuSans-6d" x="59.179688"/>
       <use xlink:href="#DejaVuSans-6c" x="156.591797"/>
       <use xlink:href="#DejaVuSans-5f" x="184.375"/>
       <use xlink:href="#DejaVuSans-69" x="234.375"/>
       <use xlink:href="#DejaVuSans-6e" x="262.158203"/>
       <use xlink:href="#DejaVuSans-5f" x="325.537109"/>
       <use xlink:href="#DejaVuSans-62" x="375.537109"/>
       <use xlink:href="#DejaVuSans-61" x="439.013672"/>
       <use xlink:href="#DejaVuSans-73" x="500.292969"/>
       <use xlink:href="#DejaVuSans-65" x="552.392578"/>
       <use xlink:href="#DejaVuSans-5f" x="613.916016"/>
       <use xlink:href="#DejaVuSans-6f" x="663.916016"/>
       <use xlink:href="#DejaVuSans-75" x="725.097656"/>
       <use xlink:href="#DejaVuSans-74" x="788.476562"/>
      </g>
     </g>
    </g>
    <g id="text_18">
     <!-- Input_Output Format -->
     <g transform="translate(776.225937 356.77814) scale(0.1 -0.1)">
      <use xlink:href="#DejaVuSans-49"/>
      <use xlink:href="#DejaVuSans-6e" x="29.492188"/>
      <use xlink:href="#DejaVuSans-70" x="92.871094"/>
      <use xlink:href="#DejaVuSans-75" x="156.347656"/>
      <use xlink:href="#DejaVuSans-74" x="219.726562"/>
      <use xlink:href="#DejaVuSans-5f" x="258.935547"/>
      <use xlink:href="#DejaVuSans-4f" x="308.935547"/>
      <use xlink:href="#DejaVuSans-75" x="387.646484"/>
      <use xlink:href="#DejaVuSans-74" x="451.025391"/>
      <use xlink:href="#DejaVuSans-70" x="490.234375"/>
      <use xlink:href="#DejaVuSans-75" x="553.710938"/>
      <use xlink:href="#DejaVuSans-74" x="617.089844"/>
      <use xlink:href="#DejaVuSans-20" x="656.298828"/>
      <use xlink:href="#DejaVuSans-46" x="688.085938"/>
      <use xlink:href="#DejaVuSans-6f" x="741.980469"/>
      <use xlink:href="#DejaVuSans-72" x="803.162109"/>
      <use xlink:href="#DejaVuSans-6d" x="842.525391"/>
      <use xlink:href="#DejaVuSans-61" x="939.9375"/>
      <use xlink:href="#DejaVuSans-74" x="1001.216797"/>
     </g>
    </g>
   </g>
   <g id="matplotlib.axis_4">
    <g id="ytick_7">
     <g id="line2d_15">
      <g>
       <use xlink:href="#mbd5c7abe17" x="591.10625" y="257.920659" style="stroke: #000000; stroke-width: 0.8"/>
      </g>
     </g>
     <g id="text_19">
      <!-- 0.000 -->
      <g transform="translate(555.478125 261.719878) scale(0.1 -0.1)">
       <use xlink:href="#DejaVuSans-30"/>
       <use xlink:href="#DejaVuSans-2e" x="63.623047"/>
       <use xlink:href="#DejaVuSans-30" x="95.410156"/>
       <use xlink:href="#DejaVuSans-30" x="159.033203"/>
       <use xlink:href="#DejaVuSans-30" x="222.65625"/>
      </g>
     </g>
    </g>
    <g id="ytick_8">
     <g id="line2d_16">
      <g>
       <use xlink:href="#mbd5c7abe17" x="591.10625" y="223.124518" style="stroke: #000000; stroke-width: 0.8"/>
      </g>
     </g>
     <g id="text_20">
      <!-- 0.005 -->
      <g transform="translate(555.478125 226.923737) scale(0.1 -0.1)">
       <use xlink:href="#DejaVuSans-30"/>
       <use xlink:href="#DejaVuSans-2e" x="63.623047"/>
       <use xlink:href="#DejaVuSans-30" x="95.410156"/>
       <use xlink:href="#DejaVuSans-30" x="159.033203"/>
       <use xlink:href="#DejaVuSans-35" x="222.65625"/>
      </g>
     </g>
    </g>
    <g id="ytick_9">
     <g id="line2d_17">
      <g>
       <use xlink:href="#mbd5c7abe17" x="591.10625" y="188.328377" style="stroke: #000000; stroke-width: 0.8"/>
      </g>
     </g>
     <g id="text_21">
      <!-- 0.010 -->
      <g transform="translate(555.478125 192.127596) scale(0.1 -0.1)">
       <use xlink:href="#DejaVuSans-30"/>
       <use xlink:href="#DejaVuSans-2e" x="63.623047"/>
       <use xlink:href="#DejaVuSans-30" x="95.410156"/>
       <use xlink:href="#DejaVuSans-31" x="159.033203"/>
       <use xlink:href="#DejaVuSans-30" x="222.65625"/>
      </g>
     </g>
    </g>
    <g id="ytick_10">
     <g id="line2d_18">
      <g>
       <use xlink:href="#mbd5c7abe17" x="591.10625" y="153.532236" style="stroke: #000000; stroke-width: 0.8"/>
      </g>
     </g>
     <g id="text_22">
      <!-- 0.015 -->
      <g transform="translate(555.478125 157.331455) scale(0.1 -0.1)">
       <use xlink:href="#DejaVuSans-30"/>
       <use xlink:href="#DejaVuSans-2e" x="63.623047"/>
       <use xlink:href="#DejaVuSans-30" x="95.410156"/>
       <use xlink:href="#DejaVuSans-31" x="159.033203"/>
       <use xlink:href="#DejaVuSans-35" x="222.65625"/>
      </g>
     </g>
    </g>
    <g id="ytick_11">
     <g id="line2d_19">
      <g>
       <use xlink:href="#mbd5c7abe17" x="591.10625" y="118.736095" style="stroke: #000000; stroke-width: 0.8"/>
      </g>
     </g>
     <g id="text_23">
      <!-- 0.020 -->
      <g transform="translate(555.478125 122.535314) scale(0.1 -0.1)">
       <use xlink:href="#DejaVuSans-30"/>
       <use xlink:href="#DejaVuSans-2e" x="63.623047"/>
       <use xlink:href="#DejaVuSans-30" x="95.410156"/>
       <use xlink:href="#DejaVuSans-32" x="159.033203"/>
       <use xlink:href="#DejaVuSans-30" x="222.65625"/>
      </g>
     </g>
    </g>
    <g id="ytick_12">
     <g id="line2d_20">
      <g>
       <use xlink:href="#mbd5c7abe17" x="591.10625" y="83.939954" style="stroke: #000000; stroke-width: 0.8"/>
      </g>
     </g>
     <g id="text_24">
      <!-- 0.025 -->
      <g transform="translate(555.478125 87.739173) scale(0.1 -0.1)">
       <use xlink:href="#DejaVuSans-30"/>
       <use xlink:href="#DejaVuSans-2e" x="63.623047"/>
       <use xlink:href="#DejaVuSans-30" x="95.410156"/>
       <use xlink:href="#DejaVuSans-32" x="159.033203"/>
       <use xlink:href="#DejaVuSans-35" x="222.65625"/>
      </g>
     </g>
    </g>
    <g id="ytick_13">
     <g id="line2d_21">
      <g>
       <use xlink:href="#mbd5c7abe17" x="591.10625" y="49.143813" style="stroke: #000000; stroke-width: 0.8"/>
      </g>
     </g>
     <g id="text_25">
      <!-- 0.030 -->
      <g transform="translate(555.478125 52.943032) scale(0.1 -0.1)">
       <defs>
        <path id="DejaVuSans-33" d="M 2597 2516 
Q 3050 2419 3304 2112 
Q 3559 1806 3559 1356 
Q 3559 666 3084 287 
Q 2609 -91 1734 -91 
Q 1441 -91 1130 -33 
Q 819 25 488 141 
L 488 750 
Q 750 597 1062 519 
Q 1375 441 1716 441 
Q 2309 441 2620 675 
Q 2931 909 2931 1356 
Q 2931 1769 2642 2001 
Q 2353 2234 1838 2234 
L 1294 2234 
L 1294 2753 
L 1863 2753 
Q 2328 2753 2575 2939 
Q 2822 3125 2822 3475 
Q 2822 3834 2567 4026 
Q 2313 4219 1838 4219 
Q 1578 4219 1281 4162 
Q 984 4106 628 3988 
L 628 4550 
Q 988 4650 1302 4700 
Q 1616 4750 1894 4750 
Q 2613 4750 3031 4423 
Q 3450 4097 3450 3541 
Q 3450 3153 3228 2886 
Q 3006 2619 2597 2516 
z
" transform="scale(0.015625)"/>
       </defs>
       <use xlink:href="#DejaVuSans-30"/>
       <use xlink:href="#DejaVuSans-2e" x="63.623047"/>
       <use xlink:href="#DejaVuSans-30" x="95.410156"/>
       <use xlink:href="#DejaVuSans-33" x="159.033203"/>
       <use xlink:href="#DejaVuSans-30" x="222.65625"/>
      </g>
     </g>
    </g>
    <g id="text_26">
     <!-- Mean RSD -->
     <g transform="translate(549.398438 176.751267) rotate(-90) scale(0.1 -0.1)">
      <use xlink:href="#DejaVuSans-4d"/>
      <use xlink:href="#DejaVuSans-65" x="86.279297"/>
      <use xlink:href="#DejaVuSans-61" x="147.802734"/>
      <use xlink:href="#DejaVuSans-6e" x="209.082031"/>
      <use xlink:href="#DejaVuSans-20" x="272.460938"/>
      <use xlink:href="#DejaVuSans-52" x="304.248047"/>
      <use xlink:href="#DejaVuSans-53" x="373.730469"/>
      <use xlink:href="#DejaVuSans-44" x="437.207031"/>
     </g>
    </g>
   </g>
   <g id="patch_16">
    <path d="M 591.10625 257.920659 
L 591.10625 44.16 
" style="fill: none; stroke: #000000; stroke-width: 0.8; stroke-linejoin: miter; stroke-linecap: square"/>
   </g>
   <g id="patch_17">
    <path d="M 1065.38625 257.920659 
L 1065.38625 44.16 
" style="fill: none; stroke: #000000; stroke-width: 0.8; stroke-linejoin: miter; stroke-linecap: square"/>
   </g>
   <g id="patch_18">
    <path d="M 591.10625 257.920659 
L 1065.38625 257.920659 
" style="fill: none; stroke: #000000; stroke-width: 0.8; stroke-linejoin: miter; stroke-linecap: square"/>
   </g>
   <g id="patch_19">
    <path d="M 591.10625 44.16 
L 1065.38625 44.16 
" style="fill: none; stroke: #000000; stroke-width: 0.8; stroke-linejoin: miter; stroke-linecap: square"/>
   </g>
   <g id="text_27">
    <!-- mistral-small-2503 - RSD by Format Combination -->
    <g transform="translate(680.91625 38.16) scale(0.12 -0.12)">
     <use xlink:href="#DejaVuSans-6d"/>
     <use xlink:href="#DejaVuSans-69" x="97.412109"/>
     <use xlink:href="#DejaVuSans-73" x="125.195312"/>
     <use xlink:href="#DejaVuSans-74" x="177.294922"/>
     <use xlink:href="#DejaVuSans-72" x="216.503906"/>
     <use xlink:href="#DejaVuSans-61" x="257.617188"/>
     <use xlink:href="#DejaVuSans-6c" x="318.896484"/>
     <use xlink:href="#DejaVuSans-2d" x="346.679688"/>
     <use xlink:href="#DejaVuSans-73" x="382.763672"/>
     <use xlink:href="#DejaVuSans-6d" x="434.863281"/>
     <use xlink:href="#DejaVuSans-61" x="532.275391"/>
     <use xlink:href="#DejaVuSans-6c" x="593.554688"/>
     <use xlink:href="#DejaVuSans-6c" x="621.337891"/>
     <use xlink:href="#DejaVuSans-2d" x="649.121094"/>
     <use xlink:href="#DejaVuSans-32" x="685.205078"/>
     <use xlink:href="#DejaVuSans-35" x="748.828125"/>
     <use xlink:href="#DejaVuSans-30" x="812.451172"/>
     <use xlink:href="#DejaVuSans-33" x="876.074219"/>
     <use xlink:href="#DejaVuSans-20" x="939.697266"/>
     <use xlink:href="#DejaVuSans-2d" x="971.484375"/>
     <use xlink:href="#DejaVuSans-20" x="1007.568359"/>
     <use xlink:href="#DejaVuSans-52" x="1039.355469"/>
     <use xlink:href="#DejaVuSans-53" x="1108.837891"/>
     <use xlink:href="#DejaVuSans-44" x="1172.314453"/>
     <use xlink:href="#DejaVuSans-20" x="1249.316406"/>
     <use xlink:href="#DejaVuSans-62" x="1281.103516"/>
     <use xlink:href="#DejaVuSans-79" x="1344.580078"/>
     <use xlink:href="#DejaVuSans-20" x="1403.759766"/>
     <use xlink:href="#DejaVuSans-46" x="1435.546875"/>
     <use xlink:href="#DejaVuSans-6f" x="1489.441406"/>
     <use xlink:href="#DejaVuSans-72" x="1550.623047"/>
     <use xlink:href="#DejaVuSans-6d" x="1589.986328"/>
     <use xlink:href="#DejaVuSans-61" x="1687.398438"/>
     <use xlink:href="#DejaVuSans-74" x="1748.677734"/>
     <use xlink:href="#DejaVuSans-20" x="1787.886719"/>
     <use xlink:href="#DejaVuSans-43" x="1819.673828"/>
     <use xlink:href="#DejaVuSans-6f" x="1889.498047"/>
     <use xlink:href="#DejaVuSans-6d" x="1950.679688"/>
     <use xlink:href="#DejaVuSans-62" x="2048.091797"/>
     <use xlink:href="#DejaVuSans-69" x="2111.568359"/>
     <use xlink:href="#DejaVuSans-6e" x="2139.351562"/>
     <use xlink:href="#DejaVuSans-61" x="2202.730469"/>
     <use xlink:href="#DejaVuSans-74" x="2264.009766"/>
     <use xlink:href="#DejaVuSans-69" x="2303.21875"/>
     <use xlink:href="#DejaVuSans-6f" x="2331.001953"/>
     <use xlink:href="#DejaVuSans-6e" x="2392.183594"/>
    </g>
   </g>
  </g>
  <g id="axes_3">
   <g id="patch_20">
    <path d="M 56.50625 600.280659 
L 530.78625 600.280659 
L 530.78625 386.52 
L 56.50625 386.52 
z
" style="fill: #ffffff"/>
   </g>
   <g id="patch_21">
    <path d="M 69.680694 600.280659 
L 96.029583 600.280659 
L 96.029583 506.068779 
L 69.680694 506.068779 
z
" clip-path="url(#p94fe4fead4)" style="fill: #f77189"/>
   </g>
   <g id="patch_22">
    <path d="M 122.378472 600.280659 
L 148.727361 600.280659 
L 148.727361 497.44471 
L 122.378472 497.44471 
z
" clip-path="url(#p94fe4fead4)" style="fill: #f77189"/>
   </g>
   <g id="patch_23">
    <path d="M 175.07625 600.280659 
L 201.425139 600.280659 
L 201.425139 488.57796 
L 175.07625 488.57796 
z
" clip-path="url(#p94fe4fead4)" style="fill: #f77189"/>
   </g>
   <g id="patch_24">
    <path d="M 227.774028 600.280659 
L 254.122917 600.280659 
L 254.122917 470.524849 
L 227.774028 470.524849 
z
" clip-path="url(#p94fe4fead4)" style="fill: #f77189"/>
   </g>
   <g id="patch_25">
    <path d="M 280.471806 600.280659 
L 306.820694 600.280659 
L 306.820694 438.746724 
L 280.471806 438.746724 
z
" clip-path="url(#p94fe4fead4)" style="fill: #f77189"/>
   </g>
   <g id="patch_26">
    <path d="M 333.169583 600.280659 
L 359.518472 600.280659 
L 359.518472 428.987168 
L 333.169583 428.987168 
z
" clip-path="url(#p94fe4fead4)" style="fill: #f77189"/>
   </g>
   <g id="patch_27">
    <path d="M 385.867361 600.280659 
L 412.21625 600.280659 
L 412.21625 428.088423 
L 385.867361 428.088423 
z
" clip-path="url(#p94fe4fead4)" style="fill: #f77189"/>
   </g>
   <g id="patch_28">
    <path d="M 438.565139 600.280659 
L 464.914028 600.280659 
L 464.914028 419.185406 
L 438.565139 419.185406 
z
" clip-path="url(#p94fe4fead4)" style="fill: #f77189"/>
   </g>
   <g id="patch_29">
    <path d="M 491.262917 600.280659 
L 517.611806 600.280659 
L 517.611806 396.699079 
L 491.262917 396.699079 
z
" clip-path="url(#p94fe4fead4)" style="fill: #f77189"/>
   </g>
   <g id="matplotlib.axis_5">
    <g id="xtick_9">
     <g id="line2d_22">
      <g>
       <use xlink:href="#m8b33f3ff7f" x="82.855139" y="600.280659" style="stroke: #000000; stroke-width: 0.8"/>
      </g>
     </g>
     <g id="text_28">
      <!-- base_in_base_out -->
      <g transform="translate(53.535067 674.999391) rotate(-45) scale(0.1 -0.1)">
       <use xlink:href="#DejaVuSans-62"/>
       <use xlink:href="#DejaVuSans-61" x="63.476562"/>
       <use xlink:href="#DejaVuSans-73" x="124.755859"/>
       <use xlink:href="#DejaVuSans-65" x="176.855469"/>
       <use xlink:href="#DejaVuSans-5f" x="238.378906"/>
       <use xlink:href="#DejaVuSans-69" x="288.378906"/>
       <use xlink:href="#DejaVuSans-6e" x="316.162109"/>
       <use xlink:href="#DejaVuSans-5f" x="379.541016"/>
       <use xlink:href="#DejaVuSans-62" x="429.541016"/>
       <use xlink:href="#DejaVuSans-61" x="493.017578"/>
       <use xlink:href="#DejaVuSans-73" x="554.296875"/>
       <use xlink:href="#DejaVuSans-65" x="606.396484"/>
       <use xlink:href="#DejaVuSans-5f" x="667.919922"/>
       <use xlink:href="#DejaVuSans-6f" x="717.919922"/>
       <use xlink:href="#DejaVuSans-75" x="779.101562"/>
       <use xlink:href="#DejaVuSans-74" x="842.480469"/>
      </g>
     </g>
    </g>
    <g id="xtick_10">
     <g id="line2d_23">
      <g>
       <use xlink:href="#m8b33f3ff7f" x="135.552917" y="600.280659" style="stroke: #000000; stroke-width: 0.8"/>
      </g>
     </g>
     <g id="text_29">
      <!-- xml_in_json-full_out -->
      <g transform="translate(102.617761 682.229558) rotate(-45) scale(0.1 -0.1)">
       <use xlink:href="#DejaVuSans-78"/>
       <use xlink:href="#DejaVuSans-6d" x="59.179688"/>
       <use xlink:href="#DejaVuSans-6c" x="156.591797"/>
       <use xlink:href="#DejaVuSans-5f" x="184.375"/>
       <use xlink:href="#DejaVuSans-69" x="234.375"/>
       <use xlink:href="#DejaVuSans-6e" x="262.158203"/>
       <use xlink:href="#DejaVuSans-5f" x="325.537109"/>
       <use xlink:href="#DejaVuSans-6a" x="375.537109"/>
       <use xlink:href="#DejaVuSans-73" x="403.320312"/>
       <use xlink:href="#DejaVuSans-6f" x="455.419922"/>
       <use xlink:href="#DejaVuSans-6e" x="516.601562"/>
       <use xlink:href="#DejaVuSans-2d" x="579.980469"/>
       <use xlink:href="#DejaVuSans-66" x="616.064453"/>
       <use xlink:href="#DejaVuSans-75" x="651.269531"/>
       <use xlink:href="#DejaVuSans-6c" x="714.648438"/>
       <use xlink:href="#DejaVuSans-6c" x="742.431641"/>
       <use xlink:href="#DejaVuSans-5f" x="770.214844"/>
       <use xlink:href="#DejaVuSans-6f" x="820.214844"/>
       <use xlink:href="#DejaVuSans-75" x="881.396484"/>
       <use xlink:href="#DejaVuSans-74" x="944.775391"/>
      </g>
     </g>
    </g>
    <g id="xtick_11">
     <g id="line2d_24">
      <g>
       <use xlink:href="#m8b33f3ff7f" x="188.250694" y="600.280659" style="stroke: #000000; stroke-width: 0.8"/>
      </g>
     </g>
     <g id="text_30">
      <!-- json_in_json-full_out -->
      <g transform="translate(154.606222 683.648191) rotate(-45) scale(0.1 -0.1)">
       <use xlink:href="#DejaVuSans-6a"/>
       <use xlink:href="#DejaVuSans-73" x="27.783203"/>
       <use xlink:href="#DejaVuSans-6f" x="79.882812"/>
       <use xlink:href="#DejaVuSans-6e" x="141.064453"/>
       <use xlink:href="#DejaVuSans-5f" x="204.443359"/>
       <use xlink:href="#DejaVuSans-69" x="254.443359"/>
       <use xlink:href="#DejaVuSans-6e" x="282.226562"/>
       <use xlink:href="#DejaVuSans-5f" x="345.605469"/>
       <use xlink:href="#DejaVuSans-6a" x="395.605469"/>
       <use xlink:href="#DejaVuSans-73" x="423.388672"/>
       <use xlink:href="#DejaVuSans-6f" x="475.488281"/>
       <use xlink:href="#DejaVuSans-6e" x="536.669922"/>
       <use xlink:href="#DejaVuSans-2d" x="600.048828"/>
       <use xlink:href="#DejaVuSans-66" x="636.132812"/>
       <use xlink:href="#DejaVuSans-75" x="671.337891"/>
       <use xlink:href="#DejaVuSans-6c" x="734.716797"/>
       <use xlink:href="#DejaVuSans-6c" x="762.5"/>
       <use xlink:href="#DejaVuSans-5f" x="790.283203"/>
       <use xlink:href="#DejaVuSans-6f" x="840.283203"/>
       <use xlink:href="#DejaVuSans-75" x="901.464844"/>
       <use xlink:href="#DejaVuSans-74" x="964.84375"/>
      </g>
     </g>
    </g>
    <g id="xtick_12">
     <g id="line2d_25">
      <g>
       <use xlink:href="#m8b33f3ff7f" x="240.948472" y="600.280659" style="stroke: #000000; stroke-width: 0.8"/>
      </g>
     </g>
     <g id="text_31">
      <!-- base_in_xml-full_out -->
      <g transform="translate(206.812892 684.630407) rotate(-45) scale(0.1 -0.1)">
       <use xlink:href="#DejaVuSans-62"/>
       <use xlink:href="#DejaVuSans-61" x="63.476562"/>
       <use xlink:href="#DejaVuSans-73" x="124.755859"/>
       <use xlink:href="#DejaVuSans-65" x="176.855469"/>
       <use xlink:href="#DejaVuSans-5f" x="238.378906"/>
       <use xlink:href="#DejaVuSans-69" x="288.378906"/>
       <use xlink:href="#DejaVuSans-6e" x="316.162109"/>
       <use xlink:href="#DejaVuSans-5f" x="379.541016"/>
       <use xlink:href="#DejaVuSans-78" x="429.541016"/>
       <use xlink:href="#DejaVuSans-6d" x="488.720703"/>
       <use xlink:href="#DejaVuSans-6c" x="586.132812"/>
       <use xlink:href="#DejaVuSans-2d" x="613.916016"/>
       <use xlink:href="#DejaVuSans-66" x="650"/>
       <use xlink:href="#DejaVuSans-75" x="685.205078"/>
       <use xlink:href="#DejaVuSans-6c" x="748.583984"/>
       <use xlink:href="#DejaVuSans-6c" x="776.367188"/>
       <use xlink:href="#DejaVuSans-5f" x="804.150391"/>
       <use xlink:href="#DejaVuSans-6f" x="854.150391"/>
       <use xlink:href="#DejaVuSans-75" x="915.332031"/>
       <use xlink:href="#DejaVuSans-74" x="978.710938"/>
      </g>
     </g>
    </g>
    <g id="xtick_13">
     <g id="line2d_26">
      <g>
       <use xlink:href="#m8b33f3ff7f" x="293.64625" y="600.280659" style="stroke: #000000; stroke-width: 0.8"/>
      </g>
     </g>
     <g id="text_32">
      <!-- json_in_base_out -->
      <g transform="translate(265.526602 672.598543) rotate(-45) scale(0.1 -0.1)">
       <use xlink:href="#DejaVuSans-6a"/>
       <use xlink:href="#DejaVuSans-73" x="27.783203"/>
       <use xlink:href="#DejaVuSans-6f" x="79.882812"/>
       <use xlink:href="#DejaVuSans-6e" x="141.064453"/>
       <use xlink:href="#DejaVuSans-5f" x="204.443359"/>
       <use xlink:href="#DejaVuSans-69" x="254.443359"/>
       <use xlink:href="#DejaVuSans-6e" x="282.226562"/>
       <use xlink:href="#DejaVuSans-5f" x="345.605469"/>
       <use xlink:href="#DejaVuSans-62" x="395.605469"/>
       <use xlink:href="#DejaVuSans-61" x="459.082031"/>
       <use xlink:href="#DejaVuSans-73" x="520.361328"/>
       <use xlink:href="#DejaVuSans-65" x="572.460938"/>
       <use xlink:href="#DejaVuSans-5f" x="633.984375"/>
       <use xlink:href="#DejaVuSans-6f" x="683.984375"/>
       <use xlink:href="#DejaVuSans-75" x="745.166016"/>
       <use xlink:href="#DejaVuSans-74" x="808.544922"/>
      </g>
     </g>
    </g>
    <g id="xtick_14">
     <g id="line2d_27">
      <g>
       <use xlink:href="#m8b33f3ff7f" x="346.344028" y="600.280659" style="stroke: #000000; stroke-width: 0.8"/>
      </g>
     </g>
     <g id="text_33">
      <!-- xml_in_base_out -->
      <g transform="translate(318.933696 671.17991) rotate(-45) scale(0.1 -0.1)">
       <use xlink:href="#DejaVuSans-78"/>
       <use xlink:href="#DejaVuSans-6d" x="59.179688"/>
       <use xlink:href="#DejaVuSans-6c" x="156.591797"/>
       <use xlink:href="#DejaVuSans-5f" x="184.375"/>
       <use xlink:href="#DejaVuSans-69" x="234.375"/>
       <use xlink:href="#DejaVuSans-6e" x="262.158203"/>
       <use xlink:href="#DejaVuSans-5f" x="325.537109"/>
       <use xlink:href="#DejaVuSans-62" x="375.537109"/>
       <use xlink:href="#DejaVuSans-61" x="439.013672"/>
       <use xlink:href="#DejaVuSans-73" x="500.292969"/>
       <use xlink:href="#DejaVuSans-65" x="552.392578"/>
       <use xlink:href="#DejaVuSans-5f" x="613.916016"/>
       <use xlink:href="#DejaVuSans-6f" x="663.916016"/>
       <use xlink:href="#DejaVuSans-75" x="725.097656"/>
       <use xlink:href="#DejaVuSans-74" x="788.476562"/>
      </g>
     </g>
    </g>
    <g id="xtick_15">
     <g id="line2d_28">
      <g>
       <use xlink:href="#m8b33f3ff7f" x="399.041806" y="600.280659" style="stroke: #000000; stroke-width: 0.8"/>
      </g>
     </g>
     <g id="text_34">
      <!-- base_in_json-full_out -->
      <g transform="translate(364.196909 686.04904) rotate(-45) scale(0.1 -0.1)">
       <use xlink:href="#DejaVuSans-62"/>
       <use xlink:href="#DejaVuSans-61" x="63.476562"/>
       <use xlink:href="#DejaVuSans-73" x="124.755859"/>
       <use xlink:href="#DejaVuSans-65" x="176.855469"/>
       <use xlink:href="#DejaVuSans-5f" x="238.378906"/>
       <use xlink:href="#DejaVuSans-69" x="288.378906"/>
       <use xlink:href="#DejaVuSans-6e" x="316.162109"/>
       <use xlink:href="#DejaVuSans-5f" x="379.541016"/>
       <use xlink:href="#DejaVuSans-6a" x="429.541016"/>
       <use xlink:href="#DejaVuSans-73" x="457.324219"/>
       <use xlink:href="#DejaVuSans-6f" x="509.423828"/>
       <use xlink:href="#DejaVuSans-6e" x="570.605469"/>
       <use xlink:href="#DejaVuSans-2d" x="633.984375"/>
       <use xlink:href="#DejaVuSans-66" x="670.068359"/>
       <use xlink:href="#DejaVuSans-75" x="705.273438"/>
       <use xlink:href="#DejaVuSans-6c" x="768.652344"/>
       <use xlink:href="#DejaVuSans-6c" x="796.435547"/>
       <use xlink:href="#DejaVuSans-5f" x="824.21875"/>
       <use xlink:href="#DejaVuSans-6f" x="874.21875"/>
       <use xlink:href="#DejaVuSans-75" x="935.400391"/>
       <use xlink:href="#DejaVuSans-74" x="998.779297"/>
      </g>
     </g>
    </g>
    <g id="xtick_16">
     <g id="line2d_29">
      <g>
       <use xlink:href="#m8b33f3ff7f" x="451.739583" y="600.280659" style="stroke: #000000; stroke-width: 0.8"/>
      </g>
     </g>
     <g id="text_35">
      <!-- json_in_xml-full_out -->
      <g transform="translate(418.804428 682.229558) rotate(-45) scale(0.1 -0.1)">
       <use xlink:href="#DejaVuSans-6a"/>
       <use xlink:href="#DejaVuSans-73" x="27.783203"/>
       <use xlink:href="#DejaVuSans-6f" x="79.882812"/>
       <use xlink:href="#DejaVuSans-6e" x="141.064453"/>
       <use xlink:href="#DejaVuSans-5f" x="204.443359"/>
       <use xlink:href="#DejaVuSans-69" x="254.443359"/>
       <use xlink:href="#DejaVuSans-6e" x="282.226562"/>
       <use xlink:href="#DejaVuSans-5f" x="345.605469"/>
       <use xlink:href="#DejaVuSans-78" x="395.605469"/>
       <use xlink:href="#DejaVuSans-6d" x="454.785156"/>
       <use xlink:href="#DejaVuSans-6c" x="552.197266"/>
       <use xlink:href="#DejaVuSans-2d" x="579.980469"/>
       <use xlink:href="#DejaVuSans-66" x="616.064453"/>
       <use xlink:href="#DejaVuSans-75" x="651.269531"/>
       <use xlink:href="#DejaVuSans-6c" x="714.648438"/>
       <use xlink:href="#DejaVuSans-6c" x="742.431641"/>
       <use xlink:href="#DejaVuSans-5f" x="770.214844"/>
       <use xlink:href="#DejaVuSans-6f" x="820.214844"/>
       <use xlink:href="#DejaVuSans-75" x="881.396484"/>
       <use xlink:href="#DejaVuSans-74" x="944.775391"/>
      </g>
     </g>
    </g>
    <g id="xtick_17">
     <g id="line2d_30">
      <g>
       <use xlink:href="#m8b33f3ff7f" x="504.437361" y="600.280659" style="stroke: #000000; stroke-width: 0.8"/>
      </g>
     </g>
     <g id="text_36">
      <!-- xml_in_xml-full_out -->
      <g transform="translate(472.211522 680.810925) rotate(-45) scale(0.1 -0.1)">
       <use xlink:href="#DejaVuSans-78"/>
       <use xlink:href="#DejaVuSans-6d" x="59.179688"/>
       <use xlink:href="#DejaVuSans-6c" x="156.591797"/>
       <use xlink:href="#DejaVuSans-5f" x="184.375"/>
       <use xlink:href="#DejaVuSans-69" x="234.375"/>
       <use xlink:href="#DejaVuSans-6e" x="262.158203"/>
       <use xlink:href="#DejaVuSans-5f" x="325.537109"/>
       <use xlink:href="#DejaVuSans-78" x="375.537109"/>
       <use xlink:href="#DejaVuSans-6d" x="434.716797"/>
       <use xlink:href="#DejaVuSans-6c" x="532.128906"/>
       <use xlink:href="#DejaVuSans-2d" x="559.912109"/>
       <use xlink:href="#DejaVuSans-66" x="595.996094"/>
       <use xlink:href="#DejaVuSans-75" x="631.201172"/>
       <use xlink:href="#DejaVuSans-6c" x="694.580078"/>
       <use xlink:href="#DejaVuSans-6c" x="722.363281"/>
       <use xlink:href="#DejaVuSans-5f" x="750.146484"/>
       <use xlink:href="#DejaVuSans-6f" x="800.146484"/>
       <use xlink:href="#DejaVuSans-75" x="861.328125"/>
       <use xlink:href="#DejaVuSans-74" x="924.707031"/>
      </g>
     </g>
    </g>
    <g id="text_37">
     <!-- Input_Output Format -->
     <g transform="translate(241.625938 699.13814) scale(0.1 -0.1)">
      <use xlink:href="#DejaVuSans-49"/>
      <use xlink:href="#DejaVuSans-6e" x="29.492188"/>
      <use xlink:href="#DejaVuSans-70" x="92.871094"/>
      <use xlink:href="#DejaVuSans-75" x="156.347656"/>
      <use xlink:href="#DejaVuSans-74" x="219.726562"/>
      <use xlink:href="#DejaVuSans-5f" x="258.935547"/>
      <use xlink:href="#DejaVuSans-4f" x="308.935547"/>
      <use xlink:href="#DejaVuSans-75" x="387.646484"/>
      <use xlink:href="#DejaVuSans-74" x="451.025391"/>
      <use xlink:href="#DejaVuSans-70" x="490.234375"/>
      <use xlink:href="#DejaVuSans-75" x="553.710938"/>
      <use xlink:href="#DejaVuSans-74" x="617.089844"/>
      <use xlink:href="#DejaVuSans-20" x="656.298828"/>
      <use xlink:href="#DejaVuSans-46" x="688.085938"/>
      <use xlink:href="#DejaVuSans-6f" x="741.980469"/>
      <use xlink:href="#DejaVuSans-72" x="803.162109"/>
      <use xlink:href="#DejaVuSans-6d" x="842.525391"/>
      <use xlink:href="#DejaVuSans-61" x="939.9375"/>
      <use xlink:href="#DejaVuSans-74" x="1001.216797"/>
     </g>
    </g>
   </g>
   <g id="matplotlib.axis_6">
    <g id="ytick_14">
     <g id="line2d_31">
      <g>
       <use xlink:href="#mbd5c7abe17" x="56.50625" y="600.280659" style="stroke: #000000; stroke-width: 0.8"/>
      </g>
     </g>
     <g id="text_38">
      <!-- 0.00 -->
      <g transform="translate(27.240625 604.079878) scale(0.1 -0.1)">
       <use xlink:href="#DejaVuSans-30"/>
       <use xlink:href="#DejaVuSans-2e" x="63.623047"/>
       <use xlink:href="#DejaVuSans-30" x="95.410156"/>
       <use xlink:href="#DejaVuSans-30" x="159.033203"/>
      </g>
     </g>
    </g>
    <g id="ytick_15">
     <g id="line2d_32">
      <g>
       <use xlink:href="#mbd5c7abe17" x="56.50625" y="564.269892" style="stroke: #000000; stroke-width: 0.8"/>
      </g>
     </g>
     <g id="text_39">
      <!-- 0.01 -->
      <g transform="translate(27.240625 568.069111) scale(0.1 -0.1)">
       <use xlink:href="#DejaVuSans-30"/>
       <use xlink:href="#DejaVuSans-2e" x="63.623047"/>
       <use xlink:href="#DejaVuSans-30" x="95.410156"/>
       <use xlink:href="#DejaVuSans-31" x="159.033203"/>
      </g>
     </g>
    </g>
    <g id="ytick_16">
     <g id="line2d_33">
      <g>
       <use xlink:href="#mbd5c7abe17" x="56.50625" y="528.259125" style="stroke: #000000; stroke-width: 0.8"/>
      </g>
     </g>
     <g id="text_40">
      <!-- 0.02 -->
      <g transform="translate(27.240625 532.058344) scale(0.1 -0.1)">
       <use xlink:href="#DejaVuSans-30"/>
       <use xlink:href="#DejaVuSans-2e" x="63.623047"/>
       <use xlink:href="#DejaVuSans-30" x="95.410156"/>
       <use xlink:href="#DejaVuSans-32" x="159.033203"/>
      </g>
     </g>
    </g>
    <g id="ytick_17">
     <g id="line2d_34">
      <g>
       <use xlink:href="#mbd5c7abe17" x="56.50625" y="492.248358" style="stroke: #000000; stroke-width: 0.8"/>
      </g>
     </g>
     <g id="text_41">
      <!-- 0.03 -->
      <g transform="translate(27.240625 496.047577) scale(0.1 -0.1)">
       <use xlink:href="#DejaVuSans-30"/>
       <use xlink:href="#DejaVuSans-2e" x="63.623047"/>
       <use xlink:href="#DejaVuSans-30" x="95.410156"/>
       <use xlink:href="#DejaVuSans-33" x="159.033203"/>
      </g>
     </g>
    </g>
    <g id="ytick_18">
     <g id="line2d_35">
      <g>
       <use xlink:href="#mbd5c7abe17" x="56.50625" y="456.237591" style="stroke: #000000; stroke-width: 0.8"/>
      </g>
     </g>
     <g id="text_42">
      <!-- 0.04 -->
      <g transform="translate(27.240625 460.03681) scale(0.1 -0.1)">
       <defs>
        <path id="DejaVuSans-34" d="M 2419 4116 
L 825 1625 
L 2419 1625 
L 2419 4116 
z
M 2253 4666 
L 3047 4666 
L 3047 1625 
L 3713 1625 
L 3713 1100 
L 3047 1100 
L 3047 0 
L 2419 0 
L 2419 1100 
L 313 1100 
L 313 1709 
L 2253 4666 
z
" transform="scale(0.015625)"/>
       </defs>
       <use xlink:href="#DejaVuSans-30"/>
       <use xlink:href="#DejaVuSans-2e" x="63.623047"/>
       <use xlink:href="#DejaVuSans-30" x="95.410156"/>
       <use xlink:href="#DejaVuSans-34" x="159.033203"/>
      </g>
     </g>
    </g>
    <g id="ytick_19">
     <g id="line2d_36">
      <g>
       <use xlink:href="#mbd5c7abe17" x="56.50625" y="420.226824" style="stroke: #000000; stroke-width: 0.8"/>
      </g>
     </g>
     <g id="text_43">
      <!-- 0.05 -->
      <g transform="translate(27.240625 424.026043) scale(0.1 -0.1)">
       <use xlink:href="#DejaVuSans-30"/>
       <use xlink:href="#DejaVuSans-2e" x="63.623047"/>
       <use xlink:href="#DejaVuSans-30" x="95.410156"/>
       <use xlink:href="#DejaVuSans-35" x="159.033203"/>
      </g>
     </g>
    </g>
    <g id="text_44">
     <!-- Mean RSD -->
     <g transform="translate(21.160938 519.111267) rotate(-90) scale(0.1 -0.1)">
      <use xlink:href="#DejaVuSans-4d"/>
      <use xlink:href="#DejaVuSans-65" x="86.279297"/>
      <use xlink:href="#DejaVuSans-61" x="147.802734"/>
      <use xlink:href="#DejaVuSans-6e" x="209.082031"/>
      <use xlink:href="#DejaVuSans-20" x="272.460938"/>
      <use xlink:href="#DejaVuSans-52" x="304.248047"/>
      <use xlink:href="#DejaVuSans-53" x="373.730469"/>
      <use xlink:href="#DejaVuSans-44" x="437.207031"/>
     </g>
    </g>
   </g>
   <g id="patch_30">
    <path d="M 56.50625 600.280659 
L 56.50625 386.52 
" style="fill: none; stroke: #000000; stroke-width: 0.8; stroke-linejoin: miter; stroke-linecap: square"/>
   </g>
   <g id="patch_31">
    <path d="M 530.78625 600.280659 
L 530.78625 386.52 
" style="fill: none; stroke: #000000; stroke-width: 0.8; stroke-linejoin: miter; stroke-linecap: square"/>
   </g>
   <g id="patch_32">
    <path d="M 56.50625 600.280659 
L 530.78625 600.280659 
" style="fill: none; stroke: #000000; stroke-width: 0.8; stroke-linejoin: miter; stroke-linecap: square"/>
   </g>
   <g id="patch_33">
    <path d="M 56.50625 386.52 
L 530.78625 386.52 
" style="fill: none; stroke: #000000; stroke-width: 0.8; stroke-linejoin: miter; stroke-linecap: square"/>
   </g>
   <g id="text_45">
    <!-- llama-v3p1-8b-instruct - RSD by Format Combination -->
    <g transform="translate(134.337813 380.52) scale(0.12 -0.12)">
     <defs>
      <path id="DejaVuSans-76" d="M 191 3500 
L 800 3500 
L 1894 563 
L 2988 3500 
L 3597 3500 
L 2284 0 
L 1503 0 
L 191 3500 
z
" transform="scale(0.015625)"/>
      <path id="DejaVuSans-38" d="M 2034 2216 
Q 1584 2216 1326 1975 
Q 1069 1734 1069 1313 
Q 1069 891 1326 650 
Q 1584 409 2034 409 
Q 2484 409 2743 651 
Q 3003 894 3003 1313 
Q 3003 1734 2745 1975 
Q 2488 2216 2034 2216 
z
M 1403 2484 
Q 997 2584 770 2862 
Q 544 3141 544 3541 
Q 544 4100 942 4425 
Q 1341 4750 2034 4750 
Q 2731 4750 3128 4425 
Q 3525 4100 3525 3541 
Q 3525 3141 3298 2862 
Q 3072 2584 2669 2484 
Q 3125 2378 3379 2068 
Q 3634 1759 3634 1313 
Q 3634 634 3220 271 
Q 2806 -91 2034 -91 
Q 1263 -91 848 271 
Q 434 634 434 1313 
Q 434 1759 690 2068 
Q 947 2378 1403 2484 
z
M 1172 3481 
Q 1172 3119 1398 2916 
Q 1625 2713 2034 2713 
Q 2441 2713 2670 2916 
Q 2900 3119 2900 3481 
Q 2900 3844 2670 4047 
Q 2441 4250 2034 4250 
Q 1625 4250 1398 4047 
Q 1172 3844 1172 3481 
z
" transform="scale(0.015625)"/>
      <path id="DejaVuSans-63" d="M 3122 3366 
L 3122 2828 
Q 2878 2963 2633 3030 
Q 2388 3097 2138 3097 
Q 1578 3097 1268 2742 
Q 959 2388 959 1747 
Q 959 1106 1268 751 
Q 1578 397 2138 397 
Q 2388 397 2633 464 
Q 2878 531 3122 666 
L 3122 134 
Q 2881 22 2623 -34 
Q 2366 -91 2075 -91 
Q 1284 -91 818 406 
Q 353 903 353 1747 
Q 353 2603 823 3093 
Q 1294 3584 2113 3584 
Q 2378 3584 2631 3529 
Q 2884 3475 3122 3366 
z
" transform="scale(0.015625)"/>
     </defs>
     <use xlink:href="#DejaVuSans-6c"/>
     <use xlink:href="#DejaVuSans-6c" x="27.783203"/>
     <use xlink:href="#DejaVuSans-61" x="55.566406"/>
     <use xlink:href="#DejaVuSans-6d" x="116.845703"/>
     <use xlink:href="#DejaVuSans-61" x="214.257812"/>
     <use xlink:href="#DejaVuSans-2d" x="275.537109"/>
     <use xlink:href="#DejaVuSans-76" x="308.996094"/>
     <use xlink:href="#DejaVuSans-33" x="368.175781"/>
     <use xlink:href="#DejaVuSans-70" x="431.798828"/>
     <use xlink:href="#DejaVuSans-31" x="495.275391"/>
     <use xlink:href="#DejaVuSans-2d" x="558.898438"/>
     <use xlink:href="#DejaVuSans-38" x="594.982422"/>
     <use xlink:href="#DejaVuSans-62" x="658.605469"/>
     <use xlink:href="#DejaVuSans-2d" x="722.082031"/>
     <use xlink:href="#DejaVuSans-69" x="758.166016"/>
     <use xlink:href="#DejaVuSans-6e" x="785.949219"/>
     <use xlink:href="#DejaVuSans-73" x="849.328125"/>
     <use xlink:href="#DejaVuSans-74" x="901.427734"/>
     <use xlink:href="#DejaVuSans-72" x="940.636719"/>
     <use xlink:href="#DejaVuSans-75" x="981.75"/>
     <use xlink:href="#DejaVuSans-63" x="1045.128906"/>
     <use xlink:href="#DejaVuSans-74" x="1100.109375"/>
     <use xlink:href="#DejaVuSans-20" x="1139.318359"/>
     <use xlink:href="#DejaVuSans-2d" x="1171.105469"/>
     <use xlink:href="#DejaVuSans-20" x="1207.189453"/>
     <use xlink:href="#DejaVuSans-52" x="1238.976562"/>
     <use xlink:href="#DejaVuSans-53" x="1308.458984"/>
     <use xlink:href="#DejaVuSans-44" x="1371.935547"/>
     <use xlink:href="#DejaVuSans-20" x="1448.9375"/>
     <use xlink:href="#DejaVuSans-62" x="1480.724609"/>
     <use xlink:href="#DejaVuSans-79" x="1544.201172"/>
     <use xlink:href="#DejaVuSans-20" x="1603.380859"/>
     <use xlink:href="#DejaVuSans-46" x="1635.167969"/>
     <use xlink:href="#DejaVuSans-6f" x="1689.0625"/>
     <use xlink:href="#DejaVuSans-72" x="1750.244141"/>
     <use xlink:href="#DejaVuSans-6d" x="1789.607422"/>
     <use xlink:href="#DejaVuSans-61" x="1887.019531"/>
     <use xlink:href="#DejaVuSans-74" x="1948.298828"/>
     <use xlink:href="#DejaVuSans-20" x="1987.507812"/>
     <use xlink:href="#DejaVuSans-43" x="2019.294922"/>
     <use xlink:href="#DejaVuSans-6f" x="2089.119141"/>
     <use xlink:href="#DejaVuSans-6d" x="2150.300781"/>
     <use xlink:href="#DejaVuSans-62" x="2247.712891"/>
     <use xlink:href="#DejaVuSans-69" x="2311.189453"/>
     <use xlink:href="#DejaVuSans-6e" x="2338.972656"/>
     <use xlink:href="#DejaVuSans-61" x="2402.351562"/>
     <use xlink:href="#DejaVuSans-74" x="2463.630859"/>
     <use xlink:href="#DejaVuSans-69" x="2502.839844"/>
     <use xlink:href="#DejaVuSans-6f" x="2530.623047"/>
     <use xlink:href="#DejaVuSans-6e" x="2591.804688"/>
    </g>
   </g>
  </g>
  <g id="text_46">
   <!-- Input/Output Format Effects on Order Sensitivity -->
   <g transform="translate(343.129531 17.837812) scale(0.14 -0.14)">
    <defs>
     <path id="DejaVuSans-Bold-49" d="M 588 4666 
L 1791 4666 
L 1791 0 
L 588 0 
L 588 4666 
z
" transform="scale(0.015625)"/>
     <path id="DejaVuSans-Bold-6e" d="M 4056 2131 
L 4056 0 
L 2931 0 
L 2931 347 
L 2931 1631 
Q 2931 2084 2911 2256 
Q 2891 2428 2841 2509 
Q 2775 2619 2662 2680 
Q 2550 2741 2406 2741 
Q 2056 2741 1856 2470 
Q 1656 2200 1656 1722 
L 1656 0 
L 538 0 
L 538 3500 
L 1656 3500 
L 1656 2988 
Q 1909 3294 2193 3439 
Q 2478 3584 2822 3584 
Q 3428 3584 3742 3212 
Q 4056 2841 4056 2131 
z
" transform="scale(0.015625)"/>
     <path id="DejaVuSans-Bold-70" d="M 1656 506 
L 1656 -1331 
L 538 -1331 
L 538 3500 
L 1656 3500 
L 1656 2988 
Q 1888 3294 2169 3439 
Q 2450 3584 2816 3584 
Q 3463 3584 3878 3070 
Q 4294 2556 4294 1747 
Q 4294 938 3878 423 
Q 3463 -91 2816 -91 
Q 2450 -91 2169 54 
Q 1888 200 1656 506 
z
M 2400 2772 
Q 2041 2772 1848 2508 
Q 1656 2244 1656 1747 
Q 1656 1250 1848 986 
Q 2041 722 2400 722 
Q 2759 722 2948 984 
Q 3138 1247 3138 1747 
Q 3138 2247 2948 2509 
Q 2759 2772 2400 2772 
z
" transform="scale(0.015625)"/>
     <path id="DejaVuSans-Bold-75" d="M 500 1363 
L 500 3500 
L 1625 3500 
L 1625 3150 
Q 1625 2866 1622 2436 
Q 1619 2006 1619 1863 
Q 1619 1441 1641 1255 
Q 1663 1069 1716 984 
Q 1784 875 1895 815 
Q 2006 756 2150 756 
Q 2500 756 2700 1025 
Q 2900 1294 2900 1772 
L 2900 3500 
L 4019 3500 
L 4019 0 
L 2900 0 
L 2900 506 
Q 2647 200 2364 54 
Q 2081 -91 1741 -91 
Q 1134 -91 817 281 
Q 500 653 500 1363 
z
" transform="scale(0.015625)"/>
     <path id="DejaVuSans-Bold-74" d="M 1759 4494 
L 1759 3500 
L 2913 3500 
L 2913 2700 
L 1759 2700 
L 1759 1216 
Q 1759 972 1856 886 
Q 1953 800 2241 800 
L 2816 800 
L 2816 0 
L 1856 0 
Q 1194 0 917 276 
Q 641 553 641 1216 
L 641 2700 
L 84 2700 
L 84 3500 
L 641 3500 
L 641 4494 
L 1759 4494 
z
" transform="scale(0.015625)"/>
     <path id="DejaVuSans-Bold-2f" d="M 1644 4666 
L 2338 4666 
L 691 -594 
L 0 -594 
L 1644 4666 
z
" transform="scale(0.015625)"/>
     <path id="DejaVuSans-Bold-4f" d="M 2719 3878 
Q 2169 3878 1866 3472 
Q 1563 3066 1563 2328 
Q 1563 1594 1866 1187 
Q 2169 781 2719 781 
Q 3272 781 3575 1187 
Q 3878 1594 3878 2328 
Q 3878 3066 3575 3472 
Q 3272 3878 2719 3878 
z
M 2719 4750 
Q 3844 4750 4481 4106 
Q 5119 3463 5119 2328 
Q 5119 1197 4481 553 
Q 3844 -91 2719 -91 
Q 1597 -91 958 553 
Q 319 1197 319 2328 
Q 319 3463 958 4106 
Q 1597 4750 2719 4750 
z
" transform="scale(0.015625)"/>
     <path id="DejaVuSans-Bold-20" transform="scale(0.015625)"/>
     <path id="DejaVuSans-Bold-46" d="M 588 4666 
L 3834 4666 
L 3834 3756 
L 1791 3756 
L 1791 2888 
L 3713 2888 
L 3713 1978 
L 1791 1978 
L 1791 0 
L 588 0 
L 588 4666 
z
" transform="scale(0.015625)"/>
     <path id="DejaVuSans-Bold-6f" d="M 2203 2784 
Q 1831 2784 1636 2517 
Q 1441 2250 1441 1747 
Q 1441 1244 1636 976 
Q 1831 709 2203 709 
Q 2569 709 2762 976 
Q 2956 1244 2956 1747 
Q 2956 2250 2762 2517 
Q 2569 2784 2203 2784 
z
M 2203 3584 
Q 3106 3584 3614 3096 
Q 4122 2609 4122 1747 
Q 4122 884 3614 396 
Q 3106 -91 2203 -91 
Q 1297 -91 786 396 
Q 275 884 275 1747 
Q 275 2609 786 3096 
Q 1297 3584 2203 3584 
z
" transform="scale(0.015625)"/>
     <path id="DejaVuSans-Bold-72" d="M 3138 2547 
Q 2991 2616 2845 2648 
Q 2700 2681 2553 2681 
Q 2122 2681 1889 2404 
Q 1656 2128 1656 1613 
L 1656 0 
L 538 0 
L 538 3500 
L 1656 3500 
L 1656 2925 
Q 1872 3269 2151 3426 
Q 2431 3584 2822 3584 
Q 2878 3584 2943 3579 
Q 3009 3575 3134 3559 
L 3138 2547 
z
" transform="scale(0.015625)"/>
     <path id="DejaVuSans-Bold-6d" d="M 3781 2919 
Q 3994 3244 4286 3414 
Q 4578 3584 4928 3584 
Q 5531 3584 5847 3212 
Q 6163 2841 6163 2131 
L 6163 0 
L 5038 0 
L 5038 1825 
Q 5041 1866 5042 1909 
Q 5044 1953 5044 2034 
Q 5044 2406 4934 2573 
Q 4825 2741 4581 2741 
Q 4263 2741 4089 2478 
Q 3916 2216 3909 1719 
L 3909 0 
L 2784 0 
L 2784 1825 
Q 2784 2406 2684 2573 
Q 2584 2741 2328 2741 
Q 2006 2741 1831 2477 
Q 1656 2213 1656 1722 
L 1656 0 
L 531 0 
L 531 3500 
L 1656 3500 
L 1656 2988 
Q 1863 3284 2130 3434 
Q 2397 3584 2719 3584 
Q 3081 3584 3359 3409 
Q 3638 3234 3781 2919 
z
" transform="scale(0.015625)"/>
     <path id="DejaVuSans-Bold-61" d="M 2106 1575 
Q 1756 1575 1579 1456 
Q 1403 1338 1403 1106 
Q 1403 894 1545 773 
Q 1688 653 1941 653 
Q 2256 653 2472 879 
Q 2688 1106 2688 1447 
L 2688 1575 
L 2106 1575 
z
M 3816 1997 
L 3816 0 
L 2688 0 
L 2688 519 
Q 2463 200 2181 54 
Q 1900 -91 1497 -91 
Q 953 -91 614 226 
Q 275 544 275 1050 
Q 275 1666 698 1953 
Q 1122 2241 2028 2241 
L 2688 2241 
L 2688 2328 
Q 2688 2594 2478 2717 
Q 2269 2841 1825 2841 
Q 1466 2841 1156 2769 
Q 847 2697 581 2553 
L 581 3406 
Q 941 3494 1303 3539 
Q 1666 3584 2028 3584 
Q 2975 3584 3395 3211 
Q 3816 2838 3816 1997 
z
" transform="scale(0.015625)"/>
     <path id="DejaVuSans-Bold-45" d="M 588 4666 
L 3834 4666 
L 3834 3756 
L 1791 3756 
L 1791 2888 
L 3713 2888 
L 3713 1978 
L 1791 1978 
L 1791 909 
L 3903 909 
L 3903 0 
L 588 0 
L 588 4666 
z
" transform="scale(0.015625)"/>
     <path id="DejaVuSans-Bold-66" d="M 2841 4863 
L 2841 4128 
L 2222 4128 
Q 1984 4128 1890 4042 
Q 1797 3956 1797 3744 
L 1797 3500 
L 2753 3500 
L 2753 2700 
L 1797 2700 
L 1797 0 
L 678 0 
L 678 2700 
L 122 2700 
L 122 3500 
L 678 3500 
L 678 3744 
Q 678 4316 997 4589 
Q 1316 4863 1984 4863 
L 2841 4863 
z
" transform="scale(0.015625)"/>
     <path id="DejaVuSans-Bold-65" d="M 4031 1759 
L 4031 1441 
L 1416 1441 
Q 1456 1047 1700 850 
Q 1944 653 2381 653 
Q 2734 653 3104 758 
Q 3475 863 3866 1075 
L 3866 213 
Q 3469 63 3072 -14 
Q 2675 -91 2278 -91 
Q 1328 -91 801 392 
Q 275 875 275 1747 
Q 275 2603 792 3093 
Q 1309 3584 2216 3584 
Q 3041 3584 3536 3087 
Q 4031 2591 4031 1759 
z
M 2881 2131 
Q 2881 2450 2695 2645 
Q 2509 2841 2209 2841 
Q 1884 2841 1681 2658 
Q 1478 2475 1428 2131 
L 2881 2131 
z
" transform="scale(0.015625)"/>
     <path id="DejaVuSans-Bold-63" d="M 3366 3391 
L 3366 2478 
Q 3138 2634 2908 2709 
Q 2678 2784 2431 2784 
Q 1963 2784 1702 2511 
Q 1441 2238 1441 1747 
Q 1441 1256 1702 982 
Q 1963 709 2431 709 
Q 2694 709 2930 787 
Q 3166 866 3366 1019 
L 3366 103 
Q 3103 6 2833 -42 
Q 2563 -91 2291 -91 
Q 1344 -91 809 395 
Q 275 881 275 1747 
Q 275 2613 809 3098 
Q 1344 3584 2291 3584 
Q 2566 3584 2833 3536 
Q 3100 3488 3366 3391 
z
" transform="scale(0.015625)"/>
     <path id="DejaVuSans-Bold-73" d="M 3272 3391 
L 3272 2541 
Q 2913 2691 2578 2766 
Q 2244 2841 1947 2841 
Q 1628 2841 1473 2761 
Q 1319 2681 1319 2516 
Q 1319 2381 1436 2309 
Q 1553 2238 1856 2203 
L 2053 2175 
Q 2913 2066 3209 1816 
Q 3506 1566 3506 1031 
Q 3506 472 3093 190 
Q 2681 -91 1863 -91 
Q 1516 -91 1145 -36 
Q 775 19 384 128 
L 384 978 
Q 719 816 1070 734 
Q 1422 653 1784 653 
Q 2113 653 2278 743 
Q 2444 834 2444 1013 
Q 2444 1163 2330 1236 
Q 2216 1309 1875 1350 
L 1678 1375 
Q 931 1469 631 1722 
Q 331 1975 331 2491 
Q 331 3047 712 3315 
Q 1094 3584 1881 3584 
Q 2191 3584 2531 3537 
Q 2872 3491 3272 3391 
z
" transform="scale(0.015625)"/>
     <path id="DejaVuSans-Bold-64" d="M 2919 2988 
L 2919 4863 
L 4044 4863 
L 4044 0 
L 2919 0 
L 2919 506 
Q 2688 197 2409 53 
Q 2131 -91 1766 -91 
Q 1119 -91 703 423 
Q 288 938 288 1747 
Q 288 2556 703 3070 
Q 1119 3584 1766 3584 
Q 2128 3584 2408 3439 
Q 2688 3294 2919 2988 
z
M 2181 722 
Q 2541 722 2730 984 
Q 2919 1247 2919 1747 
Q 2919 2247 2730 2509 
Q 2541 2772 2181 2772 
Q 1825 2772 1636 2509 
Q 1447 2247 1447 1747 
Q 1447 1247 1636 984 
Q 1825 722 2181 722 
z
" transform="scale(0.015625)"/>
     <path id="DejaVuSans-Bold-53" d="M 3834 4519 
L 3834 3531 
Q 3450 3703 3084 3790 
Q 2719 3878 2394 3878 
Q 1963 3878 1756 3759 
Q 1550 3641 1550 3391 
Q 1550 3203 1689 3098 
Q 1828 2994 2194 2919 
L 2706 2816 
Q 3484 2659 3812 2340 
Q 4141 2022 4141 1434 
Q 4141 663 3683 286 
Q 3225 -91 2284 -91 
Q 1841 -91 1394 -6 
Q 947 78 500 244 
L 500 1259 
Q 947 1022 1364 901 
Q 1781 781 2169 781 
Q 2563 781 2772 912 
Q 2981 1044 2981 1288 
Q 2981 1506 2839 1625 
Q 2697 1744 2272 1838 
L 1806 1941 
Q 1106 2091 782 2419 
Q 459 2747 459 3303 
Q 459 4000 909 4375 
Q 1359 4750 2203 4750 
Q 2588 4750 2994 4692 
Q 3400 4634 3834 4519 
z
" transform="scale(0.015625)"/>
     <path id="DejaVuSans-Bold-69" d="M 538 3500 
L 1656 3500 
L 1656 0 
L 538 0 
L 538 3500 
z
M 538 4863 
L 1656 4863 
L 1656 3950 
L 538 3950 
L 538 4863 
z
" transform="scale(0.015625)"/>
     <path id="DejaVuSans-Bold-76" d="M 97 3500 
L 1216 3500 
L 2088 1081 
L 2956 3500 
L 4078 3500 
L 2700 0 
L 1472 0 
L 97 3500 
z
" transform="scale(0.015625)"/>
     <path id="DejaVuSans-Bold-79" d="M 78 3500 
L 1197 3500 
L 2138 1125 
L 2938 3500 
L 4056 3500 
L 2584 -331 
Q 2363 -916 2067 -1148 
Q 1772 -1381 1288 -1381 
L 641 -1381 
L 641 -647 
L 991 -647 
Q 1275 -647 1404 -556 
Q 1534 -466 1606 -231 
L 1638 -134 
L 78 3500 
z
" transform="scale(0.015625)"/>
    </defs>
    <use xlink:href="#DejaVuSans-Bold-49"/>
    <use xlink:href="#DejaVuSans-Bold-6e" x="37.207031"/>
    <use xlink:href="#DejaVuSans-Bold-70" x="108.398438"/>
    <use xlink:href="#DejaVuSans-Bold-75" x="179.980469"/>
    <use xlink:href="#DejaVuSans-Bold-74" x="251.171875"/>
    <use xlink:href="#DejaVuSans-Bold-2f" x="298.974609"/>
    <use xlink:href="#DejaVuSans-Bold-4f" x="335.498047"/>
    <use xlink:href="#DejaVuSans-Bold-75" x="420.507812"/>
    <use xlink:href="#DejaVuSans-Bold-74" x="491.699219"/>
    <use xlink:href="#DejaVuSans-Bold-70" x="539.501953"/>
    <use xlink:href="#DejaVuSans-Bold-75" x="611.083984"/>
    <use xlink:href="#DejaVuSans-Bold-74" x="682.275391"/>
    <use xlink:href="#DejaVuSans-Bold-20" x="730.078125"/>
    <use xlink:href="#DejaVuSans-Bold-46" x="764.892578"/>
    <use xlink:href="#DejaVuSans-Bold-6f" x="829.203125"/>
    <use xlink:href="#DejaVuSans-Bold-72" x="897.904297"/>
    <use xlink:href="#DejaVuSans-Bold-6d" x="947.220703"/>
    <use xlink:href="#DejaVuSans-Bold-61" x="1051.419922"/>
    <use xlink:href="#DejaVuSans-Bold-74" x="1118.900391"/>
    <use xlink:href="#DejaVuSans-Bold-20" x="1166.703125"/>
    <use xlink:href="#DejaVuSans-Bold-45" x="1201.517578"/>
    <use xlink:href="#DejaVuSans-Bold-66" x="1269.828125"/>
    <use xlink:href="#DejaVuSans-Bold-66" x="1313.333984"/>
    <use xlink:href="#DejaVuSans-Bold-65" x="1356.839844"/>
    <use xlink:href="#DejaVuSans-Bold-63" x="1424.662109"/>
    <use xlink:href="#DejaVuSans-Bold-74" x="1483.939453"/>
    <use xlink:href="#DejaVuSans-Bold-73" x="1531.742188"/>
    <use xlink:href="#DejaVuSans-Bold-20" x="1591.263672"/>
    <use xlink:href="#DejaVuSans-Bold-6f" x="1626.078125"/>
    <use xlink:href="#DejaVuSans-Bold-6e" x="1694.779297"/>
    <use xlink:href="#DejaVuSans-Bold-20" x="1765.970703"/>
    <use xlink:href="#DejaVuSans-Bold-4f" x="1800.785156"/>
    <use xlink:href="#DejaVuSans-Bold-72" x="1885.794922"/>
    <use xlink:href="#DejaVuSans-Bold-64" x="1935.111328"/>
    <use xlink:href="#DejaVuSans-Bold-65" x="2006.693359"/>
    <use xlink:href="#DejaVuSans-Bold-72" x="2074.515625"/>
    <use xlink:href="#DejaVuSans-Bold-20" x="2123.832031"/>
    <use xlink:href="#DejaVuSans-Bold-53" x="2158.646484"/>
    <use xlink:href="#DejaVuSans-Bold-65" x="2230.667969"/>
    <use xlink:href="#DejaVuSans-Bold-6e" x="2298.490234"/>
    <use xlink:href="#DejaVuSans-Bold-73" x="2369.681641"/>
    <use xlink:href="#DejaVuSans-Bold-69" x="2429.203125"/>
    <use xlink:href="#DejaVuSans-Bold-74" x="2463.480469"/>
    <use xlink:href="#DejaVuSans-Bold-69" x="2511.283203"/>
    <use xlink:href="#DejaVuSans-Bold-76" x="2545.560547"/>
    <use xlink:href="#DejaVuSans-Bold-69" x="2610.746094"/>
    <use xlink:href="#DejaVuSans-Bold-74" x="2645.023438"/>
    <use xlink:href="#DejaVuSans-Bold-79" x="2692.826172"/>
   </g>
  </g>
 </g>
 <defs>
  <clipPath id="p04b4558fd0">
   <rect x="56.50625" y="44.16" width="474.28" height="213.760659"/>
  </clipPath>
  <clipPath id="p85e75eebea">
   <rect x="591.10625" y="44.16" width="474.28" height="213.760659"/>
  </clipPath>
  <clipPath id="p94fe4fead4">
   <rect x="56.50625" y="386.52" width="474.28" height="213.760659"/>
  </clipPath>
 </defs>
</svg>
